<?xml version="1.0" encoding="UTF-8" standalone="no"?>
<svg
   xmlns:dc="http://purl.org/dc/elements/1.1/"
   xmlns:cc="http://creativecommons.org/ns#"
   xmlns:rdf="http://www.w3.org/1999/02/22-rdf-syntax-ns#"
   xmlns:svg="http://www.w3.org/2000/svg"
   xmlns="http://www.w3.org/2000/svg"
   xmlns:xlink="http://www.w3.org/1999/xlink"
   viewBox="0 0 15.9375 15"
   height="15"
   width="15.9375"
   version="1.1"
   id="svg3390">
  <metadata
     id="metadata3396">
    <rdf:RDF>
      <cc:Work
         rdf:about="">
        <dc:format>image/svg+xml</dc:format>
        <dc:type
           rdf:resource="http://purl.org/dc/dcmitype/StillImage" />
        <dc:title></dc:title>
      </cc:Work>
    </rdf:RDF>
  </metadata>
  <defs
     id="defs3394">
    <linearGradient
       id="linearGradient4450">
      <stop
         id="stop4452"
         offset="0"
         style="stop-color:#84da38;stop-opacity:1;" />
      <stop
         id="stop4454"
         offset="1"
         style="stop-color:#84da38;stop-opacity:0;" />
    </linearGradient>
    <filter
       height="1.3653734"
       y="-0.18268671"
       width="1.2066615"
       x="-0.10333073"
       id="filter4442"
       style="color-interpolation-filters:sRGB">
      <feGaussianBlur
         id="feGaussianBlur4444"
         stdDeviation="0.66768067" />
    </filter>
    <linearGradient
       gradientTransform="translate(-11.074461,-7.0226721)"
       gradientUnits="userSpaceOnUse"
       y2="8.0502958"
       x2="-6.6812162"
       y1="7.8731756"
       x1="-13.01972"
       id="linearGradient4456"
       xlink:href="#linearGradient4450" />
    <linearGradient
       y2="8.9666862"
       x2="-9.0114479"
       y1="5.776144"
       x1="-9.0803528"
       gradientTransform="translate(-10.940647,-7.1585105)"
       gradientUnits="userSpaceOnUse"
       id="linearGradient4460"
       xlink:href="#linearGradient4450" />
    <filter
       height="2.7380647"
       y="-0.86903237"
       width="1.2914767"
       x="-0.14573834"
       id="filter4541"
       style="color-interpolation-filters:sRGB">
      <feGaussianBlur
         id="feGaussianBlur4543"
         stdDeviation="0.62139495" />
    </filter>
  </defs>
  <g
     transform="translate(25.087951,-8.6890106)"
     id="g4545">
    <ellipse
       style="fill:#666666;fill-opacity:1;stroke:none;stroke-width:30;stroke-miterlimit:4;stroke-dasharray:none;filter:url(#filter4541)"
       id="path3415"
       cx="6.7690678"
       cy="13.315678"
       rx="5.1165257"
       ry="0.85805082"
       transform="matrix(1.1840288,0,0,0.87762875,-24.788242,10.486854)" />
    <path
       style="opacity:0.75;fill:#c7e7bf;fill-opacity:0.99607843;stroke:#008000;stroke-width:0.55036557;stroke-miterlimit:4;stroke-dasharray:none"
       d="m -11.931869,9.420945 -6.693359,6.65625 -2.902344,-2.863281 -3.023437,3.066406 4.5,4.439453 1.425781,1.431641 9.728516,-9.679688 -3.035157,-3.050781 z"
       id="rect3554" />
    <rect
       transform="matrix(0.71239707,-0.70177661,0.70177661,0.71239707,0,0)"
       y="-1.4441639"
       x="-25.279383"
       height="3.8135593"
       width="9.9152546"
       id="rect4458"
       style="fill:url(#linearGradient4460);fill-opacity:1;stroke:none;stroke-width:30;stroke-miterlimit:4;stroke-dasharray:none" />
    <rect
       style="fill:url(#linearGradient4456);fill-opacity:1;stroke:none;stroke-width:30;stroke-miterlimit:4;stroke-dasharray:none"
       id="rect4448"
       width="9.9152546"
       height="3.8135593"
       x="-25.413197"
       y="-1.3083254"
       transform="matrix(0.71239707,-0.70177661,0.70177661,0.71239707,0,0)" />
    <path
       style="fill:#54b839;fill-opacity:1;stroke:none;stroke-width:30;stroke-miterlimit:4;stroke-dasharray:none;filter:url(#filter4442)"
       d="m -13.771712,14.526414 a 4.1949153,4.1631355 0 0 0 -3.699219,2.205078 4.1949153,4.1631355 0 0 0 -0.894531,-0.914063 l -0.259766,0.259766 -0.878906,-0.867188 a 4.1949153,4.1631355 0 0 0 -1.384766,-0.238281 4.1949153,4.1631355 0 0 0 -3.330078,1.634766 l 4.167969,4.113281 1.425781,1.431641 7.044922,-7.007813 a 4.1949153,4.1631355 0 0 0 -2.191406,-0.617187 z"
       id="path4277" />
  </g>
</svg>
