<?xml version="1.0" encoding="UTF-8" standalone="no"?>
<svg
   xmlns:dc="http://purl.org/dc/elements/1.1/"
   xmlns:cc="http://creativecommons.org/ns#"
   xmlns:rdf="http://www.w3.org/1999/02/22-rdf-syntax-ns#"
   xmlns:svg="http://www.w3.org/2000/svg"
   xmlns="http://www.w3.org/2000/svg"
   xmlns:sodipodi="http://sodipodi.sourceforge.net/DTD/sodipodi-0.dtd"
   xmlns:inkscape="http://www.inkscape.org/namespaces/inkscape"
   enable-background="new 0 0 64 64"
   height="64px"
   version="1.1"
   viewBox="0 0 64 64"
   width="64px"
   xml:space="preserve"
   id="svg2"
   inkscape:version="0.91 r13725"
   sodipodi:docname="edit.svg"><metadata
     id="metadata44"><rdf:RDF><cc:Work
         rdf:about=""><dc:format>image/svg+xml</dc:format><dc:type
           rdf:resource="http://purl.org/dc/dcmitype/StillImage" /></cc:Work></rdf:RDF></metadata><defs
     id="defs42" /><sodipodi:namedview
     pagecolor="#ffffff"
     bordercolor="#666666"
     borderopacity="1"
     objecttolerance="10"
     gridtolerance="10"
     guidetolerance="10"
     inkscape:pageopacity="0"
     inkscape:pageshadow="2"
     inkscape:window-width="1440"
     inkscape:window-height="851"
     id="namedview40"
     showgrid="false"
     inkscape:zoom="3.6875"
     inkscape:cx="32"
     inkscape:cy="32"
     inkscape:window-x="0"
     inkscape:window-y="1"
     inkscape:window-maximized="1"
     inkscape:current-layer="svg2" /><g
     id="g3389"
     transform="matrix(1.1909478,1.1602971,-1.1602971,1.1909478,30.87134,-42.76042)"><g
       id="g9"
       style="opacity:0.2"><path
         d="m 37,14 -10,0 c -1.657,0 -3,1.343 -3,3 l 0,5 0,1 0,23 5.333,8 2.667,4 2.667,-4 5.333,-8 0,-23 0,-1 0,-5 c 0,-1.657 -1.343,-3 -3,-3 z"
         id="path11"
         inkscape:connector-curvature="0"
         style="fill:#231f20" /></g><g
       id="g13"><path
         d="m 40,21 c 0,1.657 -1.343,3 -3,3 l -10,0 c -1.657,0 -3,-1.343 -3,-3 l 0,-6 c 0,-1.657 1.343,-3 3,-3 l 10,0 c 1.657,0 3,1.343 3,3 l 0,6 z"
         id="path15"
         inkscape:connector-curvature="0"
         style="fill:#c75c5c" /></g><g
       id="g17"><rect
         height="24"
         width="4"
         x="24"
         y="20"
         id="rect19"
         style="fill:#e0995e" /></g><g
       id="g21"><rect
         height="26"
         width="8"
         x="28"
         y="20"
         id="rect23"
         style="fill:#f5cf87" /></g><g
       id="g25"><rect
         height="24"
         width="4"
         x="36"
         y="20"
         id="rect27"
         style="fill:#e0995e" /></g><g
       id="g29"><g
         id="g31"><polygon
           points="32,56 34.667,52 29.333,52 "
           id="polygon33"
           style="fill:#4f5d73" /></g><g
         id="g35"><polygon
           points="40,44 38,44 36,42 32,46 28,42 26,44 24,44 29.333,52 34.667,52 "
           id="polygon37"
           style="fill:#ffffff" /></g></g></g><g
     id="Layer_2" /></svg>