<?xml version="1.0" ?><svg height="512" id="svg2" version="1.1" width="512" xmlns="http://www.w3.org/2000/svg" xmlns:cc="http://creativecommons.org/ns#" xmlns:dc="http://purl.org/dc/elements/1.1/" xmlns:inkscape="http://www.inkscape.org/namespaces/inkscape" xmlns:rdf="http://www.w3.org/1999/02/22-rdf-syntax-ns#" xmlns:sodipodi="http://sodipodi.sourceforge.net/DTD/sodipodi-0.dtd" xmlns:svg="http://www.w3.org/2000/svg"><defs id="defs4"/><g id="layer1" transform="translate(0,-540.3622)"><path d="m 255.99425,603.75631 c -46.68727,0 -92.27268,32.10842 -129.53125,61.875 -36.360899,29.04942 -63.515417,57.80898 -64.812498,59.1875 -0.03202,0.034 -0.25,0.25 -0.25,0.25 a 20.002,20.002 0 0 0 -5.40625,17.21875 l 0,8.59375 a 20.001996,20.001996 0 0 0 0,5.1875 l 0,209.625 a 20.002,20.002 0 0 0 22.59375,23.0625 l 354.781248,0 a 20.002004,20.002004 0 0 0 22.625,-23.125 l 0,-209.21875 a 20.002004,20.002004 0 0 0 0,-5.65625 l 0,-8.4375 a 20.002,20.002 0 0 0 -4.71875,-16.4375 20.002,20.002 0 0 0 -0.6875,-0.8125 c 0,0 -0.43847,-0.42638 -0.65625,-0.65625 -3.22568,-3.40484 -29.50405,-30.89722 -64.40625,-58.78125 -37.25857,-29.76658 -82.84398,-61.875 -129.53125,-61.875 z m 0,40 c 25.42376,0 69.84882,25.39158 104.5625,53.125 24.62596,19.67414 44.71519,39.20805 54.4375,49 l -106.1875,97.34375 a 20.002,20.002 0 0 0 -5.625,-3.21875 20.002004,20.002004 0 0 0 -7.8125,-1.4375 20.002004,20.002004 0 0 0 -2.1875,0.1875 l -74.53125,0 a 20.002,20.002 0 0 0 -2.625,-0.1875 20.002,20.002 0 0 0 -5.90625,0.96875 20.002,20.002 0 0 0 -0.0625,0.0312 20.002,20.002 0 0 0 -0.5,0.1875 20.002,20.002 0 0 0 -6.375,3.4375 L 96.994252,745.88131 c 9.722318,-9.79195 29.811548,-29.32586 54.437498,-49 34.71368,-27.73342 79.13874,-53.125 104.5625,-53.125 z m -159.999998,155.4375 75.437498,69.125 -75.437498,59.28125 0,-115.28125 0,-13.125 z m 319.999998,0 0,13.125 0,115.28125 -75.4375,-59.28125 75.4375,-69.125 z m -193.09375,79.5625 66.1875,0 89.09375,70 -244.375,0 89.09375,-70 z" id="rect3001" style="font-size:medium;font-style:normal;font-variant:normal;font-weight:normal;font-stretch:normal;text-indent:0;text-align:start;text-decoration:none;line-height:normal;letter-spacing:normal;word-spacing:normal;text-transform:none;direction:ltr;block-progression:tb;writing-mode:lr-tb;text-anchor:start;baseline-shift:baseline;color:#000000;fill:#222222;fill-opacity:1;stroke:none;stroke-width:40;marker:none;visibility:visible;display:inline;overflow:visible;enable-background:accumulate;font-family:Sans;-inkscape-font-specification:Sans"/></g></svg>