<?xml version="1.0" encoding="UTF-8" standalone="no"?>
<!-- Created with Inkscape (http://www.inkscape.org/) -->

<svg
   xmlns:dc="http://purl.org/dc/elements/1.1/"
   xmlns:cc="http://creativecommons.org/ns#"
   xmlns:rdf="http://www.w3.org/1999/02/22-rdf-syntax-ns#"
   xmlns:svg="http://www.w3.org/2000/svg"
   xmlns="http://www.w3.org/2000/svg"
   xmlns:xlink="http://www.w3.org/1999/xlink"
   xmlns:sodipodi="http://sodipodi.sourceforge.net/DTD/sodipodi-0.dtd"
   xmlns:inkscape="http://www.inkscape.org/namespaces/inkscape"
   width="35.822372mm"
   height="24.835552mm"
   viewBox="0 0 126.92968 87.999987"
   id="svg2"
   version="1.1"
   inkscape:version="0.91 r13725"
   sodipodi:docname="Logo.svg"
   inkscape:export-filename="/Users/jiangsir/Documents/Mars2/ZeroJudge/WebContent/images/Logo.png"
   inkscape:export-xdpi="90"
   inkscape:export-ydpi="90">
  <defs
     id="defs4">
    <linearGradient
       inkscape:collect="always"
       id="linearGradient4146">
      <stop
         style="stop-color:#4d4d4d;stop-opacity:1;"
         offset="0"
         id="stop4148" />
      <stop
         style="stop-color:#4d4d4d;stop-opacity:0;"
         offset="1"
         id="stop4150" />
    </linearGradient>
    <linearGradient
       inkscape:collect="always"
       id="linearGradient3350">
      <stop
         style="stop-color:#5d6c82;stop-opacity:1;"
         offset="0"
         id="stop3352" />
      <stop
         style="stop-color:#5d6c82;stop-opacity:0;"
         offset="1"
         id="stop3354" />
    </linearGradient>
    <linearGradient
       inkscape:collect="always"
       xlink:href="#linearGradient3350"
       id="linearGradient3356"
       x1="87.596298"
       y1="39.517525"
       x2="87.239159"
       y2="154.51753"
       gradientUnits="userSpaceOnUse" />
    <linearGradient
       inkscape:collect="always"
       xlink:href="#linearGradient4146"
       id="linearGradient4152"
       x1="91.167732"
       y1="22.374666"
       x2="91.167732"
       y2="28.088951"
       gradientUnits="userSpaceOnUse" />
  </defs>
  <sodipodi:namedview
     id="base"
     pagecolor="#ffffff"
     bordercolor="#666666"
     borderopacity="1.0"
     inkscape:pageopacity="0.0"
     inkscape:pageshadow="2"
     inkscape:zoom="2.8"
     inkscape:cx="-11.375333"
     inkscape:cy="55.033126"
     inkscape:document-units="px"
     inkscape:current-layer="layer1"
     showgrid="false"
     fit-margin-top="0"
     fit-margin-left="0"
     fit-margin-right="0"
     fit-margin-bottom="0"
     inkscape:window-width="1440"
     inkscape:window-height="851"
     inkscape:window-x="0"
     inkscape:window-y="1"
     inkscape:window-maximized="1" />
  <metadata
     id="metadata7">
    <rdf:RDF>
      <cc:Work
         rdf:about="">
        <dc:format>image/svg+xml</dc:format>
        <dc:type
           rdf:resource="http://purl.org/dc/dcmitype/StillImage" />
        <dc:title />
      </cc:Work>
    </rdf:RDF>
  </metadata>
  <g
     inkscape:label="Layer 1"
     inkscape:groupmode="layer"
     id="layer1"
     transform="translate(-25.096296,-19.731824)">
    <g
       id="g4164">
      <path
         style="fill:#ffffff;fill-opacity:1;stroke:#8ca3c3;stroke-width:8.00000095;stroke-opacity:1"
         d="m 32.985098,23.731817 a 59.464287,59.464287 0 0 0 -3.738282,20.53711 59.464287,59.464287 0 0 0 59.464844,59.462893 59.464287,59.464287 0 0 0 59.46484,-59.462893 59.464287,59.464287 0 0 0 -3.70507,-20.53711 l -111.486332,0 z"
         id="path4393"
         inkscape:connector-curvature="0" />
      <path
         inkscape:connector-curvature="0"
         id="path3429"
         d="m 32.985098,23.731817 a 59.464287,59.464287 0 0 0 -3.738282,20.53711 59.464287,59.464287 0 0 0 59.464844,59.462893 59.464287,59.464287 0 0 0 59.46484,-59.462893 59.464287,59.464287 0 0 0 -3.70507,-20.53711 l -111.486332,0 z"
         style="fill:url(#linearGradient3356);fill-opacity:1;stroke:#ffffff;stroke-width:3" />
      <g
         transform="translate(-0.49332446,2.5)"
         id="text4353"
         style="font-style:normal;font-variant:normal;font-weight:normal;font-stretch:normal;font-size:26.45502663px;line-height:125%;font-family:'Luxi Serif';-inkscape-font-specification:'Luxi Serif, Normal';text-align:start;letter-spacing:0px;word-spacing:0px;writing-mode:lr-tb;text-anchor:start;fill:#ffffff;fill-opacity:1;stroke:none;stroke-width:1px;stroke-linecap:butt;stroke-linejoin:miter;stroke-opacity:1">
        <g
           id="text5324"
           style="font-style:normal;font-variant:normal;font-weight:normal;font-stretch:normal;font-size:33.08672333px;line-height:125%;font-family:Georgia;-inkscape-font-specification:'Georgia, Normal';text-align:start;letter-spacing:0px;word-spacing:0px;writing-mode:lr-tb;text-anchor:start;fill:#ffffff;fill-opacity:1;stroke:none;stroke-width:1px;stroke-linecap:butt;stroke-linejoin:miter;stroke-opacity:1"
           transform="scale(1.0297801,0.97108108)">
          <path
             id="path5344"
             style=""
             d="m 61.947552,49.486448 -0.759314,7.156943 -18.417415,0 0,-0.565447 14.426975,-21.083093 -5.28289,0 q -0.920871,0 -1.55094,0.03231 -0.613914,0.03231 -1.130894,0.129245 -1.066271,0.210023 -2.407188,1.760964 -1.324762,1.55094 -2.003298,3.279592 l -1.130894,0 0.694692,-6.478407 17.173431,0 0,0.565447 -14.426974,21.083093 5.444446,0 q 1.373228,0 2.924168,-0.193867 1.55094,-0.193868 2.019453,-0.662381 1.050116,-1.001649 1.954831,-2.455655 0.904715,-1.454007 1.340917,-2.568745 l 1.130894,0 z" />
          <path
             id="path5346"
             style=""
             d="m 83.159891,49.890339 -0.436202,6.753052 -19.031329,0 0,-1.14705 q 0.484669,-0.03231 1.292451,-0.129245 0.807781,-0.113089 1.050115,-0.226179 0.51698,-0.242334 0.710848,-0.630069 0.210023,-0.387735 0.210023,-0.985493 l 0,-16.478739 q 0,-0.533136 -0.177712,-0.937027 -0.177712,-0.420046 -0.743159,-0.678536 -0.436202,-0.210023 -1.17936,-0.37158 -0.727004,-0.161556 -1.163206,-0.193867 l 0,-1.14705 17.738879,0 0,5.525225 -1.211672,0 q -0.323113,-1.227828 -1.40554,-2.601056 -1.066271,-1.389384 -2.035609,-1.518629 -0.500824,-0.06462 -1.195516,-0.09693 -0.694692,-0.03231 -1.583252,-0.03231 l -3.602704,0 0,9.111773 2.5849,0 q 1.243983,0 1.80943,-0.226178 0.581603,-0.242335 1.017804,-0.791626 0.355424,-0.468513 0.597759,-1.243983 0.25849,-0.791626 0.339268,-1.486318 l 1.211672,0 0,8.966373 -1.211672,0 Q 76.681484,48.549422 76.390683,47.693174 76.116037,46.82077 75.80908,46.433035 75.308256,45.802965 74.662031,45.609098 74.031962,45.41523 72.981846,45.41523 l -2.5849,0 0,6.882297 q 0,1.03396 0.1454,1.631718 0.145401,0.597759 0.565447,0.904715 0.420046,0.306957 1.14705,0.403891 0.727003,0.08078 2.06792,0.08078 0.533135,0 1.405539,0 0.872404,0 1.470162,-0.06462 0.613914,-0.06462 1.260139,-0.226179 0.662381,-0.177712 0.937027,-0.468513 0.743158,-0.77547 1.55094,-2.342566 0.823937,-1.583251 1.050115,-2.32641 l 1.163206,0 z" />
          <path
             id="path5348"
             style=""
             d="m 107.86185,56.643391 -6.17145,0 q -2.051768,-3.21497 -3.715797,-5.557536 -1.647874,-2.342566 -3.586549,-4.830532 l -2.342566,0 0,7.270032 q 0,0.565447 0.177712,1.001649 0.177712,0.420046 0.759314,0.646225 0.290802,0.113089 1.017805,0.210023 0.727003,0.09693 1.227827,0.113089 l 0,1.14705 -9.693376,0 0,-1.14705 q 0.387735,-0.03231 1.114739,-0.113089 0.743158,-0.08078 1.03396,-0.210023 0.484669,-0.210024 0.694692,-0.613914 0.226178,-0.403891 0.226178,-1.03396 l 0,-16.575673 q 0,-0.565447 -0.161556,-1.001649 -0.161556,-0.436202 -0.759314,-0.662381 -0.403891,-0.1454 -1.050116,-0.25849 -0.646225,-0.129245 -1.098583,-0.161556 l 0,-1.14705 10.581936,0 q 1.454006,0 2.730301,0.306957 1.276293,0.290802 2.310253,0.953182 1.00165,0.646225 1.59941,1.696341 0.59776,1.03396 0.59776,2.504122 0,1.324762 -0.40389,2.342566 -0.40389,1.017805 -1.19552,1.760963 -0.727,0.694692 -1.74481,1.211672 -1.017803,0.500825 -2.24563,0.856249 1.696341,2.245632 2.81108,3.780416 1.13089,1.534785 2.76261,3.73195 0.71085,0.969338 1.2763,1.437851 0.5816,0.452357 1.14704,0.743159 0.42005,0.210023 1.05012,0.323112 0.63007,0.11309 1.05012,0.129245 l 0,1.14705 z M 99.363987,39.550738 q 0,-2.084076 -1.195517,-3.295748 -1.195516,-1.227828 -3.376526,-1.227828 l -2.746456,0 0,9.838777 2.116387,0 q 2.229477,0 3.715794,-1.421695 1.486318,-1.437851 1.486318,-3.893506 z" />
          <path
             id="path5350"
             style=""
             d="m 127.2486,36.432702 q 1.51863,1.583251 2.37487,3.828883 0.85625,2.229477 0.85625,4.943622 0,2.730301 -0.8724,4.959777 -0.87241,2.229477 -2.42335,3.796573 -1.50247,1.55094 -3.48961,2.391032 -1.98714,0.840093 -4.23278,0.840093 -2.39103,0 -4.42664,-0.88856 -2.01945,-0.904715 -3.47346,-2.504122 -1.454,-1.567095 -2.2941,-3.796572 -0.82393,-2.245632 -0.82393,-4.798221 0,-2.794923 0.8724,-4.975933 0.8724,-2.197165 2.40719,-3.796572 1.51863,-1.583252 3.52193,-2.423344 2.01945,-0.840093 4.21661,-0.840093 2.27795,0 4.2974,0.856248 2.01945,0.856249 3.48962,2.407189 z m -2.40719,16.25256 q 0.90471,-1.470162 1.3086,-3.328059 0.42005,-1.857897 0.42005,-4.151996 0,-2.358721 -0.46851,-4.329708 -0.45236,-1.970986 -1.34092,-3.36037 -0.88856,-1.373229 -2.22948,-2.132543 -1.34091,-0.77547 -3.06957,-0.77547 -1.93867,0 -3.29574,0.888559 -1.35708,0.88856 -2.21332,2.374878 -0.80779,1.421695 -1.21168,3.328059 -0.38773,1.906364 -0.38773,4.006595 0,2.32641 0.42005,4.200463 0.42004,1.874053 1.32476,3.328059 0.8724,1.421695 2.19716,2.229476 1.32476,0.791626 3.1665,0.791626 1.72866,0 3.11804,-0.807781 1.38938,-0.807781 2.26179,-2.261788 z" />
        </g>
      </g>
      <path
         id="rect3339"
         d="m 25.198315,20.353613 127.026685,0 0,5.050763 -127.026685,0 z"
         style="fill:url(#linearGradient4152);fill-opacity:1" />
      <g
         id="text5328"
         style="font-style:normal;font-variant:normal;font-weight:200;font-stretch:normal;font-size:24.15940475px;line-height:125%;font-family:'.HeitiUI K';-inkscape-font-specification:'.HeitiUI K, Ultra-Light';text-align:start;letter-spacing:0px;word-spacing:0px;writing-mode:lr-tb;text-anchor:start;fill:#ffffff;fill-opacity:1;stroke:none;stroke-width:1px;stroke-linecap:butt;stroke-linejoin:miter;stroke-opacity:1"
         transform="scale(0.95206205,1.0503517)">
        <path
           id="path5333"
           style=""
           d="m 61.494511,63.494663 1.159651,0 0,11.78979 q 0,2.367621 -0.38655,3.551432 -0.338232,1.111333 -1.280448,1.763637 l 0.02416,0 q -0.990536,0.628144 -2.295143,0.628144 -0.990536,0 -2.05355,-0.434869 -1.063014,-0.434869 -2.077709,-1.20797 0.193276,-0.265754 0.314073,-0.459029 0.144956,-0.217435 0.338231,-0.483188 1.087173,0.748941 1.884434,1.111332 0.79726,0.362392 1.522042,0.362392 0.43487,0 0.797261,-0.120798 0.38655,-0.120797 0.79726,-0.410709 0.338232,-0.265754 0.603985,-0.579826 0.265754,-0.338232 0.386551,-0.748942 0.144956,-0.38655 0.193275,-1.159651 0.07248,-0.79726 0.07248,-1.908593 l 0,-11.693152 z" />
        <path
           id="path5335"
           style=""
           d="m 67.32712,63.494663 1.159651,0 0,10.509341 q 0,1.715318 0.07248,2.536738 0.04832,0.459028 0.217434,0.893898 0.169116,0.434869 0.41071,0.845579 0.579826,0.82142 1.570361,1.328767 0.990536,0.507348 2.126028,0.507348 1.135492,0 2.005231,-0.459029 0.869738,-0.459029 1.497883,-1.159652 0.241594,-0.362391 0.434869,-0.748941 0.193275,-0.41071 0.314072,-0.82142 0.217435,-0.869738 0.217435,-2.923288 l 0,-10.509341 1.135492,0 0,10.509341 q 0,2.657535 -0.507348,4.034621 -0.265753,0.676463 -0.748941,1.256289 -0.459029,0.555666 -1.087173,1.038854 l 0.02416,0 q -1.377086,0.893898 -3.068244,0.893898 -1.377086,0 -2.512578,-0.459029 -1.135492,-0.459028 -1.908593,-1.256289 -0.338232,-0.338231 -0.628145,-0.845579 -0.265753,-0.531507 -0.434869,-0.990535 -0.144957,-0.531507 -0.217435,-1.449565 -0.07248,-0.942216 -0.07248,-2.222665 l 0,-10.509341 z" />
        <path
           id="path5337"
           style=""
           d="m 83.085093,80.792797 0,-17.298134 3.406476,0 q 3.64807,0 5.435866,0.555666 1.836115,0.603985 2.995766,1.691159 1.23213,1.159651 1.884434,2.850809 0.676463,1.666999 0.676463,3.986302 0,1.135492 -0.289913,2.198506 -0.265753,1.038854 -0.748941,2.053549 -0.555667,1.014695 -1.256289,1.763637 -0.676464,0.724782 -1.570362,1.20797 -1.763636,0.990536 -5.145953,0.990536 l -5.387547,0 z m 1.063014,-1.159652 2.41594,0 q 1.64284,0 2.82665,-0.07248 1.183811,-0.07248 1.908593,-0.241594 0.748942,-0.169116 1.425405,-0.483188 0.676464,-0.338232 1.23213,-0.82142 2.343462,-2.077709 2.343462,-5.67746 0,-1.860274 -0.676463,-3.382316 -0.676463,-1.546202 -1.956912,-2.560897 -0.628144,-0.507348 -1.401245,-0.84558 -0.748942,-0.338231 -1.594521,-0.507347 -1.691158,-0.338232 -4.928519,-0.338232 l -1.59452,0 0,14.930512 z" />
        <path
           id="path5339"
           style=""
           d="m 116.59758,67.118574 q -1.44956,-1.352927 -3.18904,-2.077709 -1.71532,-0.748942 -3.55143,-0.748942 -1.0147,0 -2.05355,0.241594 -1.03885,0.241594 -2.05355,0.797261 -1.98107,1.087173 -3.0924,2.85081 -1.08718,1.763636 -1.08718,3.865504 0,3.26152 2.41594,5.653301 2.4401,2.415941 6.13649,2.415941 2.77833,0 4.80772,-1.546202 2.02939,-1.618681 2.48842,-4.590287 l -5.74994,0 0,-1.183811 7.05455,0 q -0.14496,3.937983 -2.4401,6.160648 -2.34346,2.270984 -6.20897,2.270984 -4.39701,0 -7.10286,-2.705853 -2.63338,-2.657535 -2.63338,-6.378083 0,-3.744708 2.63338,-6.402242 1.32877,-1.377086 3.06824,-2.02939 1.76364,-0.652304 3.88967,-0.652304 4.22789,0 7.65853,3.140722 l -0.99054,0.918058 z" />
        <path
           id="path5341"
           style=""
           d="m 122.15651,63.494663 9.61545,0 0,1.23213 -8.4558,0 0,6.112329 8.35916,0 0,1.183811 -8.35916,0 0,7.537734 8.35916,0 0,1.23213 -9.51881,0 0,-17.298134 z" />
      </g>
    </g>
  </g>
</svg>
