<?xml version="1.0" encoding="UTF-8" standalone="no"?>
<svg
   xmlns:dc="http://purl.org/dc/elements/1.1/"
   xmlns:cc="http://creativecommons.org/ns#"
   xmlns:rdf="http://www.w3.org/1999/02/22-rdf-syntax-ns#"
   xmlns:svg="http://www.w3.org/2000/svg"
   xmlns="http://www.w3.org/2000/svg"
   viewBox="0 0 60 60"
   height="60"
   width="60"
   version="1.1"
   id="svg2">
  <metadata
     id="metadata8">
    <rdf:RDF>
      <cc:Work
         rdf:about="">
        <dc:format>image/svg+xml</dc:format>
        <dc:type
           rdf:resource="http://purl.org/dc/dcmitype/StillImage" />
        <dc:title></dc:title>
      </cc:Work>
    </rdf:RDF>
  </metadata>
  <defs
     id="defs6" />
  <path
     style="fill:#ebcb9a"
     d="M 3.3187345,56.464074 C 1.5451854,54.504325 1.25,50.758742 1.25,30.214074 1.25,7.9166666 1.4238714,6.0761286 3.75,3.75 6.0776902,1.4223098 7.9166666,1.25 30.431265,1.25 c 21.838927,0 24.381656,0.2214281 26.25,2.2859259 C 58.457491,5.4986336 58.75,9.2712263 58.75,30.217191 58.75,52.26351 58.529889,54.811729 56.464074,56.681265 54.501366,58.457491 50.728774,58.75 29.782809,58.75 7.7364897,58.75 5.188271,58.529889 3.3187345,56.464074 Z M 46.25,43.125 C 46.25,41.554487 43.611111,41.25 30,41.25 16.388889,41.25 13.75,41.554487 13.75,43.125 13.75,44.695513 16.388889,45 30,45 43.611111,45 46.25,44.695513 46.25,43.125 Z m 0,-9.375 C 46.25,32.980769 40,32.5 30,32.5 20,32.5 13.75,32.980769 13.75,33.75 13.75,34.519231 20,35 30,35 40,35 46.25,34.519231 46.25,33.75 Z M 45.549491,25.122175 C 46.361431,23.80843 32.279354,11.25 29.994279,11.25 c -2.231208,0 -16.234087,11.58671 -16.239614,13.4375 -0.0056,1.867361 30.650356,2.286466 31.794826,0.434675 z M 21.25,21.815042 c 0,-1.394171 6.938996,-6.736039 8.75,-6.736039 1.811004,0 8.75,5.341868 8.75,6.736039 C 38.75,22.191769 34.8125,22.5 30,22.5 c -4.8125,0 -8.75,-0.308231 -8.75,-0.684958 z"
     id="path3352" />
  <path
     style="fill:#d0b38a"
     d="M 4.5687345,56.464074 C 2.7928523,54.501746 2.5,50.732684 2.5,29.839074 2.5,12.57535 2.9360489,5.0639511 4,4 5.0648596,2.9351404 12.623615,2.5 30.056265,2.5 c 22.202221,0 24.754581,0.2191364 26.625,2.2859259 C 58.449294,6.7395755 58.75,10.432686 58.75,30.193034 58.75,60.866161 60.895236,58.75 29.80067,58.75 8.948027,58.75 6.4311101,58.521976 4.5687345,56.464074 Z M 46.257166,43.125 c 0,-0.754447 -6.691377,-1.387873 -16.878582,-1.597775 C 14.78775,41.226589 12.5,41.443154 12.5,43.125 c 0,1.681846 2.28775,1.898411 16.878584,1.597775 C 39.565789,44.512872 46.257166,43.879447 46.257166,43.125 Z M 46.875,33.75 c 0,-1.551774 -2.783808,-1.935581 -16.148578,-2.226422 -15.588884,-0.339243 -19.494176,0.413882 -17.646725,3.403121 0.581854,0.94146 6.21175,1.281431 17.328585,1.046416 C 44.057314,35.684567 46.875,35.304161 46.875,33.75 Z M 46.25,24.653074 C 46.25,22.799514 32.088736,10 30.037975,10 27.844856,10 12.5,22.773665 12.5,24.599304 12.5,25.885382 16.227467,26.25 29.375,26.25 42.23569,26.25 46.25,25.870115 46.25,24.653074 Z M 22.569161,21.5625 c 0.03804,-0.515625 1.725539,-2.245908 3.75,-3.845073 L 30,14.809854 l 3.680839,2.907573 c 2.024461,1.599165 3.711961,3.329448 3.75,3.845073 C 37.468877,22.078125 34.125,22.5 30,22.5 c -4.125,0 -7.468877,-0.421875 -7.430839,-0.9375 z M 12.971416,7.7951287 C 12.218531,6.601558 10.257589,5.625 8.6137669,5.625 c -3.7379427,0 -4.6906149,4.3695805 -1.6217563,7.438439 2.0000705,2.000071 2.2786519,1.971454 4.7366704,-0.486564 2.063568,-2.063568 2.324357,-3.0670204 1.242735,-4.7817463 z"
     id="path3350" />
  <path
     style="fill:#e2b16b"
     d="M 4,56 C 2.9345233,54.934524 2.5,47.343106 2.5,29.79398 2.5,6.6471814 2.6525913,5.006295 4.9178231,3.7939798 8.4784823,1.8883727 54.072258,2.0722578 56,4 58.118346,6.1183467 58.118346,53.881654 56,56 53.881654,58.118346 6.1183467,58.118346 4,56 Z M 46.257166,43.125 c 0,-0.754447 -6.691377,-1.387873 -16.878582,-1.597775 C 14.78775,41.226589 12.5,41.443154 12.5,43.125 c 0,1.681846 2.28775,1.898411 16.878584,1.597775 C 39.565789,44.512872 46.257166,43.879447 46.257166,43.125 Z M 46.875,33.75 c 0,-1.551774 -2.783808,-1.935581 -16.148578,-2.226422 -15.588884,-0.339243 -19.494176,0.413882 -17.646725,3.403121 0.581854,0.94146 6.21175,1.281431 17.328585,1.046416 C 44.057314,35.684567 46.875,35.304161 46.875,33.75 Z M 46.25,24.653074 C 46.25,22.799514 32.088736,10 30.037975,10 27.844856,10 12.5,22.773665 12.5,24.599304 12.5,25.885382 16.227467,26.25 29.375,26.25 42.23569,26.25 46.25,25.870115 46.25,24.653074 Z M 22.569161,21.5625 c 0.03804,-0.515625 1.725539,-2.245908 3.75,-3.845073 L 30,14.809854 l 3.680839,2.907573 c 2.024461,1.599165 3.711961,3.329448 3.75,3.845073 C 37.468877,22.078125 34.125,22.5 30,22.5 c -4.125,0 -7.468877,-0.421875 -7.430839,-0.9375 z M 13.75,8.5800806 C 13.75,6.1706092 8.6792874,4.1236179 6.3210444,5.5810922 4.2128924,6.8840017 4.7932971,12.260098 7.1867161,13.599523 9.8328579,15.080377 13.75,12.084642 13.75,8.5800806 Z"
     id="path3348" />
  <path
     style="fill:#dda450"
     d="M 4,56 C 2.9377991,54.937799 2.5,47.515274 2.5,30.568735 2.5,8.9720031 2.7229959,6.4356605 4.7859259,4.5687345 6.7439115,2.7967817 10.473886,2.5 30.785926,2.5 47.563539,2.5 54.938756,2.938756 56,4 58.118346,6.1183467 58.118346,53.881654 56,56 53.881654,58.118346 6.1183467,58.118346 4,56 Z M 47.5,43.318088 c 0,-1.284008 -3.885112,-1.867749 -16.422069,-2.467427 -9.032137,-0.432033 -16.907137,-0.485726 -17.5,-0.119312 C 12.985069,41.097754 12.5,42.208095 12.5,43.198771 12.5,44.681304 15.596325,45 30,45 43.829315,45 47.5,44.647213 47.5,43.318088 Z M 46.875,33.75 c 0,-1.558896 -2.897622,-1.933631 -17.1875,-2.222775 C 13.063353,31.19085 12.5,31.263706 12.5,33.75 c 0,2.486294 0.563353,2.55915 17.1875,2.222775 C 43.977378,35.683631 46.875,35.308896 46.875,33.75 Z m -7.311403,-7.5 C 45.784844,26.25 47.5,25.844789 47.5,24.375 47.5,23.34375 47.078125,22.494215 46.5625,22.487145 45.543177,22.473169 32.5,10.334668 32.5,9.4000229 32.5,9.0856644 33.34375,9.1522393 34.375,9.547967 35.40625,9.9436947 36.25,9.704972 36.25,9.017472 36.25,7.0405575 32.908837,6.2299659 19.490262,4.9514317 3.8630074,3.4624525 3.216901,3.885291 4.4510481,14.79371 c 0.4768615,4.214897 1.6044265,8.657465 2.5056999,9.87237 1.5543686,2.09527 1.7370793,2.080295 3.551211,-0.29108 1.88067,-2.458351 1.913195,-2.450089 1.952287,0.49592 0.03939,2.968304 0.12791,2.988467 9.603351,2.1875 5.259978,-0.444631 13.134978,-0.80842 17.5,-0.80842 z M 23.75,21.278816 c 0,-0.671651 1.36853,-2.117878 3.041177,-3.21384 3.246864,-2.127426 6.223231,-1.338626 9.402184,2.491779 C 37.619568,22.275227 36.993186,22.5 30.778056,22.5 26.912625,22.5 23.75,21.950467 23.75,21.278816 Z M 15,19.218937 c 0,-0.686835 1.546875,-2.375028 3.4375,-3.751541 4.050972,-2.949402 7.774955,-5.115483 5.9375,-3.453589 -0.6875,0.621812 -3.078125,2.778322 -5.3125,4.792244 C 16.828125,18.819974 15,19.905772 15,19.218937 Z"
     id="path3346" />
  <path
     style="fill:#d5942e"
     d="M 4.4642857,55.535714 C 2.8122079,53.883636 2.528312,50.05909 2.6781277,31.473214 2.8423276,11.102863 2.9312699,10.292487 3.8156406,21.109045 4.8510431,33.772841 7.8920204,42.750776 10.771757,41.645718 11.910211,41.208851 12.5,41.893369 12.5,43.651539 c 0,2.612802 0.36196,2.661686 17.1875,2.321236 C 45.925741,45.644207 46.875,45.486926 46.875,43.125 c 0,-2.306643 -1.06347,-2.553399 -13.75,-3.190409 -7.5625,-0.379724 -11.5,-0.875647 -8.75,-1.102051 l 5,-0.411642 L 25,37.5 C 21.992115,36.866867 24.823995,36.527684 34.0625,36.414551 46.611816,36.260876 47.5,36.084756 47.5,33.75 47.5,31.41421 46.617369,31.240286 34.0625,31.102106 25.683896,31.009891 22.036785,30.616757 24.375,30.057861 l 3.75,-0.896352 -3.75,-0.643464 c -2.0625,-0.353906 1.03125,-0.735426 6.875,-0.847824 17.540141,-0.337362 19.670776,-1.90776 11.875,-8.752541 -2.40625,-2.112716 -4.375,-4.095043 -4.375,-4.405171 0,-0.310129 1.648632,-0.925971 3.663628,-1.368539 5.082634,-1.116333 7.314451,-3.9516054 4.962173,-6.3038826 C 46.09255,5.5568361 40.154287,4.7483667 26.23318,3.9616086 L 6.875,2.8675717 30.223214,2.6837859 c 19.726721,-0.1552793 23.652891,0.12089 25.3125,1.7804998 C 57.18638,6.1149515 57.5,10.299032 57.5,30.670306 57.5,53.358079 57.345011,54.994989 55.082176,56.20602 53.665517,56.964194 43.091779,57.5 29.546462,57.5 10.196865,57.5 6.1083864,57.179815 4.4642857,55.535714 Z M 27.110649,20.377905 c 1.504606,-0.292403 2.910856,-1.299505 3.125,-2.238005 0.299562,-1.312856 1.069882,-1.150998 3.340331,0.701867 L 36.52696,21.25 30.45098,21.079772 c -3.341789,-0.09362 -4.844939,-0.409466 -3.340331,-0.701867 z"
     id="path3344" />
  <path
     style="fill:#d08f11"
     d="M 4.5687345,55.214074 C 2.8849911,53.353559 2.5309105,50.387592 2.6660961,39.276574 L 2.8321923,25.625 3.9403129,36.245807 c 0.9199077,8.816877 1.6400315,11.152298 4.2397941,13.75 2.88439,2.882105 3.953498,3.111988 13.53949,2.911307 6.78254,-0.141993 12.105469,-0.976712 15.28161,-2.396398 L 41.875,48.332206 37.5,47.455655 C 33.667997,46.687895 34.017066,46.55868 40.3125,46.414551 47.101952,46.259112 47.5,46.076936 47.5,43.125 c 0,-2.819939 -0.518605,-3.139438 -5.3125,-3.272894 -4.912667,-0.136762 -5.030265,-0.215355 -1.5625,-1.044245 l 3.75,-0.896352 -3.75,-0.643464 C 37.439945,36.72152 37.675339,36.596365 42.1875,36.43729 46.604236,36.28158 47.5,35.828464 47.5,33.75 47.5,31.628954 46.599985,31.219676 41.5625,31.049954 36.158174,30.867871 36.017865,30.791159 40,30.195674 l 4.375,-0.654234 -5,-0.843339 c -4.95914,-0.836446 -4.945769,-0.844787 1.636271,-1.02072 3.649949,-0.09756 6.35064,0.284781 6.001534,0.849645 -0.349105,0.564865 0.453409,1.958726 1.783365,3.09747 2.297024,1.966774 2.520381,1.872659 4.460746,-1.879594 C 55.620402,25.174424 55.178297,8.4322292 52.626485,5.870963 51.806742,5.0481834 46.239809,4.0501315 40.255521,3.65307 L 29.375,2.9311399 41.368765,2.71557 C 58.172062,2.4135559 57.5,1.2634269 57.5,30.32164 57.5,49.791145 57.180619,53.89081 55.535714,55.535714 53.889507,57.181921 49.7714,57.5 30.104449,57.5 8.9575099,57.5 6.4329454,57.274004 4.5687345,55.214074 Z M 47.598684,24.270834 c 0.05998,-1.456179 0.356176,-1.752375 0.755208,-0.755209 0.361089,0.902344 0.31668,1.980469 -0.09869,2.395834 -0.415365,0.415364 -0.710801,-0.322918 -0.656525,-1.640625 z"
     id="path3342" />
  <path
     style="fill:#a16408"
     d="m 5.347681,55.9375 c -3.0073538,-3.888506 -2.8755075,-4.553526 0.548667,-2.767422 2.6309229,1.372331 8.533798,1.816397 24.222417,1.822221 18.79139,0.007 20.945875,-0.215626 22.891151,-2.365133 1.899202,-2.098595 2.102179,-5.048215 1.756235,-25.521313 C 54.455034,8.6937744 54.694702,4.2232374 55.9375,5.2567429 57.086049,6.2118712 57.5,12.783974 57.5,30.06377 57.5,49.767703 57.182163,53.889266 55.535714,55.535714 53.889266,57.182163 49.767703,57.5 30.06377,57.5 12.735474,57.5 6.2384566,57.089273 5.347681,55.9375 Z"
     id="path3340" />
</svg>
