<?xml version="1.0" encoding="UTF-8" standalone="no"?>
<svg
   xmlns:dc="http://purl.org/dc/elements/1.1/"
   xmlns:cc="http://creativecommons.org/ns#"
   xmlns:rdf="http://www.w3.org/1999/02/22-rdf-syntax-ns#"
   xmlns:svg="http://www.w3.org/2000/svg"
   xmlns="http://www.w3.org/2000/svg"
   viewBox="0 0 128 128"
   height="128"
   width="128"
   version="1.1"
   id="svg2">
  <metadata
     id="metadata8">
    <rdf:RDF>
      <cc:Work
         rdf:about="">
        <dc:format>image/svg+xml</dc:format>
        <dc:type
           rdf:resource="http://purl.org/dc/dcmitype/StillImage" />
        <dc:title></dc:title>
      </cc:Work>
    </rdf:RDF>
  </metadata>
  <defs
     id="defs6" />
  <path
     style="fill:#cccccc"
     d="m 9.6067987,125.8394 -5.3508309,-0.40854 0.6314144,-3.36573 C 7.9916891,105.51775 14.185567,99.42944 32.388123,95.033106 42.43594,92.606326 46.517643,88.973202 47.202388,81.846929 47.790737,75.723858 46.562158,71.68733 41.919236,64.489003 c -4.385244,-6.798827 -5.934864,-12.150285 -4.614842,-15.9369 0.727767,-2.087677 0.58997,-3.523641 -0.542575,-5.654057 -0.834953,-1.57062 -1.666241,-4.205673 -1.847306,-5.855673 -0.181066,-1.65 -0.414186,-3.1125 -0.518047,-3.25 -0.10386,-0.1375 -0.267207,-0.5875 -0.362993,-1 -0.09579,-0.4125 -0.528707,-1.790373 -0.962046,-3.061939 -1.213941,-3.562121 3.45703,-11.99734 10.21063,-18.439182 5.802258,-5.5344175 10.479335,-7.7313795 16.48459,-7.7433022 1.616928,-0.00321 2.546736,-0.4299564 2.190983,-1.0055769 -0.853574,-1.3811113 -0.02894,-1.2599373 4.282119,0.6292252 2.044834,0.8960738 5.709553,1.7422392 8.143819,1.8803676 2.434267,0.1381283 4.915053,0.867477 5.512859,1.6207748 0.597807,0.7532978 2.431134,2.1120515 4.074062,3.0194515 8.529314,4.710802 11.2874,15.379046 7.504872,29.028757 -1.109752,4.004674 -2.017731,9.445697 -2.017731,12.091163 0,4.33388 -2.891315,12.281844 -4.994802,13.730261 -2.456704,1.691634 -4.364664,8.072266 -4.432073,14.82181 -0.07136,7.144786 0.01259,7.400484 3.472189,10.575877 2.727079,2.503051 5.611995,3.767765 12.5,5.47986 10.037096,2.494838 18.361356,7.27627 21.417926,12.3024 2.22967,3.6664 5.58778,16.60202 4.57351,17.61739 -0.74175,0.74256 -103.237938,1.19826 -112.3875813,0.49969 z"
     id="path3352" />
  <path
     style="fill:#969696"
     d="m 8.6592416,124.8078 c -3.4609944,-0.31012 -4.2060979,-0.71442 -3.8246569,-2.07529 0.2605521,-0.92958 0.7872436,-3.26514 1.1704253,-5.19014 1.7768065,-8.92619 8.456235,-16.36106 17.859304,-19.879199 3.117588,-1.166439 6.246298,-2.120798 6.95269,-2.120798 3.642249,0 10.896817,-3.527756 13.61058,-6.618561 2.592046,-2.952177 3.030046,-4.250379 3.030046,-8.980854 0,-5.237471 -3.268047,-15.400585 -4.952207,-15.400585 -0.388255,0 -1.743441,-2.215155 -3.011525,-4.922567 -1.784845,-3.810719 -2.195658,-6.066826 -1.818823,-9.988629 0.3219,-3.350075 0.02787,-5.72126 -0.868066,-7.000383 C 36.061841,41.566918 35.187065,38.299301 34.863063,35.369423 34.53906,32.439546 33.885249,29.570311 33.410148,28.993347 31.966243,27.239864 37.013642,17.892104 42.585438,12.000751 48.448101,5.8018492 55.339423,2.9834889 62.154013,3.9977441 64.966627,4.4163618 65.436545,4.3188296 63.95763,3.623401 61.977653,2.6923586 61.978242,2.6822398 64.0165,2.6126582 c 1.132379,-0.038657 2.932379,0.5904032 4,1.3979113 1.067622,0.8075082 4.19113,1.5141365 6.94113,1.5702853 3.733072,0.076221 4.493229,0.3198556 3,0.9615181 -1.906116,0.8190862 -1.91024,0.8627288 -0.08786,0.9297147 4.247659,0.1561327 10.352382,4.9567424 12.961546,10.1926534 2.20837,4.43162 2.48611,6.005497 1.987835,11.264501 -0.31856,3.362222 -1.233855,8.464281 -2.033988,11.337909 -0.800133,2.873627 -1.544323,7.823627 -1.653755,11 -0.166543,4.834087 -0.815992,6.700388 -3.985309,11.452452 -4.476414,6.711924 -5.688469,10.457916 -5.688469,17.580853 0,4.554166 0.442139,5.75295 3.25,8.811808 2.647618,2.884291 4.901723,4.005159 12.161452,6.047358 18.540928,5.215658 23.433758,10.017778 26.992368,26.491988 0.54897,2.54136 0.40413,2.62592 -5.56679,3.25 -6.36672,0.66546 -100.073363,0.58378 -107.6354184,-0.0938 z"
     id="path3350" />
  <path
     style="fill:#6e6e6e"
     d="m 10.806849,124.80455 -6.1507822,-0.35246 1.4007405,-6.00444 c 1.8724387,-8.02643 3.5477874,-11.01927 8.5793277,-15.32608 3.94843,-3.3797 12.97122,-6.990458 22.630598,-9.056341 1.820007,-0.389251 4.857507,-2.256133 6.75,-4.148626 3.190494,-3.190493 3.439299,-3.8933 3.418935,-9.657563 -0.02052,-5.809503 -2.648975,-14.235099 -4.894324,-15.688935 -0.448275,-0.290253 -1.790515,-2.451745 -2.982756,-4.803317 -1.679293,-3.312232 -2.113331,-5.748439 -1.926361,-10.812449 0.132743,-3.595274 -0.189738,-6.846261 -0.716623,-7.224414 -1.108189,-0.795363 -1.48474,-2.201734 -2.023634,-7.558018 -0.214173,-2.128756 -0.80034,-4.378756 -1.302593,-5 -1.532626,-1.895727 3.344328,-11.200848 8.652767,-16.509286 6.586968,-6.5869682 10.430757,-8.4421099 17.504831,-8.4484185 3.386952,-0.00302 5.254308,-0.3446153 4.5,-0.8231835 -2.236882,-1.4191825 0.59288,-0.8451013 3.210655,0.6513539 1.375,0.786021 4.525,1.4767035 7,1.5348498 3.242371,0.076175 3.945711,0.3222146 2.516665,0.8803707 -1.646269,0.6429991 -1.345225,0.89436 1.771381,1.4790389 4.678422,0.8776777 10.475886,5.8600577 12.763087,10.9686867 2.00249,4.472705 1.690694,13.218999 -0.73569,20.637054 -0.809552,2.475 -1.578791,7.448821 -1.709419,11.052936 -0.206123,5.687024 -0.730815,7.296134 -3.970701,12.177229 -4.35543,6.561732 -5.635323,10.437053 -5.635323,17.062893 0,5.548711 1.858015,9.728665 5.338002,12.00884 1.342124,0.879393 6.170862,2.551413 10.730528,3.715599 9.58564,2.44743 12.54928,3.83002 17.46906,8.14964 4.3673,3.83455 6.05481,6.98611 7.84136,14.6444 l 1.37888,5.9107 -8.12892,0.63289 c -8.19039,0.63767 -91.843503,0.56238 -103.279691,-0.093 z M 70.7553,14.20904 c 0.281407,-0.733334 -0.120448,-1.333334 -0.893011,-1.333334 -0.772562,0 -1.404659,0.6 -1.404659,1.333334 0,0.733333 0.401855,1.333333 0.893011,1.333333 0.491156,0 1.123253,-0.6 1.404659,-1.333333 z m -4.29767,-2.666667 c -0.825,-0.533156 -1.95,-0.969374 -2.5,-0.969374 -0.55,0 -0.325,0.436218 0.5,0.969374 0.825,0.533156 1.95,0.969374 2.5,0.969374 0.55,0 0.325,-0.436218 -0.5,-0.969374 z"
     id="path3348" />
  <path
     style="fill:#4c4c4c"
     d="m 5.4576297,122.64771 c 0,-1.04207 0.8868914,-4.76609 1.9708699,-8.2756 C 10.527475,104.33879 16.7736,99.55778 31.817437,95.703905 44.67012,92.411354 47.792565,89.192291 47.653408,79.377925 47.567159,73.295087 45.748179,67.862636 42.518511,64.042373 39.061901,59.953668 37.145717,53.834681 37.808246,49.001001 c 0.418089,-3.050291 0.169495,-5.497311 -0.739287,-7.277126 -0.753054,-1.474826 -1.625302,-4.824163 -1.93833,-7.442971 -0.313028,-2.618808 -0.847761,-5.212285 -1.188296,-5.763282 -1.171037,-1.894778 4.384082,-11.922333 9.196394,-16.600427 5.9494,-5.78347 9.607957,-7.3704611 17.036784,-7.3901349 4.102141,-0.010864 5.346298,-0.2969617 4.282119,-0.9846872 -0.825,-0.5331559 -1.037628,-0.9762652 -0.472506,-0.9846872 0.565121,-0.00842 2.118268,0.7486954 3.451437,1.6824832 1.424111,0.9974859 4.093902,1.6443858 6.472506,1.5683111 2.22671,-0.071217 3.192991,0.1108804 2.147292,0.4046602 -1.380008,0.3877011 -0.488331,1.0124724 3.252333,2.2788118 9.427117,3.191395 13.539636,9.392581 13.248445,19.977068 -0.09779,3.554519 -0.54774,6.937645 -0.999891,7.518057 -1.093339,1.403486 -2.195853,7.776532 -2.518014,14.555296 -0.169205,3.560356 -1.111342,7.019748 -2.671494,9.809356 -6.793507,12.147026 -6.910108,12.473129 -6.910108,19.325808 0,5.685243 0.379144,7.161972 2.479752,9.658403 2.77772,3.301133 5.145853,4.40547 14.460268,6.74329 13.62584,3.41994 20.073,8.52785 23.08911,18.29288 3.52226,11.40374 10.31765,10.17026 -56.02913,10.17026 -56.2584845,0 -58.0000003,-0.0569 -58.0000003,-1.89466 z M 65.25989,56.292373 c -0.222559,-3.865662 -0.697785,-5.25 -1.80226,-5.25 -1.104475,0 -1.579701,1.384338 -1.80226,5.25 -0.274393,4.765995 -0.108241,5.25 1.80226,5.25 1.910501,0 2.076653,-0.484005 1.80226,-5.25 z m 3.94774,-39.380286 c 1.2375,-0.331637 2.25,-1.177348 2.25,-1.879357 0,-1.742746 2.297756,-2.483785 7.831787,-2.525792 4.551857,-0.03455 4.6059,-0.07106 2.168213,-1.464565 C 80.08263,10.256352 77.735856,9.597298 76.242577,9.577808 74.749298,9.558319 71.377711,8.812492 68.75016,7.9204156 62.482383,5.7924498 56.455914,5.9924385 51.558481,8.490922 c -6.740935,3.438969 -6.007763,4.041417 5.090132,4.182568 9.331636,0.118687 9.760205,0.201357 4.520374,0.871977 -7.731428,0.989506 -8.396841,1.996906 -1.319007,1.996906 3.562479,0 5.492186,0.377807 5.10765,1 -0.695812,1.125847 0.907916,1.265358 4.25,0.369714 z"
     id="path3346" />
  <path
     style="fill:#2a2a2a"
     d="M 5.9589721,120.29237 C 8.1206847,106.72456 15.263679,99.87546 31.290134,96.003413 40.199884,93.850789 44.363263,91.228545 46.81604,86.224645 49.182519,81.396803 48.403652,73.736893 44.966634,68.036309 38.098521,56.644965 37.205497,54.319056 37.793557,49.35381 c 0.354325,-2.991723 0.06257,-6.022616 -0.775297,-8.054143 -0.738876,-1.791512 -1.60795,-5.19766 -1.931276,-7.569219 -0.323325,-2.371559 -0.852451,-4.740036 -1.175835,-5.263283 -1.198906,-1.93987 4.543715,-12.03491 9.608567,-16.891044 C 49.594518,5.7516561 53.713222,4.1500528 61.0517,4.7586164 65.76408,5.1494037 66.270778,5.0174713 65.189635,3.6811948 64.171731,2.4230819 64.218304,2.3057646 65.45763,3.0061146 c 0.825,0.4662122 2.107342,1.3199089 2.849648,1.8971038 0.742307,0.5771949 3.217307,0.9878698 5.5,0.912611 2.282694,-0.075259 3.29478,0.103531 2.249081,0.3973108 -1.380008,0.3877011 -0.488331,1.0124724 3.252333,2.2788118 9.434335,3.193838 13.539681,9.39093 13.247872,19.997894 -0.0981,3.565973 -0.512954,6.724099 -0.921888,7.018057 -1.069866,0.769062 -3.177046,11.920883 -3.177046,16.813872 0,3.99937 -3.358555,12.220598 -4.992387,12.220598 -1.628271,0 -4.168669,8.651848 -4.283897,14.589689 -0.195398,10.069119 2.956435,13.249126 16.79193,16.942029 9.824914,2.622419 16.403274,6.184359 19.908214,10.779569 2.19488,2.87763 5.57614,12.82155 5.57614,16.39881 0,1.0384 -11.32592,1.2899 -58.087898,1.2899 l -58.087898,0 0.6771381,-4.25 z M 70.846318,108.62752 c 4.646615,-1.83553 2.166243,-2.46224 -2.905491,-0.73412 -4.194314,1.42914 -4.988017,1.43079 -8.519776,0.0177 -5.010987,-2.005 -7.594648,-1.16176 -2.963421,0.96719 3.763432,1.73002 9.633361,1.62774 14.388688,-0.25073 z M 67.45763,68.542373 c -0.825,-0.533156 -2.4,-0.969374 -3.5,-0.969374 -1.1,0 -2.675,0.436218 -3.5,0.969374 -1.077885,0.696583 -0.09295,0.969374 3.5,0.969374 3.592949,0 4.577885,-0.272791 3.5,-0.969374 z m -2,-13.522919 c 0,-6.53937 -0.226221,-7.477081 -1.803833,-7.477081 -0.992108,0 -3.22251,1.463703 -4.956448,3.252673 -2.964709,3.058803 -3.091831,3.490927 -2.132811,7.25 0.957159,3.751778 1.261625,4.011276 4.956448,4.224408 l 3.936644,0.227082 0,-7.477082 z m 2,-13.477081 c 0,-1.207586 0.0026,-1.207052 -7.474109,-1.537153 -5.333275,-0.235467 -5.768664,-0.113535 -4.05887,1.136696 2.181078,1.594844 11.532979,1.919567 11.532979,0.400457 z m 4.606069,-21.338294 c 2.511886,3.070394 3.277672,2.090799 0.862128,-1.102836 -0.807509,-1.067621 -1.468197,-2.305121 -1.468197,-2.75 0,-0.444878 3.4875,-0.822061 7.75,-0.838183 l 7.75,-0.02931 -3.186551,-2.899899 c -2.184149,-1.987669 -4.700733,-3.10459 -8,-3.550593 C 73.123682,8.675372 68.85048,7.7174329 66.275074,6.9045006 63.341821,5.9786133 60.166401,5.6766347 57.775074,6.0961608 52.885431,6.9539825 46.212696,10.768093 43.437146,14.291666 l -2.166757,2.750707 5.843621,0.791323 c 3.213991,0.435227 7.53112,0.542409 9.59362,0.238182 2.070899,-0.305466 3.75,-0.131345 3.75,0.388872 0,0.579519 1.202134,0.597244 3.123997,0.04606 3.002465,-0.861095 3.058441,-0.823511 1.438869,0.966095 -1.292073,1.427726 -1.381677,1.963197 -0.384154,2.295704 0.715536,0.238512 2.156959,-0.65455 3.203163,-1.984583 l 1.902189,-2.418242 2.322005,2.838294 z"
     id="path3344" />
  <path
     style="fill:#161616"
     d="M 5.8467337,121.34685 C 8.9426462,105.86729 13.980401,100.70565 30.165577,96.429977 40.365261,93.735503 44.323661,91.309338 46.81604,86.224645 49.192676,81.37608 48.398055,73.703737 44.932282,68.036309 39.002976,58.340373 37.191775,53.498647 37.809124,48.994595 38.178771,46.29773 37.887584,43.406415 37.03923,41.349855 36.28882,39.53074 35.41031,36.102007 35.086984,33.730448 34.763659,31.358889 34.241433,29.001576 33.926482,28.491974 32.781923,26.640039 37.501186,18.348235 42.952563,12.633035 49.23319,6.0484536 54.354127,3.9324583 61.939697,4.7874619 c 2.46488,0.2778278 4.238218,0.1113396 3.94075,-0.3699738 -0.809226,-1.3093552 0.99736,-1.0549379 2.388692,0.336394 0.66633,0.66633 3.11883,1.1256011 5.45,1.0206023 3.244656,-0.1461434 3.769534,0.02226 2.238491,0.7182055 -2,0.9091125 -2,0.9091125 0,1.0013597 4.66534,0.2151825 10.495096,3.9711334 13.487456,8.6895964 2.647213,4.17422 3.012544,5.643229 3.012544,12.113525 0,4.04978 -0.392489,7.120664 -0.872198,6.824188 -0.907293,-0.560738 -1.781624,4.010388 -3.045255,15.921014 -0.691475,6.517648 -3.262313,13.5 -4.970577,13.5 -1.477576,0 -4.00569,6.94777 -4.605904,12.65796 -1.114488,10.602783 3.000131,15.187832 16.979534,18.920827 15.2275,4.06628 21.06828,8.96376 23.93036,20.06555 0.87122,3.37939 1.58404,6.64189 1.58404,7.25 0,0.79486 -16.33875,1.10566 -58.125,1.10566 l -58.1250003,0 0.639104,-3.19552 z M 83.95763,109.6775 c 1.65,-0.52977 2.4375,-1.0019 1.75,-1.04918 -2.147276,-0.14765 -1.366049,-1.84001 1.139699,-2.46891 1.314334,-0.32988 2.628965,-1.22329 2.921401,-1.98537 0.428008,-1.11537 -0.184305,-1.21922 -3.139699,-0.53249 -5.178772,1.20337 -7.170678,1.1308 -4.921401,-0.17928 2.341301,-1.36368 2.204675,-3.3859 -0.473497,-7.008323 l -2.223498,-3.007441 -2.526502,5.297934 c -2.439757,5.11603 -2.646673,5.28218 -6.026503,4.83913 -4.468216,-0.58571 -9.556241,-0.58632 -14,-0.002 -3.381562,0.4449 -3.585785,0.28058 -6.035058,-4.85577 -2.408446,-5.050727 -2.617234,-5.225442 -4.180397,-3.498166 -0.904936,0.999943 -2.110466,3.041456 -2.678956,4.536696 -0.845756,2.22451 -0.722094,2.90021 0.680397,3.71776 2.116528,1.23378 0.857885,1.27788 -4.035986,0.14141 -4.573103,-1.06197 -5.124465,0.57348 -0.75,2.22465 3.382916,1.27691 3.838849,2.35347 1.25,2.95152 -0.9625,0.22235 0.95,0.73978 4.25,1.14985 3.3,0.41006 6.45,0.93313 7,1.16237 1.826128,0.76115 28.948233,-0.45487 32,-1.43471 z M 73.353612,65.819573 c 2.652498,-5.45964 4.065295,-15.2772 2.198466,-15.2772 -1.812476,0 -6.090211,4.680416 -6.127717,6.704545 -0.0286,1.543286 -0.309495,1.463886 -2,-0.565329 -1.365565,-1.639169 -1.966731,-3.855259 -1.966731,-7.25 0,-4.181027 -0.282497,-4.889216 -1.95031,-4.889216 -1.07267,0 -2.31017,0.5625 -2.75,1.25 -0.439829,0.6875 -2.93719,2.325033 -5.54969,3.638962 -4.161669,2.093066 -4.744563,2.774292 -4.706107,5.5 0.05115,3.625166 2.012789,9.522408 4.3582,13.101957 1.505926,2.298333 2.255294,2.509081 8.921694,2.509081 l 7.277682,0 2.294513,-4.7228 z m -3.266251,-24.231561 4.510512,-1.995214 -2.698939,-3.538492 c -3.881702,-5.089174 -6.096731,-5.281516 -12.351269,-1.072522 -2.910057,1.958324 -6.258293,3.564703 -7.440524,3.569732 -3.181564,0.01353 6.511582,4.501519 10.354868,4.794368 1.713161,0.130538 5.14457,-0.660504 7.625352,-1.757872 z M 70.279847,22.46223 c 0.590559,1.694079 1.311015,3.080143 1.601013,3.080143 0.289997,0 0.07582,-1.18741 -0.475959,-2.638688 -1.485545,-3.907278 -0.569469,-3.865838 2.464171,0.11147 3.885659,5.094362 5.125315,4.347194 1.446572,-0.87188 -1.705423,-2.419504 -2.835778,-4.827864 -2.511898,-5.351912 0.323879,-0.524048 3.587965,-1.00392 7.253525,-1.066383 3.66556,-0.06246 6.859744,-0.308658 7.098186,-0.547101 C 88.305822,14.027514 80.116671,9.317557 76.245066,8.902812 73.886976,8.650202 69.633413,7.7105876 66.792703,6.814779 62.319222,5.4040813 60.853918,5.3592182 55.847245,6.4796623 50.904353,7.585833 49.225596,8.614407 44.262172,13.577831 c -3.192498,3.192498 -5.804542,6.515542 -5.804542,7.384542 0,2.99359 15.677487,1.789222 25.5,-1.958949 1.172679,-0.447483 0.345359,0.789274 -2,2.989789 -2.909817,2.730113 -3.260088,3.316376 -1.285183,2.151064 3.741641,-2.207792 4.432485,-2.005707 2.215568,0.648096 -1.033774,1.2375 -0.03511,0.526436 2.219249,-1.580143 l 4.09884,-3.830144 1.073743,3.080144 z m 11.52286,-3.462985 c -0.325685,-0.848721 -0.806623,-1.32866 -1.068751,-1.066531 -0.262128,0.262128 -0.179978,0.956536 0.182555,1.543128 0.98605,1.595461 1.56238,1.28551 0.886196,-0.476597 z"
     id="path3342" />
  <path
     style="fill:#030303"
     d="m 5.4576297,123.14771 c 0,-0.76707 0.9072005,-4.33184 2.0160011,-7.92172 1.6689804,-5.40353 2.8937062,-7.31619 7.1149852,-11.11148 5.027598,-4.52024 6.747576,-5.24516 22.397399,-9.439874 2.315432,-0.620619 5.504587,-2.603883 7.5,-4.664083 3.212837,-3.317153 3.469365,-4.045885 3.441428,-9.776256 -0.02917,-5.983384 -2.974769,-15.679742 -4.765818,-15.688176 -1.181575,-0.0056 -5.682921,-10.139506 -5.694226,-12.819489 -0.0054,-1.273658 0.415194,-3.109792 0.934593,-4.080298 0.652882,-1.219922 0.465545,-2.665727 -0.606954,-4.684258 -0.853223,-1.605837 -1.655883,-4.083185 -1.783688,-5.505219 -0.127805,-1.422034 -0.556233,-3.109534 -0.952063,-3.75 -0.39583,-0.640466 -0.479271,-1.164484 -0.185425,-1.164484 0.293847,0 0.09219,-1.162762 -0.448137,-2.583916 -0.540322,-1.421154 -0.654338,-3.108654 -0.253369,-3.75 0.400968,-0.641346 0.804018,-1.658053 0.895666,-2.259348 0.372605,-2.444636 5.494856,-9.34446 9.559882,-12.877444 5.630617,-4.8936658 9.66745,-6.5572916 15.547607,-6.4073501 L 64.95763,4.786257 59.209528,5.6281157 c -6.211589,0.9097402 -8.441758,1.8541129 -13.586163,5.7531073 -2.913543,2.208202 -9.130105,11.313494 -9.156351,13.41115 -0.01513,1.209473 9.919008,0.859989 12.306357,-0.432939 1.201343,-0.650616 5.00641,-1.945853 8.455706,-2.878305 6.902975,-1.866088 7.081323,-0.864984 0.563536,3.16323 -4.549105,2.811502 -3.45714,3.757655 1.179479,1.021982 4.772475,-2.815829 5.328373,-2.678398 2.409852,0.595771 -1.333373,1.495856 -1.625939,2.106731 -0.650148,1.357499 0.975791,-0.749232 2.032026,-1.104379 2.347188,-0.789217 0.315163,0.315162 -2.283212,2.671799 -5.774166,5.23697 -7.969004,5.855668 -8.275579,6.193235 -3.347188,3.685558 3.74195,-1.903989 11.790011,-9.210549 10.145276,-9.210549 -0.410882,0 0.468268,-1.593376 1.953668,-3.540835 l 2.700727,-3.540835 1.769217,3.790835 c 2.043235,4.377964 2.336261,4.190303 0.958457,-0.613819 l -0.972655,-3.391451 3.560876,4.160083 c 5.084242,5.939794 8.810394,7.730695 4.187218,2.012504 -1.94612,-2.407065 -4.063719,-5.388982 -4.705775,-6.626482 -1.086284,-2.093703 -0.958152,-2.25 1.844554,-2.25 2.427765,0 3.792242,0.987168 7.035183,5.089798 2.21279,2.799388 4.023254,4.794805 4.023254,4.434258 0,-1.339006 -2.324528,-5.112031 -4.872186,-7.908219 l -2.627814,-2.884163 4.25,0.645981 c 5.054853,0.768314 5.371987,-0.255778 1.173275,-3.788761 -1.692199,-1.423892 -2.677626,-2.588894 -2.189838,-2.588894 1.622754,0 7.542514,6.453372 8.914336,9.717881 1.434365,3.413344 1.885037,15.282119 0.580281,15.282119 -1.010016,0 -3.223448,11.750188 -3.244504,17.22372 -0.01055,2.742621 -0.888492,5.710853 -2.447953,8.27628 -6.309469,10.379543 -6.834066,11.83411 -6.935974,19.231588 -0.0964,6.997933 0.01443,7.345696 3.430268,10.763224 2.877434,2.878857 5.280326,3.998897 13,6.059584 9.540679,2.546781 15.306159,5.547121 19.634979,10.217991 2.13948,2.30854 6.33513,13.45672 6.33513,16.83295 0,1.17685 -9.05803,1.39466 -58,1.39466 -48.941966,0 -58.0000003,-0.21781 -58.0000003,-1.39466 z M 84.75714,116.64309 c 4.268963,-2.1446 8.938057,-4.19451 10.375765,-4.55536 1.944512,-0.48804 2.324344,-0.94574 1.483023,-1.78706 -0.841321,-0.84132 -0.727858,-1.57645 0.443009,-2.87024 2.805853,-3.10044 1.253634,-5.20293 -7.031491,-9.524231 -4.361601,-2.274896 -8.511719,-4.931469 -9.222483,-5.903497 -1.174418,-1.606113 -1.349535,-1.618167 -1.919777,-0.13214 -0.508108,1.32411 -1.024888,1.422496 -2.7165,0.517173 -3.511978,-1.879554 -18.627783,-2.257499 -23.406203,-0.585233 -3.724162,1.303315 -4.26053,1.297759 -4.777518,-0.04949 -0.500692,-1.304784 -0.763616,-1.269765 -1.874668,0.24969 -0.710764,0.972028 -4.830934,3.628601 -9.155932,5.903497 -9.306865,4.895291 -10.732087,6.613641 -7.99446,9.638681 1.508468,1.66684 1.639393,2.2919 0.612941,2.92628 -0.914534,0.56522 -0.453611,1.01787 1.539763,1.51213 1.564762,0.388 6.384629,2.47251 10.710816,4.63226 l 7.865796,3.92682 13.653084,0 13.653084,0 7.761751,-3.89928 z M 67.89253,81.567124 c 1.512745,-0.575145 2.5651,-1.755687 2.5651,-2.877555 0,-1.046269 0.675,-2.462507 1.5,-3.147196 0.825,-0.684689 1.5,-1.779298 1.5,-2.432463 0,-0.653166 1.575,-4.384608 3.5,-8.292095 2.320925,-4.711159 3.5,-8.522935 3.5,-11.314981 l 0,-4.210461 -3.25,0.795393 c -4.665475,1.141812 -9.618587,0.98602 -10.948989,-0.344382 -2.734492,-2.734492 3.080806,-8.478308 10.244228,-10.118303 l 2.545239,-0.582708 -2.278789,-4 -2.278788,-4 -0.06322,3.5 -0.06323,3.5 -1.919818,-4.916593 c -2.916522,-7.469118 -3.280746,-7.54112 -9.308655,-1.840175 -3.211251,3.037068 -7.03962,5.584443 -9.500939,6.321872 l -4.122443,1.235114 4.972702,2.303886 c 2.734986,1.267138 4.972702,2.717075 4.972702,3.222083 0,0.505008 -1.732315,1.195205 -3.849588,1.53377 -2.117273,0.338566 -5.042273,1.553741 -6.5,2.700389 -3.714958,2.922186 -3.478824,7.429013 0.849588,16.215096 1.925,3.907487 3.5,7.638929 3.5,8.292095 0,0.653165 0.675,1.747774 1.5,2.432463 0.825,0.684689 1.5,2.10429 1.5,3.154669 0,3.210794 6.348031,4.804106 11.4349,2.870082 z M 57.45763,71.542373 c 1.828136,-1.181432 9.75066,-1.181432 12.5,0 1.346881,0.578775 -0.612474,0.877381 -6,0.914402 -5.512768,0.03788 -7.533644,-0.24641 -6.5,-0.914402 z m 26.395051,-45.25 c -2.036391,-3.520814 -4.669897,-6.808488 -5.10513,-6.373255 -0.270543,0.270543 0.731959,2.096452 2.227781,4.057576 2.649384,3.473521 4.328742,4.825062 2.877349,2.315679 z M 68.090351,7.1131472 C 65.875593,6.1346488 65.583836,5.7079208 66.808326,5.23804 c 0.87189,-0.3345756 1.832911,-0.2076023 2.135602,0.2821628 0.302692,0.4897652 2.229603,0.6868724 4.282025,0.4380161 2.751061,-0.3335662 3.206114,-0.2176167 1.731677,0.4412389 -1.88516,0.842388 -1.856449,0.9217501 0.5,1.3821279 1.940553,0.3791243 1.716774,0.5007223 -1,0.5433863 -1.925,0.03023 -4.790276,-0.5150915 -6.367279,-1.2118248 z"
     id="path3340" />
</svg>
