<?xml version="1.0" encoding="UTF-8" standalone="no"?>
<svg
   xmlns:dc="http://purl.org/dc/elements/1.1/"
   xmlns:cc="http://creativecommons.org/ns#"
   xmlns:rdf="http://www.w3.org/1999/02/22-rdf-syntax-ns#"
   xmlns:svg="http://www.w3.org/2000/svg"
   xmlns="http://www.w3.org/2000/svg"
   viewBox="0 0 16.875 15"
   height="15"
   width="16.875"
   version="1.1"
   id="svg2">
  <metadata
     id="metadata8">
    <rdf:RDF>
      <cc:Work
         rdf:about="">
        <dc:format>image/svg+xml</dc:format>
        <dc:type
           rdf:resource="http://purl.org/dc/dcmitype/StillImage" />
        <dc:title></dc:title>
      </cc:Work>
    </rdf:RDF>
  </metadata>
  <defs
     id="defs6" />
  <g
     id="g3338"
     transform="matrix(0.94350282,0,0,0.94041314,4.5254237e-7,0.12711864)">
    <path
       id="path3340"
       d="M 0,0.5 0,0 0.5,0 1,0 1,0.5 1,1 0.5,1 0,1 0,0.5"
       style="fill:#d7d7d7;fill-opacity:0.86666667" />
    <path
       id="path3342"
       d="M 1,0.5 1,0 1.5,0 2,0 2.5,0 3,0 3.5,0 4,0 4.5,0 5,0 5.5,0 6,0 6.5,0 7,0 7.5,0 8,0 8.5,0 9,0 9.5,0 10,0 10.5,0 11,0 11.5,0 12,0 12.5,0 13,0 13.5,0 14,0 14.5,0 15,0 15.5,0 16,0 16.5,0 17,0 17,0.5 17,1 16.5,1 Q 16,1 15.5,1 15,1 14.5,1 14,1 13.5,1 13,1 12.5,1 12,1 11.5,1 11,1 10.5,1 10,1 9.5,1 L 9,1 8.5,1 8,1 7.5,1 7,1 6.5,1 6,1 5.5,1 Q 5,1 4.5,1 L 4,1 3.5,1 3,1 2.5,1 2,1 1.5,1 1,1 1,0.5"
       style="fill:#eaeaea;fill-opacity:0.9254902" />
    <path
       id="path3344"
       d="M 17,0.5 17,0 17.5,0 18,0 18,0.5 18,1 17.5,1 17,1 17,0.5"
       style="fill:#949494;fill-opacity:0.59607843" />
    <path
       id="path3346"
       d="M 0,1.5 0,1 0.5,1 1,1 1,1.5 1,2 1,2.5 1,3 0.5,3 0,3 0,2.5 0,2 0,1.5"
       style="fill:#f1f1f1;fill-opacity:1" />
    <path
       id="path3348"
       d="M 1,1.5 1,1 1.5,1 2,1 1.875,1.375 Q 1.75,1.75 1.375,1.875 L 1,2 1,1.5"
       style="fill:#fdfeff;fill-opacity:1" />
    <path
       id="path3350"
       d="M 1.875,1.375 2,1 2.5,1 3,1 3,1.5 3,2 2.625,2.125 2.25,2.25 2.53125,2.15625 2.8125,2.0625 2.625,2.125 Q 2.4375,2.1875 2.3125,2.3125 L 2.1875,2.4375 2.25,2.375 2.3125,2.3125 2,2 1.6875,1.6875 1.625,1.75 1.5625,1.8125 1.6875,1.6875 Q 1.8125,1.5625 1.875,1.375 L 1.9375,1.1875 1.84375,1.46875 1.75,1.75 1.875,1.375"
       style="fill:#f9fdff;fill-opacity:1" />
    <path
       id="path3352"
       d="M 3,1.5 3,1 3.5,1 4,1 3.875,1.375 Q 3.75,1.75 3.375,1.875 L 3,2 3,1.5"
       style="fill:#fafdff;fill-opacity:1" />
    <path
       id="path3354"
       d="M 3.875,1.375 4,1 4.5,1 Q 5,1 5.5,1 L 6,1 6.125,1.375 6.25,1.75 6.15625,1.46875 6.0625,1.1875 6.125,1.375 Q 6.1875,1.5625 6.3125,1.6875 L 6.4375,1.8125 6.375,1.75 6.3125,1.6875 6.015625,1.984375 5.71875,2.28125 5.796875,2.328125 5.875,2.375 5.71875,2.28125 Q 5.5625,2.1875 5.375,2.125 L 5.1875,2.0625 5.46875,2.15625 5.75,2.25 5.375,2.125 5,2 4.625,2.125 4.25,2.25 4.53125,2.15625 4.8125,2.0625 4.625,2.125 Q 4.4375,2.1875 4.28125,2.28125 L 4.125,2.375 4.203125,2.328125 4.28125,2.28125 3.984375,1.984375 3.6875,1.6875 3.625,1.75 3.5625,1.8125 3.6875,1.6875 Q 3.8125,1.5625 3.875,1.375 L 3.9375,1.1875 3.84375,1.46875 3.75,1.75 3.875,1.375"
       style="fill:#fbfeff;fill-opacity:1" />
    <path
       id="path3356"
       d="M 6.125,1.375 6,1 6.5,1 7,1 7,1.5 7,2 6.625,1.875 Q 6.25,1.75 6.125,1.375"
       style="fill:#fafeff;fill-opacity:1" />
    <path
       id="path3358"
       d="M 7,1.5 7,1 7.5,1 8,1 8,1.5 8,2 7.5,2 7,2 7,1.5"
       style="fill:#f9fdff;fill-opacity:1" />
    <path
       id="path3360"
       d="M 8,1.5 8,1 8.5,1 9,1 9,1.5 9,2 8.5,2 8,2 8,1.5"
       style="fill:#fafdff;fill-opacity:1" />
    <path
       id="path3362"
       d="M 9,1.5 9,1 9.5,1 q 0.5,0 1,0 0.5,0 1,0 0.5,0 1,0 0.5,0 1,0 0.5,0 1,0 0.5,0 1,0 0.5,0 1,0 l 0.5,0 0,0.5 q 0,0.5 0,1 0,0.5 0,1 L 17,4 16.5,4 16,4 16,3.5 Q 16,3 15.5,3 L 15,3 15,2.5 Q 15,2 14.5,2 L 14,2 13.5,2 13,2 12.5,2 Q 12,2 12,2.5 L 12,3 11.5,3 11,3 10.5,3 Q 10,3 10,3.5 L 10,4 9.5,4 9,4 9,3.5 9,3 9,2.5 9,2 9,1.5"
       style="fill:#ffffff;fill-opacity:1" />
    <path
       id="path3364"
       d="M 17,1.5 17,1 17.5,1 18,1 18,1.5 18,2 18,2.5 18,3 18,3.5 18,4 17.5,4 17,4 17,3.5 q 0,-0.5 0,-1 0,-0.5 0,-1"
       style="fill:#a8a8a8;fill-opacity:0.70980392" />
    <path
       id="path3366"
       d="M 1,2.5 1,2 1.375,1.875 1.75,1.75 1.46875,1.84375 1.1875,1.9375 1.375,1.875 Q 1.5625,1.8125 1.6875,1.6875 L 1.8125,1.5625 1.75,1.625 1.6875,1.6875 2,2 2.3125,2.3125 2.375,2.25 2.4375,2.1875 2.3125,2.3125 Q 2.1875,2.4375 2.125,2.625 L 2.0625,2.8125 2.15625,2.53125 2.25,2.25 2.125,2.625 2,3 1.5,3 1,3 1,2.5"
       style="fill:#f8fcff;fill-opacity:1" />
    <path
       id="path3368"
       d="M 2.125,2.625 Q 2.25,2.25 2.625,2.125 L 3,2 2.875,2.375 Q 2.75,2.75 2.375,2.875 L 2,3 2.125,2.625"
       style="fill:#eaf7ff;fill-opacity:1" />
    <path
       id="path3370"
       d="M 2.875,2.375 3,2 3.375,1.875 3.75,1.75 3.46875,1.84375 3.1875,1.9375 3.375,1.875 Q 3.5625,1.8125 3.6875,1.6875 L 3.8125,1.5625 3.75,1.625 3.6875,1.6875 3.984375,1.984375 4.28125,2.28125 4.359375,2.234375 4.4375,2.1875 4.28125,2.28125 Q 4.125,2.375 4,2.5 L 3.875,2.625 4.0625,2.4375 4.25,2.25 4,2.5 Q 3.75,2.75 3.5,3 L 3.25,3.25 3.4375,3.0625 3.625,2.875 3.5,3 Q 3.375,3.125 3.28125,3.28125 L 3.1875,3.4375 3.234375,3.359375 3.28125,3.28125 2.984375,2.984375 2.6875,2.6875 2.625,2.75 2.5625,2.8125 2.6875,2.6875 Q 2.8125,2.5625 2.875,2.375 L 2.9375,2.1875 2.84375,2.46875 2.75,2.75 2.875,2.375"
       style="fill:#eaf6fc;fill-opacity:1" />
    <path
       id="path3372"
       d="M 4,2.5 Q 4.25,2.25 4.625,2.125 L 5,2 5,2.5 5,3 4.625,3.125 4.25,3.25 4.53125,3.15625 4.8125,3.0625 4.625,3.125 Q 4.4375,3.1875 4.3125,3.3125 L 4.1875,3.4375 4.25,3.375 4.3125,3.3125 4.03125,3.03125 3.75,2.75 4,2.5 M 3.9375,2.5625 3.75,2.75 3.6875,2.8125 3.625,2.875 3.75,2.75 Q 3.875,2.625 4,2.5 L 4.125,2.375 3.9375,2.5625"
       style="fill:#919799;fill-opacity:1" />
    <path
       id="path3374"
       d="M 5,2.5 5,2 5.375,2.125 Q 5.75,2.25 6,2.5 L 6.25,2.75 5.96875,3.03125 5.6875,3.3125 5.75,3.375 5.8125,3.4375 5.6875,3.3125 Q 5.5625,3.1875 5.375,3.125 L 5.1875,3.0625 5.46875,3.15625 5.75,3.25 5.375,3.125 5,3 5,2.5 M 6.3125,2.8125 6.25,2.75 6.0625,2.5625 5.875,2.375 6,2.5 Q 6.125,2.625 6.25,2.75 L 6.375,2.875 6.3125,2.8125"
       style="fill:#b2b9bd;fill-opacity:1" />
    <path
       id="path3376"
       d="M 6,2.5 5.75,2.25 5.9375,2.4375 6.125,2.625 6,2.5 Q 5.875,2.375 5.71875,2.28125 L 5.5625,2.1875 5.640625,2.234375 5.71875,2.28125 6.015625,1.984375 6.3125,1.6875 6.25,1.625 6.1875,1.5625 6.3125,1.6875 Q 6.4375,1.8125 6.625,1.875 L 6.8125,1.9375 6.53125,1.84375 6.25,1.75 6.625,1.875 7,2 7.125,2.375 7.25,2.75 7.15625,2.46875 7.0625,2.1875 7.125,2.375 Q 7.1875,2.5625 7.3125,2.6875 L 7.4375,2.8125 7.375,2.75 7.3125,2.6875 7.015625,2.984375 6.71875,3.28125 6.765625,3.359375 6.8125,3.4375 6.71875,3.28125 Q 6.625,3.125 6.5,3 L 6.375,2.875 6.5625,3.0625 6.75,3.25 6.5,3 Q 6.25,2.75 6,2.5"
       style="fill:#ecf7fe;fill-opacity:1" />
    <path
       id="path3378"
       d="M 7.125,2.375 7,2 7.5,2 8,2 8,2.5 8,3 7.625,2.875 Q 7.25,2.75 7.125,2.375"
       style="fill:#ebf7ff;fill-opacity:1" />
    <path
       id="path3380"
       d="M 8,2.5 8,2 8.5,2 9,2 9,2.5 9,3 8.5,3 8,3 8,2.5"
       style="fill:#f0f9ff;fill-opacity:1" />
    <path
       id="path3382"
       d="M 12,2.5 Q 12,2 12.5,2 L 13,2 13,2.5 13,3 12.5,3 12,3 12,2.5"
       style="fill:#f6f6f6;fill-opacity:1" />
    <path
       id="path3384"
       d="M 13,2.5 13,2 13.5,2 14,2 14,2.5 14,3 13.5,3 13,3 13,2.5"
       style="fill:#ededed;fill-opacity:1" />
    <path
       id="path3386"
       d="M 14,2.5 14,2 14.5,2 Q 15,2 15,2.5 L 15,3 14.5,3 14,3 14,2.5"
       style="fill:#f7f7f7;fill-opacity:1" />
    <path
       id="path3388"
       d="M 0,3.5 0,3 0.5,3 1,3 1,3.5 1,4 0.5,4 0,4 0,3.5"
       style="fill:#f0f0f0;fill-opacity:1" />
    <path
       id="path3390"
       d="M 1,3.5 1,3 1.5,3 2,3 2,3.5 2,4 1.5,4 1,4 1,3.5"
       style="fill:#f6fafd;fill-opacity:1" />
    <path
       id="path3392"
       d="M 2,3.5 2,3 2.375,2.875 2.75,2.75 2.46875,2.84375 2.1875,2.9375 2.375,2.875 Q 2.5625,2.8125 2.6875,2.6875 L 2.8125,2.5625 2.75,2.625 2.6875,2.6875 2.984375,2.984375 3.28125,3.28125 3.328125,3.203125 3.375,3.125 3.28125,3.28125 Q 3.1875,3.4375 3.125,3.625 L 3.0625,3.8125 3.15625,3.53125 3.25,3.25 3.125,3.625 3,4 2.5,4 2,4 2,3.5"
       style="fill:#e7f3fc;fill-opacity:1" />
    <path
       id="path3394"
       d="M 3.125,3.625 Q 3.25,3.25 3.5,3 L 3.75,2.75 4.03125,3.03125 4.3125,3.3125 4.375,3.25 4.4375,3.1875 4.3125,3.3125 Q 4.1875,3.4375 4.125,3.625 L 4.0625,3.8125 4.15625,3.53125 4.25,3.25 4.125,3.625 4,4 3.5,4 3,4 3.125,3.625 M 3.8125,2.6875 3.75,2.75 3.5625,2.9375 3.375,3.125 3.5,3 Q 3.625,2.875 3.75,2.75 L 3.875,2.625 3.8125,2.6875"
       style="fill:#b3bcc3;fill-opacity:1" />
    <path
       id="path3396"
       d="M 4.125,3.625 Q 4.25,3.25 4.625,3.125 L 5,3 5,3.5 5,4 4.5,4 4,4 4.125,3.625"
       style="fill:#333333;fill-opacity:1" />
    <path
       id="path3398"
       d="M 5,3.5 5,3 5.375,3.125 q 0.375,0.125 0.5,0.5 L 6,4 5.5,4 5,4 5,3.5"
       style="fill:#404040;fill-opacity:1" />
    <path
       id="path3400"
       d="M 5.875,3.625 5.75,3.25 5.84375,3.53125 5.9375,3.8125 5.875,3.625 Q 5.8125,3.4375 5.6875,3.3125 L 5.5625,3.1875 5.625,3.25 5.6875,3.3125 5.96875,3.03125 6.25,2.75 6.5,3 Q 6.75,3.25 6.875,3.625 L 7,4 6.5,4 6,4 5.875,3.625 M 6.4375,2.9375 6.25,2.75 6.1875,2.6875 6.125,2.625 6.25,2.75 Q 6.375,2.875 6.5,3 L 6.625,3.125 6.4375,2.9375"
       style="fill:#9fa7ad;fill-opacity:1" />
    <path
       id="path3402"
       d="M 6.875,3.625 6.75,3.25 6.84375,3.53125 6.9375,3.8125 6.875,3.625 Q 6.8125,3.4375 6.71875,3.28125 L 6.625,3.125 6.671875,3.203125 6.71875,3.28125 7.015625,2.984375 7.3125,2.6875 7.25,2.625 7.1875,2.5625 7.3125,2.6875 Q 7.4375,2.8125 7.625,2.875 L 7.8125,2.9375 7.53125,2.84375 7.25,2.75 7.625,2.875 8,3 8,3.5 8,4 7.5,4 7,4 6.875,3.625"
       style="fill:#e8f4fd;fill-opacity:1" />
    <path
       id="path3404"
       d="M 8,3.5 8,3 8.5,3 9,3 9,3.5 9,4 8.5,4 8,4 8,3.5"
       style="fill:#eef7fd;fill-opacity:1" />
    <path
       id="path3406"
       d="M 10,3.5 Q 10,3 10.5,3 L 11,3 11,3.5 11,4 10.5,4 10,4 10,3.5"
       style="fill:#fefefe;fill-opacity:1" />
    <path
       id="path3408"
       d="M 11,3.5 11,3 11.5,3 12,3 12,3.5 12,4 11.5,4 11,4 11,3.5"
       style="fill:#d7d7d7;fill-opacity:1" />
    <path
       id="path3410"
       d="M 12,3.5 12,3 12.5,3 13,3 13,3.5 13,4 12.5,4 12,4 12,3.5"
       style="fill:#dfdfdf;fill-opacity:1" />
    <path
       id="path3412"
       d="M 13,3.5 13,3 13.5,3 14,3 14,3.5 14,4 13.5,4 13,4 13,3.5"
       style="fill:#ebebeb;fill-opacity:1" />
    <path
       id="path3414"
       d="M 14,3.5 14,3 14.5,3 15,3 15,3.5 15,4 14.5,4 14,4 14,3.5"
       style="fill:#dddddd;fill-opacity:1" />
    <path
       id="path3416"
       d="M 15,3.5 15,3 15.5,3 Q 16,3 16,3.5 L 16,4 15.5,4 15,4 15,3.5"
       style="fill:#dedede;fill-opacity:1" />
    <path
       id="path3418"
       d="M 0,4.5 0,4 0.5,4 1,4 1,4.5 1,5 0.5,5 0,5 0,4.5"
       style="fill:#eeeeee;fill-opacity:1" />
    <path
       id="path3420"
       d="M 1,4.5 1,4 1.5,4 2,4 2,4.5 2,5 1.5,5 1,5 1,4.5"
       style="fill:#f3f7fa;fill-opacity:1" />
    <path
       id="path3422"
       d="M 2,4.5 2,4 2.5,4 3,4 3.125,4.375 3.25,4.75 3.15625,4.46875 3.0625,4.1875 3.125,4.375 Q 3.1875,4.5625 3.3125,4.6875 L 3.4375,4.8125 3.375,4.75 3.3125,4.6875 3,5 2.6875,5.3125 2.75,5.375 2.8125,5.4375 2.6875,5.3125 Q 2.5625,5.1875 2.375,5.125 L 2.1875,5.0625 2.46875,5.15625 2.75,5.25 2.375,5.125 2,5 2,4.5"
       style="fill:#e2eef8;fill-opacity:1" />
    <path
       id="path3424"
       d="M 3.125,4.375 3,4 3.5,4 4,4 4,4.5 4,5 3.625,4.875 Q 3.25,4.75 3.125,4.375"
       style="fill:#abb4bb;fill-opacity:1" />
    <path
       id="path3426"
       d="M 4,4.5 4,4 4.5,4 5,4 5,4.5 5,5 4.5,5 4,5 4,4.5"
       style="fill:#232323;fill-opacity:1" />
    <path
       id="path3428"
       d="M 5,4.5 5,4 5.5,4 6,4 6,4.5 6,5 5.5,5 5,5 5,4.5"
       style="fill:#454545;fill-opacity:1" />
    <path
       id="path3430"
       d="M 6,4.5 6,4 6.5,4 7,4 7,4.5 7,5 6.5,5 6,5 6,4.5"
       style="fill:#8f959b;fill-opacity:1" />
    <path
       id="path3432"
       d="M 7,4.5 7,4 7.5,4 8,4 8,4.5 8,5 7.5,5 7,5 7,4.5"
       style="fill:#e4f0fa;fill-opacity:1" />
    <path
       id="path3434"
       d="M 8,4.5 8,4 8.5,4 9,4 9,4.5 9,5 8.5,5 8,5 8,4.5"
       style="fill:#ebf4fb;fill-opacity:1" />
    <path
       id="path3436"
       d="M 9,4.5 9,4 9.5,4 10,4 10,4.5 10,5 9.5,5 9,5 9,4.5"
       style="fill:#fefefe;fill-opacity:1" />
    <path
       id="path3438"
       d="M 10,4.5 10,4 10.5,4 11,4 11,4.5 11,5 10.5,5 10,5 10,4.5"
       style="fill:#e1e1e1;fill-opacity:1" />
    <path
       id="path3440"
       d="M 11,4.5 11,4 11.5,4 12,4 12,4.5 12,5 11.5,5 11,5 11,4.5"
       style="fill:#efefef;fill-opacity:1" />
    <path
       id="path3442"
       d="M 12,4.5 12,4 12.5,4 13,4 13,4.5 13,5 12.5,5 12,5 12,4.5"
       style="fill:#dddddd;fill-opacity:1" />
    <path
       id="path3444"
       d="M 13,4.5 13,4 13.5,4 14,4 14.5,4 15,4 15.5,4 16,4 16,4.5 16,5 15.5,5 15,5 14.5,5 14,5 13.5,5 13,5 13,4.5"
       style="fill:#dadada;fill-opacity:1" />
    <path
       id="path3446"
       d="M 16,4.5 16,4 16.5,4 17,4 17,4.5 17,5 16.5,5 16,5 16,4.5"
       style="fill:#f9f9f9;fill-opacity:1" />
    <path
       id="path3448"
       d="M 17,4.5 17,4 17.5,4 18,4 18,4.5 18,5 17.5,5 17,5 17,4.5"
       style="fill:#a6a6a6;fill-opacity:0.70980392" />
    <path
       id="path3450"
       d="M 0,5.5 0,5 0.5,5 1,5 1,5.5 1,6 0.5,6 0,6 0,5.5"
       style="fill:#ececec;fill-opacity:1" />
    <path
       id="path3452"
       d="M 1,5.5 1,5 1.5,5 2,5 2,5.5 2,6 1.5,6 1,6 1,5.5"
       style="fill:#f0f4f7;fill-opacity:1" />
    <path
       id="path3454"
       d="M 2,5.5 2,5 2.375,5.125 q 0.375,0.125 0.5,0.5 L 3,6 2.5,6 2,6 2,5.5"
       style="fill:#deeaf4;fill-opacity:1" />
    <path
       id="path3456"
       d="M 2.875,5.625 2.75,5.25 2.84375,5.53125 2.9375,5.8125 2.875,5.625 Q 2.8125,5.4375 2.6875,5.3125 L 2.5625,5.1875 2.625,5.25 2.6875,5.3125 3,5 3.3125,4.6875 3.25,4.625 3.1875,4.5625 3.3125,4.6875 Q 3.4375,4.8125 3.625,4.875 L 3.8125,4.9375 3.53125,4.84375 3.25,4.75 3.625,4.875 4,5 4,5.5 4,6 3.5,6 3,6 2.875,5.625"
       style="fill:#c6d1d9;fill-opacity:1" />
    <path
       id="path3458"
       d="M 4,5.5 4,5 4.5,5 5,5 5,5.5 5,6 4.5,6 4,6 4,5.5"
       style="fill:#2a2a2b;fill-opacity:1" />
    <path
       id="path3460"
       d="M 5,5.5 5,5 5.5,5 6,5 6,5.5 6,6 5.5,6 5,6 5,5.5"
       style="fill:#2e2e2e;fill-opacity:1" />
    <path
       id="path3462"
       d="M 6,5.5 6,5 6.5,5 7,5 6.875,5.375 Q 6.75,5.75 6.375,5.875 L 6,6 6,5.5"
       style="fill:#aab2b9;fill-opacity:1" />
    <path
       id="path3464"
       d="M 6.875,5.375 7,5 7.5,5 8,5 8,5.5 8,6 7.625,6.125 7.25,6.25 7.53125,6.15625 7.8125,6.0625 7.625,6.125 Q 7.4375,6.1875 7.3125,6.3125 L 7.1875,6.4375 7.25,6.375 7.3125,6.3125 7,6 6.6875,5.6875 6.625,5.75 6.5625,5.8125 6.6875,5.6875 Q 6.8125,5.5625 6.875,5.375 L 6.9375,5.1875 6.84375,5.46875 6.75,5.75 6.875,5.375"
       style="fill:#e0ecf6;fill-opacity:1" />
    <path
       id="path3466"
       d="M 8,5.5 8,5 8.5,5 9,5 9,5.5 9,6 8.5,6 8,6 8,5.5"
       style="fill:#e8f0f7;fill-opacity:1" />
    <path
       id="path3468"
       d="M 9,5.5 9,5 9.5,5 10,5 10,5.5 10,6 9.5,6 9,6 9,5.5"
       style="fill:#fcfcfc;fill-opacity:1" />
    <path
       id="path3470"
       d="M 10,5.5 10,5 10.5,5 11,5 11,5.5 11,6 11,6.5 11,7 10.5,7 10,7 10,6.5 10,6 10,5.5"
       style="fill:#d4d4d4;fill-opacity:1" />
    <path
       id="path3472"
       d="M 11,5.5 11,5 11.5,5 12,5 12,5.5 12,6 11.5,6 11,6 11,5.5"
       style="fill:#f4f4f4;fill-opacity:1" />
    <path
       id="path3474"
       d="M 12,5.5 12,5 12.5,5 13,5 13,5.5 13,6 12.5,6 12,6 12,5.5"
       style="fill:#d4d4d4;fill-opacity:1" />
    <path
       id="path3476"
       d="M 13,5.5 13,5 13.5,5 14,5 14,5.5 14,6 13.5,6 13,6 13,5.5"
       style="fill:#f8f8f8;fill-opacity:1" />
    <path
       id="path3478"
       d="M 14,5.5 14,5 14.5,5 15,5 15,5.5 15,6 14.5,6 14,6 14,5.5"
       style="fill:#d6d6d6;fill-opacity:1" />
    <path
       id="path3480"
       d="M 15,5.5 15,5 15.5,5 16,5 16,5.5 16,6 15.5,6 15,6 15,5.5"
       style="fill:#e0e0e0;fill-opacity:1" />
    <path
       id="path3482"
       d="M 16,5.5 16,5 16.5,5 17,5 17,5.5 17,6 16.5,6 16,6 16,5.5"
       style="fill:#f5f5f5;fill-opacity:1" />
    <path
       id="path3484"
       d="M 17,5.5 17,5 17.5,5 18,5 18,5.5 18,6 17.5,6 17,6 17,5.5"
       style="fill:#a5a5a5;fill-opacity:0.70980392" />
    <path
       id="path3486"
       d="M 0,6.5 0,6 0.5,6 1,6 1,6.5 1,7 0.5,7 0,7 0,6.5"
       style="fill:#eaeaea;fill-opacity:1" />
    <path
       id="path3488"
       d="M 1,6.5 1,6 1.5,6 2,6 1.875,6.375 Q 1.75,6.75 1.375,6.875 L 1,7 1,6.5"
       style="fill:#edf1f5;fill-opacity:1" />
    <path
       id="path3490"
       d="M 1.875,6.375 2,6 2.5,6 3,6 3.03125,6.53125 3.0625,7.0625 2.65625,7.15625 2.25,7.25 2.53125,7.15625 2.8125,7.0625 2.625,7.125 Q 2.4375,7.1875 2.3125,7.3125 L 2.1875,7.4375 2.25,7.375 2.3125,7.3125 2,7 1.6875,6.6875 1.625,6.75 1.5625,6.8125 1.6875,6.6875 Q 1.8125,6.5625 1.875,6.375 L 1.9375,6.1875 1.84375,6.46875 1.75,6.75 1.875,6.375"
       style="fill:#dae6f0;fill-opacity:1" />
    <path
       id="path3492"
       d="M 3.03125,6.53125 3,6 3.5,6 4,6 3.875,6.375 Q 3.75,6.75 3.375,6.875 L 3,7 3.28125,6.90625 3.5625,6.8125 3.375,6.875 Q 3.1875,6.9375 3.0625,7.0625 L 2.9375,7.1875 3,7.125 3.0625,7.0625 3.03125,6.53125"
       style="fill:#d9e5f0;fill-opacity:1" />
    <path
       id="path3494"
       d="M 3.875,6.375 4,6 4.5,6 5,6 5,6.5 5,7 4.625,7.125 4.25,7.25 4.53125,7.15625 4.8125,7.0625 4.625,7.125 Q 4.4375,7.1875 4.3125,7.3125 L 4.1875,7.4375 4.25,7.375 4.3125,7.3125 4,7 3.6875,6.6875 3.625,6.75 3.5625,6.8125 3.6875,6.6875 Q 3.8125,6.5625 3.875,6.375 L 3.9375,6.1875 3.84375,6.46875 3.75,6.75 3.875,6.375"
       style="fill:#4e5153;fill-opacity:1" />
    <path
       id="path3496"
       d="M 5,6.5 5,6 5.5,6 6,6 6.125,6.375 6.25,6.75 6.15625,6.46875 6.0625,6.1875 6.125,6.375 Q 6.1875,6.5625 6.3125,6.6875 L 6.4375,6.8125 6.375,6.75 6.3125,6.6875 6,7 5.6875,7.3125 5.75,7.375 5.8125,7.4375 5.6875,7.3125 Q 5.5625,7.1875 5.375,7.125 L 5.1875,7.0625 5.46875,7.15625 5.75,7.25 5.375,7.125 5,7 5,6.5"
       style="fill:#2d2e2f;fill-opacity:1" />
    <path
       id="path3498"
       d="M 6.125,6.375 6,6 6.375,5.875 6.75,5.75 6.46875,5.84375 6.1875,5.9375 6.375,5.875 Q 6.5625,5.8125 6.6875,5.6875 L 6.8125,5.5625 6.75,5.625 6.6875,5.6875 7,6 7.3125,6.3125 7.375,6.25 7.4375,6.1875 7.3125,6.3125 Q 7.1875,6.4375 7.125,6.625 L 7.0625,6.8125 7.15625,6.53125 7.25,6.25 7.125,6.625 7,7 6.625,6.875 Q 6.25,6.75 6.125,6.375"
       style="fill:#d2dee8;fill-opacity:1" />
    <path
       id="path3500"
       d="M 7.125,6.625 Q 7.25,6.25 7.625,6.125 L 8,6 8.125,6.375 8.25,6.75 8.15625,6.46875 8.0625,6.1875 8.125,6.375 Q 8.1875,6.5625 8.3125,6.6875 L 8.4375,6.8125 8.375,6.75 8.3125,6.6875 8,7 7.6875,7.3125 7.75,7.375 7.8125,7.4375 7.6875,7.3125 Q 7.5625,7.1875 7.375,7.125 L 7.1875,7.0625 7.46875,7.15625 7.75,7.25 7.375,7.125 7,7 7.125,6.625"
       style="fill:#dce8f2;fill-opacity:1" />
    <path
       id="path3502"
       d="M 8.125,6.375 8,6 8.5,6 9,6 9,6.5 9,7 8.625,6.875 Q 8.25,6.75 8.125,6.375"
       style="fill:#e5edf5;fill-opacity:1" />
    <path
       id="path3504"
       d="M 9,6.5 9,6 9.5,6 10,6 10,6.5 10,7 9.5,7 9,7 9,6.5"
       style="fill:#fafafa;fill-opacity:1" />
    <path
       id="path3506"
       d="M 11,6.5 11,6 11.5,6 12,6 12,6.5 12,7 11.5,7 11,7 11,6.5"
       style="fill:#f0f0f0;fill-opacity:1" />
    <path
       id="path3508"
       d="M 12,6.5 12,6 12.5,6 13,6 13,6.5 13,7 12.5,7 12,7 12,6.5"
       style="fill:#d3d3d3;fill-opacity:1" />
    <path
       id="path3510"
       d="M 13,6.5 13,6 13.5,6 14,6 14.5,6 15,6 15,6.5 15,7 14.5,7 14,7 13.5,7 13,7 13,6.5"
       style="fill:#dbdbdb;fill-opacity:1" />
    <path
       id="path3512"
       d="M 15,6.5 15,6 15.5,6 16,6 16,6.5 16,7 15.5,7 15,7 15,6.5"
       style="fill:#d0d0d0;fill-opacity:1" />
    <path
       id="path3514"
       d="M 16,6.5 16,6 16.5,6 17,6 17,6.5 17,7 16.5,7 16,7 16,6.5"
       style="fill:#f8f8f8;fill-opacity:1" />
    <path
       id="path3516"
       d="M 17,6.5 17,6 17.5,6 18,6 18,6.5 18,7 17.5,7 17,7 17,6.5"
       style="fill:#a3a3a3;fill-opacity:0.70980392" />
    <path
       id="path3518"
       d="M 0,7.5 0,7 0.5,7 1,7 1,7.5 1,8 0.5,8 0,8 0,7.5"
       style="fill:#e8e8e8;fill-opacity:1" />
    <path
       id="path3520"
       d="M 1,7.5 1,7 1.375,6.875 1.75,6.75 1.46875,6.84375 1.1875,6.9375 1.375,6.875 Q 1.5625,6.8125 1.6875,6.6875 L 1.8125,6.5625 1.75,6.625 1.6875,6.6875 2,7 2.3125,7.3125 2.375,7.25 2.4375,7.1875 2.3125,7.3125 Q 2.1875,7.4375 2.125,7.625 L 2.0625,7.8125 2.15625,7.53125 2.25,7.25 2.125,7.625 2,8 1.5,8 1,8 1,7.5"
       style="fill:#eaeef2;fill-opacity:1" />
    <path
       id="path3522"
       d="M 2.125,7.625 Q 2.25,7.25 2.65625,7.15625 L 3.0625,7.0625 3.125,7 3.1875,6.9375 3.0625,7.0625 Q 2.9375,7.1875 2.875,7.375 L 2.8125,7.5625 2.90625,7.28125 3,7 2.875,7.375 Q 2.75,7.75 2.40625,7.875 L 2.0625,8 l 0,0.09375 0,0.09375 0,-0.1875 q 0,-0.1875 0.0625,-0.375 L 2.1875,7.4375 2.09375,7.71875 2,8 2.125,7.625"
       style="fill:#99a0a8;fill-opacity:1" />
    <path
       id="path3524"
       d="M 2.875,7.375 Q 3,7 3.375,6.875 L 3.75,6.75 3.46875,6.84375 3.1875,6.9375 3.375,6.875 Q 3.5625,6.8125 3.6875,6.6875 L 3.8125,6.5625 3.75,6.625 3.6875,6.6875 4,7 4.3125,7.3125 4.375,7.25 4.4375,7.1875 4.3125,7.3125 Q 4.1875,7.4375 4.125,7.625 L 4.0625,7.8125 4.15625,7.53125 4.25,7.25 4.125,7.625 4,8 3.625,8.125 3.25,8.25 3.53125,8.15625 3.8125,8.0625 3.625,8.125 Q 3.4375,8.1875 3.3125,8.3125 L 3.1875,8.4375 3.25,8.375 3.3125,8.3125 3,8 2.6875,7.6875 2.625,7.75 2.5625,7.8125 2.6875,7.6875 Q 2.8125,7.5625 2.875,7.375 L 2.9375,7.1875 2.84375,7.46875 2.75,7.75 2.875,7.375"
       style="fill:#353537;fill-opacity:1" />
    <path
       id="path3526"
       d="M 4.125,7.625 Q 4.25,7.25 4.625,7.125 L 5,7 5,7.5 5,8 4.5,8 4,8 4.125,7.625"
       style="fill:#202020;fill-opacity:1" />
    <path
       id="path3528"
       d="M 5,7.5 5,7 5.375,7.125 q 0.375,0.125 0.5,0.5 L 6,8 5.5,8 5,8 5,7.5"
       style="fill:#2c2c2c;fill-opacity:1" />
    <path
       id="path3530"
       d="M 5.875,7.625 5.75,7.25 5.84375,7.53125 5.9375,7.8125 5.875,7.625 Q 5.8125,7.4375 5.6875,7.3125 L 5.5625,7.1875 5.625,7.25 5.6875,7.3125 6,7 6.3125,6.6875 6.25,6.625 6.1875,6.5625 6.3125,6.6875 Q 6.4375,6.8125 6.625,6.875 L 6.8125,6.9375 6.53125,6.84375 6.25,6.75 6.625,6.875 7,7 7,7.5 7,8 6.5,8 6,8 5.875,7.625 M 7.09375,7.03125 7,7 6.71875,6.90625 6.4375,6.8125 6.625,6.875 Q 6.8125,6.9375 7,7 L 7.1875,7.0625 7.09375,7.03125"
       style="fill:#535353;fill-opacity:1" />
    <path
       id="path3532"
       d="M 7,7.5 7,7 7.375,7.125 q 0.375,0.125 0.5,0.5 L 8,8 7.90625,7.71875 7.8125,7.4375 7.875,7.625 Q 7.9375,7.8125 7.9375,8 l 0,0.1875 0,-0.09375 L 7.9375,8 7.46875,8 7,8 7,7.5 M 6.875,8 7,8 7.375,8 7.75,8 7.5,8 Q 7.25,8 7,8 L 6.75,8 6.875,8 M 7.28125,7.09375 7,7 6.90625,6.96875 6.8125,6.9375 7,7 Q 7.1875,7.0625 7.375,7.125 L 7.5625,7.1875 7.28125,7.09375"
       style="fill:#81858a;fill-opacity:1" />
    <path
       id="path3534"
       d="M 7.875,7.625 7.75,7.25 7.84375,7.53125 7.9375,7.8125 7.875,7.625 Q 7.8125,7.4375 7.6875,7.3125 L 7.5625,7.1875 7.625,7.25 7.6875,7.3125 8,7 8.3125,6.6875 8.25,6.625 8.1875,6.5625 8.3125,6.6875 Q 8.4375,6.8125 8.625,6.875 L 8.8125,6.9375 8.53125,6.84375 8.25,6.75 8.625,6.875 9,7 9.125,7.375 9.25,7.75 9.15625,7.46875 9.0625,7.1875 9.125,7.375 Q 9.1875,7.5625 9.3125,7.6875 L 9.4375,7.8125 9.375,7.75 9.3125,7.6875 9,8 8.6875,8.3125 8.75,8.375 8.8125,8.4375 8.6875,8.3125 Q 8.5625,8.1875 8.375,8.125 L 8.1875,8.0625 8.46875,8.15625 8.75,8.25 8.375,8.125 8,8 7.875,7.625"
       style="fill:#e0e8f0;fill-opacity:1" />
    <path
       id="path3536"
       d="M 9.125,7.375 9,7 9.5,7 10,7 10,7.5 10,8 9.625,7.875 Q 9.25,7.75 9.125,7.375"
       style="fill:#f8f8f8;fill-opacity:1" />
    <path
       id="path3538"
       d="M 10,7.5 10,7 10.5,7 11,7 11,7.5 11,8 10.5,8 10,8 10,7.5"
       style="fill:#e3e3e3;fill-opacity:1" />
    <path
       id="path3540"
       d="M 11,7.5 11,7 11.5,7 12,7 12,7.5 12,8 11.5,8 11,8 11,7.5"
       style="fill:#e1e1e1;fill-opacity:1" />
    <path
       id="path3542"
       d="M 12,7.5 12,7 12.5,7 13,7 13,7.5 13,8 12.5,8 12,8 12,7.5"
       style="fill:#e5e5e5;fill-opacity:1" />
    <path
       id="path3544"
       d="M 13,7.5 13,7 13.5,7 14,7 14,7.5 14,8 13.5,8 13,8 13,7.5"
       style="fill:#ededed;fill-opacity:1" />
    <path
       id="path3546"
       d="M 14,7.5 14,7 14.5,7 15,7 15,7.5 15,8 14.5,8 14,8 14,7.5"
       style="fill:#dcdcdc;fill-opacity:1" />
    <path
       id="path3548"
       d="M 15,7.5 15,7 15.5,7 16,7 16,7.5 16,8 16,8.5 16,9 15.5,9 15,9 15,8.5 15,8 15,7.5"
       style="fill:#e6e6e6;fill-opacity:1" />
    <path
       id="path3550"
       d="M 16,7.5 16,7 16.5,7 17,7 17,7.5 17,8 16.5,8 16,8 16,7.5"
       style="fill:#f4f4f4;fill-opacity:1" />
    <path
       id="path3552"
       d="M 17,7.5 17,7 17.5,7 18,7 18,7.5 18,8 18,8.5 18,9 17.5,9 17,9 17,8.5 17,8 17,7.5"
       style="fill:#a1a1a1;fill-opacity:0.70980392" />
    <path
       id="path3554"
       d="M 0,8.5 0,8 0.5,8 1,8 1,8.5 1,9 0.5,9 0,9 0,8.5"
       style="fill:#e6e6e6;fill-opacity:1" />
    <path
       id="path3556"
       d="M 1,8.5 1,8 1.5,8 2,8 2.125,8.375 2.25,8.75 2.15625,8.46875 2.0625,8.1875 2.125,8.375 Q 2.1875,8.5625 2.3125,8.6875 L 2.4375,8.8125 2.375,8.75 2.3125,8.6875 2,9 1.6875,9.3125 1.75,9.375 1.8125,9.4375 1.6875,9.3125 Q 1.5625,9.1875 1.375,9.125 L 1.1875,9.0625 1.46875,9.15625 1.75,9.25 1.375,9.125 1,9 1,8.5"
       style="fill:#dcdfe3;fill-opacity:1" />
    <path
       id="path3558"
       d="M 2.125,8.375 2,8 2.09375,8.28125 2.1875,8.5625 2.125,8.375 Q 2.0625,8.1875 2.0625,8 l 0,-0.1875 0,0.09375 L 2.0625,8 2.40625,7.875 2.75,7.75 2.46875,7.84375 2.1875,7.9375 2.375,7.875 Q 2.5625,7.8125 2.6875,7.6875 L 2.8125,7.5625 2.75,7.625 2.6875,7.6875 3,8 3.3125,8.3125 3.375,8.25 3.4375,8.1875 3.3125,8.3125 Q 3.1875,8.4375 3.125,8.625 L 3.0625,8.8125 3.15625,8.53125 3.25,8.25 3.125,8.625 3,9 2.625,8.875 Q 2.25,8.75 2.125,8.375"
       style="fill:#3f4043;fill-opacity:1" />
    <path
       id="path3560"
       d="M 3.125,8.625 Q 3.25,8.25 3.625,8.125 L 4,8 4,8.5 4,9 3.5,9 3,9 3.125,8.625"
       style="fill:#1c1b1b;fill-opacity:1" />
    <path
       id="path3562"
       d="M 4,8.5 4,8 4.5,8 5,8 5,8.5 5,9 4.5,9 4,9 4,8.5"
       style="fill:#242323;fill-opacity:1" />
    <path
       id="path3564"
       d="M 5,8.5 5,8 5.5,8 6,8 6,8.5 6,9 5.5,9 5,9 5,8.5"
       style="fill:#2d2c2c;fill-opacity:1" />
    <path
       id="path3566"
       d="M 6,8.5 6,8 6.5,8 7,8 7,8.5 7,9 6.5,9 6,9 6,8.5"
       style="fill:#313030;fill-opacity:1" />
    <path
       id="path3568"
       d="M 7,8.5 7,8 7.46875,8 7.9375,8 l 0,-0.09375 0,-0.09375 0,0.1875 q 0,0.1875 -0.0625,0.375 L 7.8125,8.5625 7.90625,8.28125 8,8 7.875,8.375 Q 7.75,8.75 7.375,8.875 L 7,9 7,8.5"
       style="fill:#222121;fill-opacity:1" />
    <path
       id="path3570"
       d="M 7.875,8.375 8,8 8.375,8.125 q 0.375,0.125 0.5,0.5 L 9,9 8.625,9.125 8.25,9.25 8.53125,9.15625 8.8125,9.0625 8.625,9.125 Q 8.4375,9.1875 8.28125,9.28125 L 8.125,9.375 8.203125,9.328125 8.28125,9.28125 7.984375,8.984375 7.6875,8.6875 7.625,8.75 7.5625,8.8125 7.6875,8.6875 Q 7.8125,8.5625 7.875,8.375 L 7.9375,8.1875 7.84375,8.46875 7.75,8.75 7.875,8.375"
       style="fill:#bec4cb;fill-opacity:1" />
    <path
       id="path3572"
       d="M 8.875,8.625 8.75,8.25 8.84375,8.53125 8.9375,8.8125 8.875,8.625 Q 8.8125,8.4375 8.6875,8.3125 L 8.5625,8.1875 8.625,8.25 8.6875,8.3125 9,8 9.3125,7.6875 9.25,7.625 9.1875,7.5625 9.3125,7.6875 Q 9.4375,7.8125 9.625,7.875 L 9.8125,7.9375 9.53125,7.84375 9.25,7.75 9.625,7.875 10,8 10.5,8 11,8 11,8.5 11,9 10.5,9 10,9 9.5,9 9,9 8.875,8.625"
       style="fill:#f4f4f4;fill-opacity:1" />
    <path
       id="path3574"
       d="M 11,8.5 11,8 11.5,8 12,8 12,8.5 12,9 11.5,9 11,9 11,8.5"
       style="fill:#dbdbdb;fill-opacity:1" />
    <path
       id="path3576"
       d="M 12,8.5 12,8 12.5,8 13,8 13,8.5 13,9 12.5,9 12,9 12,8.5"
       style="fill:#d0d0d0;fill-opacity:1" />
    <path
       id="path3578"
       d="M 13,8.5 13,8 13.5,8 14,8 14,8.5 14,9 13.5,9 13,9 13,8.5"
       style="fill:#d3d3d3;fill-opacity:1" />
    <path
       id="path3580"
       d="M 14,8.5 14,8 14.5,8 15,8 15,8.5 15,9 14.5,9 14,9 14,8.5"
       style="fill:#d1d1d1;fill-opacity:1" />
    <path
       id="path3582"
       d="M 16,8.5 16,8 16.5,8 17,8 17,8.5 17,9 16.5,9 16,9 16,8.5"
       style="fill:#f2f2f2;fill-opacity:1" />
    <path
       id="path3584"
       d="M 0,9.5 0,9 0.5,9 1,9 1,9.5 1,10 0.5,10 0,10 0,9.5"
       style="fill:#e5e5e5;fill-opacity:1" />
    <path
       id="path3586"
       d="M 1,9.5 1,9 1.375,9.125 q 0.375,0.125 0.5,0.5 L 2,10 1.5,10 1,10 1,9.5"
       style="fill:#ebebeb;fill-opacity:1" />
    <path
       id="path3588"
       d="M 1.875,9.625 1.75,9.25 1.84375,9.53125 1.9375,9.8125 1.875,9.625 Q 1.8125,9.4375 1.6875,9.3125 L 1.5625,9.1875 1.625,9.25 1.6875,9.3125 2,9 2.3125,8.6875 2.25,8.625 2.1875,8.5625 2.3125,8.6875 Q 2.4375,8.8125 2.625,8.875 L 2.8125,8.9375 2.53125,8.84375 2.25,8.75 2.625,8.875 3,9 3.125,9.375 3.25,9.75 3.15625,9.46875 3.0625,9.1875 3.125,9.375 Q 3.1875,9.5625 3.3125,9.6875 L 3.4375,9.8125 3.375,9.75 3.3125,9.6875 2.984375,9.984375 2.65625,10.28125 2.703125,10.328125 2.75,10.375 2.65625,10.28125 Q 2.5625,10.1875 2.375,10.125 L 2.1875,10.0625 2.46875,10.15625 2.75,10.25 2.375,10.125 2,10 1.875,9.625"
       style="fill:#c4c4c4;fill-opacity:1" />
    <path
       id="path3590"
       d="M 3.125,9.375 3,9 3.5,9 4,9 4,9.5 4,10 3.625,9.875 Q 3.25,9.75 3.125,9.375"
       style="fill:#a8a8a8;fill-opacity:1" />
    <path
       id="path3592"
       d="M 4,9.5 4,9 4.5,9 5,9 5.5,9 6,9 6,9.5 6,10 5.5,10 5,10 4.5,10 4,10 4,9.5"
       style="fill:#a2a2a2;fill-opacity:1" />
    <path
       id="path3594"
       d="M 6,9.5 6,9 6.5,9 7,9 7,9.5 7,10 6.5,10 6,10 6,9.5"
       style="fill:#a7a7a7;fill-opacity:1" />
    <path
       id="path3596"
       d="M 7,9.5 7,9 7.375,8.875 7.75,8.75 7.46875,8.84375 7.1875,8.9375 7.375,8.875 Q 7.5625,8.8125 7.6875,8.6875 L 7.8125,8.5625 7.75,8.625 7.6875,8.6875 7.984375,8.984375 8.28125,9.28125 8.359375,9.234375 8.4375,9.1875 8.28125,9.28125 Q 8.125,9.375 8,9.5 L 7.875,9.625 8.0625,9.4375 8.25,9.25 8,9.5 Q 7.75,9.75 7.375,9.875 L 7,10 7,9.5"
       style="fill:#b4b4b4;fill-opacity:1" />
    <path
       id="path3598"
       d="M 8,9.5 Q 8.25,9.25 8.625,9.125 L 9,9 9,9.5 9,10 8.625,10.125 Q 8.25,10.25 7.984375,9.984375 L 7.71875,9.71875 7.640625,9.765625 7.5625,9.8125 7.71875,9.71875 Q 7.875,9.625 8,9.5 L 8.125,9.375 7.9375,9.5625 7.75,9.75 8,9.5"
       style="fill:#e0e0e0;fill-opacity:1" />
    <path
       id="path3600"
       d="M 9,9.5 9,9 9.5,9 10,9 10,9.5 10,10 9.5,10 9,10 9,9.5"
       style="fill:#efefef;fill-opacity:1" />
    <path
       id="path3602"
       d="m 10,9.5 0,-0.5 0.5,0 0.5,0 0.5,0 0.5,0 0.5,0 0.5,0 0.5,0 0.5,0 0.5,0 0.5,0 0.5,0 0.5,0 0.5,0 0.5,0 0,0.5 0,0.5 -0.5,0 q -0.5,0 -1,0 l -0.5,0 -0.5,0 -0.5,0 -0.5,0 -0.5,0 -0.5,0 -0.5,0 -0.5,0 q -0.5,0 -1,0 L 10,10 10,9.5"
       style="fill:#f0f0f0;fill-opacity:1" />
    <path
       id="path3604"
       d="M 17,9.5 17,9 17.5,9 18,9 18,9.5 18,10 17.5,10 17,10 17,9.5"
       style="fill:#9f9f9f;fill-opacity:0.70980392" />
    <path
       id="path3606"
       d="M 0,10.5 0,10 0.5,10 1,10 1,10.5 1,11 0.5,11 0,11 0,10.5"
       style="fill:#e2e2e2;fill-opacity:1" />
    <path
       id="path3608"
       d="M 1,10.5 1,10 1.5,10 2,10 2.375,10.125 Q 2.75,10.25 2.75,10.5 q 0,0.25 -0.375,0.375 L 2,11 1.5,11 1,11 1,10.5"
       style="fill:#ededed;fill-opacity:1" />
    <path
       id="path3610"
       d="m 2.75,10.5 0,-0.25 0,0.1875 0,0.1875 0,-0.125 q 0,-0.125 -0.09375,-0.21875 L 2.5625,10.1875 2.609375,10.234375 2.65625,10.28125 2.984375,9.984375 3.3125,9.6875 3.25,9.625 3.1875,9.5625 3.3125,9.6875 Q 3.4375,9.8125 3.625,9.875 L 3.8125,9.9375 3.53125,9.84375 3.25,9.75 3.625,9.875 4,10 4,10.5 4,11 3.625,11.125 3.25,11.25 3.53125,11.15625 3.8125,11.0625 3.625,11.125 Q 3.4375,11.1875 3.3125,11.3125 L 3.1875,11.4375 3.25,11.375 3.3125,11.3125 2.984375,11.015625 2.65625,10.71875 2.609375,10.765625 2.5625,10.8125 2.65625,10.71875 Q 2.75,10.625 2.75,10.5 l 0,-0.125 0,0.1875 0,0.1875 0,-0.25"
       style="fill:#e2e2e2;fill-opacity:0.96470588" />
    <path
       id="path3612"
       d="M 4,10.5 4,10 4.5,10 5,10 5.125,10.375 5.25,10.75 5.15625,10.46875 5.0625,10.1875 5.125,10.375 q 0.0625,0.1875 0.1875,0.3125 l 0.125,0.125 L 5.375,10.75 5.3125,10.6875 5,11 4.6875,11.3125 4.75,11.375 4.8125,11.4375 4.6875,11.3125 Q 4.5625,11.1875 4.375,11.125 L 4.1875,11.0625 4.46875,11.15625 4.75,11.25 4.375,11.125 4,11 4,10.5"
       style="fill:#e2e2e2;fill-opacity:0.95686275" />
    <path
       id="path3614"
       d="M 5.125,10.375 5,10 5.5,10 6,10 6,10.5 6,11 5.625,10.875 q -0.375,-0.125 -0.5,-0.5"
       style="fill:#eaeaea;fill-opacity:0.99215686" />
    <path
       id="path3616"
       d="M 6,10.5 6,10 6.5,10 7,10 7.375,9.875 7.75,9.75 7.46875,9.84375 7.1875,9.9375 7.375,9.875 Q 7.5625,9.8125 7.71875,9.71875 L 7.875,9.625 7.796875,9.671875 7.71875,9.71875 7.984375,9.984375 Q 8.25,10.25 8.625,10.125 L 9,10 l 0.5,0 0.5,0 0.5,0 q 0.5,0 1,0 l 0.5,0 -0.125,0.375 q -0.125,0.375 -0.5,0.5 Q 11,11 10.5,11 10,11 9.5,11 9,11 8.5,11 8,11 7.5,11 7,11 6.5,11 L 6,11 6,10.5"
       style="fill:#ededed;fill-opacity:1" />
    <path
       id="path3618"
       d="M 11.875,10.375 12,10 l 0.5,0 0.5,0 0.0625,0.5625 0.0625,0.5625 -0.4375,0.0625 L 12.25,11.25 12.53125,11.15625 12.8125,11.0625 12.625,11.125 q -0.1875,0.0625 -0.34375,0.15625 L 12.125,11.375 12.203125,11.328125 12.28125,11.28125 11.984375,10.984375 11.6875,10.6875 11.625,10.75 l -0.0625,0.0625 0.125,-0.125 q 0.125,-0.125 0.1875,-0.3125 L 11.9375,10.1875 11.84375,10.46875 11.75,10.75 11.875,10.375"
       style="fill:#e6e6e6;fill-opacity:0.98039216" />
    <path
       id="path3620"
       d="M 13.0625,10.5625 13,10 l 0.5,0 0.5,0 -0.01563,0.515625 -0.01563,0.515625 0.109375,0.01563 0.109375,0.01563 -0.21875,-0.03125 Q 13.75,11 13.5,11 l -0.25,0 0.375,0 0.375,0 -0.5,0 -0.5,0 0.375,0 0.375,0 -0.25,0 q -0.25,0 -0.375,0.125 L 13,11.25 13.0625,11.1875 13.125,11.125 13.0625,10.5625"
       style="fill:#e2e2e2;fill-opacity:0.95686275" />
    <path
       id="path3622"
       d="M 13.984375,10.515625 14,10 l 0.5,0 0.5,0 0.125,0.375 0.125,0.375 -0.09375,-0.28125 -0.09375,-0.28125 0.0625,0.1875 q 0.0625,0.1875 0.1875,0.3125 l 0.125,0.125 L 15.375,10.75 15.3125,10.6875 15.015625,10.984375 14.71875,11.28125 14.79688,11.32812 14.875,11.375 14.71875,11.28125 Q 14.5625,11.1875 14.375,11.125 L 14.1875,11.0625 14.46875,11.15625 14.75,11.25 14.375,11.125 14,11 14.28125,11.09375 14.5625,11.1875 14.375,11.125 Q 14.1875,11.0625 13.96875,11.03125 L 13.75,11 l 0.109375,0.01563 0.109375,0.01563 0.01563,-0.515625"
       style="fill:#e5e5e5;fill-opacity:0.97647059" />
    <path
       id="path3624"
       d="M 15.125,10.375 15,10 l 0.5,0 q 0.5,0 1,0 l 0.5,0 0,0.5 0,0.5 -0.5,0 q -0.5,0 -0.875,-0.125 -0.375,-0.125 -0.5,-0.5"
       style="fill:#ededed;fill-opacity:1" />
    <path
       id="path3626"
       d="m 17,10.5 0,-0.5 0.5,0 0.5,0 0,0.5 0,0.5 -0.5,0 -0.5,0 0,-0.5"
       style="fill:#9e9e9e;fill-opacity:0.70980392" />
    <path
       id="path3628"
       d="M 0,11.5 0,11 0.5,11 1,11 1,11.5 1,12 0.5,12 0,12 0,11.5"
       style="fill:#e1e1e1;fill-opacity:1" />
    <path
       id="path3630"
       d="M 1,11.5 1,11 1.5,11 2,11 2,11.5 2,12 1.5,12 1,12 1,11.5"
       style="fill:#ebebeb;fill-opacity:1" />
    <path
       id="path3632"
       d="M 2,11.5 2,11 2.375,10.875 2.75,10.75 2.46875,10.84375 2.1875,10.9375 2.375,10.875 Q 2.5625,10.8125 2.65625,10.71875 L 2.75,10.625 2.703125,10.671875 2.65625,10.71875 2.984375,11.015625 3.3125,11.3125 3.375,11.25 3.4375,11.1875 3.3125,11.3125 Q 3.1875,11.4375 3.125,11.625 L 3.0625,11.8125 3.15625,11.53125 3.25,11.25 3.109375,11.640625 2.96875,12.03125 3.078125,12.046875 3.1875,12.0625 2.96875,12.03125 Q 2.75,12 2.5,12 L 2.25,12 2.625,12 3,12 2.5,12 2,12 2,11.5"
       style="fill:#e4e4e4;fill-opacity:1" />
    <path
       id="path3634"
       d="M 3.109375,11.640625 Q 3.25,11.25 3.625,11.125 L 4,11 4.125,11.375 4.25,11.75 4.15625,11.46875 4.0625,11.1875 4.125,11.375 q 0.0625,0.1875 0.1875,0.3125 l 0.125,0.125 L 4.375,11.75 4.3125,11.6875 4,12 3.6875,12.3125 3.75,12.375 3.8125,12.4375 3.6875,12.3125 Q 3.5625,12.1875 3.375,12.125 L 3.1875,12.0625 3.46875,12.15625 3.75,12.25 3.375,12.125 3,12 3.28125,12.09375 3.5625,12.1875 3.375,12.125 Q 3.1875,12.0625 2.96875,12.03125 L 2.75,12 2.859375,12.01563 2.96875,12.03126 3.109375,11.640635"
       style="fill:#373737;fill-opacity:0.16470588" />
    <path
       id="path3636"
       d="M 4.125,11.375 4,11 4.375,11.125 q 0.375,0.125 0.5,0.5 L 5,12 4.625,11.875 q -0.375,-0.125 -0.5,-0.5"
       style="fill:#181818;fill-opacity:0.08235294" />
    <path
       id="path3638"
       d="M 4.875,11.625 4.75,11.25 4.84375,11.53125 4.9375,11.8125 4.875,11.625 Q 4.8125,11.4375 4.6875,11.3125 L 4.5625,11.1875 4.625,11.25 4.6875,11.3125 5,11 5.3125,10.6875 5.25,10.625 5.1875,10.5625 l 0.125,0.125 q 0.125,0.125 0.3125,0.1875 L 5.8125,10.9375 5.53125,10.84375 5.25,10.75 5.625,10.875 6,11 6.125,11.375 6.25,11.75 6.15625,11.46875 6.0625,11.1875 6.125,11.375 q 0.0625,0.1875 0.1875,0.3125 l 0.125,0.125 L 6.375,11.75 6.3125,11.6875 6.03125,11.96875 Q 5.75,12.25 5.375,12.125 L 5,12 4.875,11.625"
       style="fill:#bebebe;fill-opacity:0.81960784" />
    <path
       id="path3640"
       d="M 6.125,11.375 6,11 6.5,11 q 0.5,0 1,0 0.5,0 1,0 0.5,0 1,0 0.5,0 1,0 0.5,0 0.875,-0.125 L 11.75,10.75 11.46875,10.84375 11.1875,10.9375 11.375,10.875 q 0.1875,-0.0625 0.3125,-0.1875 l 0.125,-0.125 -0.0625,0.0625 -0.0625,0.0625 0.296875,0.296875 0.296875,0.296875 0.07813,-0.04687 0.07813,-0.04687 -0.15625,0.09375 Q 12.125,11.375 12,11.5 L 11.875,11.625 12.0625,11.4375 12.25,11.25 12,11.5 Q 11.75,11.75 11.375,11.875 11,12 10.5,12 10,12 9.5,12 9,12 8.5,12 8,12 7.5,12 7,12 6.625,11.875 6.25,11.75 6.125,11.375"
       style="fill:#ebebeb;fill-opacity:1" />
    <path
       id="path3642"
       d="m 12,11.5 q 0.25,-0.25 0.6875,-0.3125 L 13.125,11.125 13.1875,11.0625 13.25,11 13.125,11.125 Q 13,11.25 13,11.5 l 0,0.25 0,-0.375 0,-0.375 0,0.5 0,0.5 -0.375,0.125 -0.375,0.125 0.28125,-0.09375 0.28125,-0.09375 -0.1875,0.0625 q -0.1875,0.0625 -0.3125,0.1875 l -0.125,0.125 0.0625,-0.0625 0.0625,-0.0625 -0.296875,-0.296875 -0.296875,-0.296875 -0.07813,0.04687 -0.07813,0.04687 0.15625,-0.09375 Q 11.875,11.625 12,11.5 L 12.125,11.375 11.9375,11.5625 11.75,11.75 12,11.5"
       style="fill:#888888;fill-opacity:0.57254902" />
    <path
       id="path3644"
       d="M 13,11.5 Q 13,11 13.5,11 l 0.5,0 -0.375,0 -0.375,0 0.25,0 q 0.25,0 0.46875,0.03125 L 14.1875,11.0625 14.078125,11.04687 13.96875,11.03124 13.98438,11.515615 14,12 13.5,12 13,12 13,11.5"
       style="fill:#141414;fill-opacity:0.05098039" />
    <path
       id="path3646"
       d="M 13.984375,11.515625 13.96875,11.03125 13.859375,11.015625 13.75,11 13.96875,11.03125 Q 14.1875,11.0625 14.375,11.125 L 14.5625,11.1875 14.28125,11.09375 14,11 14.375,11.125 Q 14.75,11.25 15,11.5 L 15.25,11.75 15.0625,11.5625 14.875,11.375 15,11.5 q 0.125,0.125 0.28125,0.21875 l 0.15625,0.09375 -0.07813,-0.04687 -0.07813,-0.04687 -0.296875,0.296875 -0.296875,0.296875 0.0625,0.0625 0.0625,0.0625 -0.125,-0.125 Q 14.5625,12.1875 14.375,12.125 L 14.1875,12.0625 14.46875,12.15625 14.75,12.25 14.375,12.125 14,12 13.984375,11.515625"
       style="fill:#6c6c6c;fill-opacity:0.44313725" />
    <path
       id="path3648"
       d="M 15,11.5 14.75,11.25 14.9375,11.4375 15.125,11.625 15,11.5 q -0.125,-0.125 -0.28125,-0.21875 l -0.15625,-0.09375 0.07813,0.04687 0.07813,0.04687 0.296875,-0.296875 L 15.3125,10.6875 15.25,10.625 l -0.0625,-0.0625 0.125,0.125 q 0.125,0.125 0.3125,0.1875 L 15.8125,10.9375 15.53125,10.84375 15.25,10.75 15.625,10.875 Q 16,11 16.5,11 l 0.5,0 -0.125,0.375 q -0.125,0.375 -0.5,0.5 Q 16,12 15.625,11.875 15.25,11.75 15,11.5"
       style="fill:#ebebeb;fill-opacity:1" />
    <path
       id="path3650"
       d="M 16.875,11.375 17,11 l 0.5,0 0.5,0 0,0.5 0,0.5 -0.375,0.125 -0.375,0.125 0.28125,-0.09375 0.28125,-0.09375 -0.1875,0.0625 q -0.1875,0.0625 -0.3125,0.1875 l -0.125,0.125 L 17.25,12.375 17.3125,12.3125 17,12 16.6875,11.6875 16.625,11.75 l -0.0625,0.0625 0.125,-0.125 q 0.125,-0.125 0.1875,-0.3125 L 16.9375,11.1875 16.84375,11.46875 16.75,11.75 16.875,11.375"
       style="fill:#9c9c9c;fill-opacity:0.70980392" />
    <path
       id="path3652"
       d="M 0,12.5 0,12 0.5,12 1,12 1,12.5 1,13 0.5,13 0,13 0,12.5"
       style="fill:#919191;fill-opacity:0.65490196" />
    <path
       id="path3654"
       d="M 1,12.5 1,12 1.5,12 2,12 2.5,12 3,12 3,12.5 3,13 2.5,13 2,13 1.5,13 1,13 1,12.5"
       style="fill:#9b9b9b;fill-opacity:0.70980392" />
    <path
       id="path3656"
       d="M 3,12.5 3,12 3.375,12.125 q 0.375,0.125 0.5,0.5 L 4,13 3.5,13 3,13 3,12.5"
       style="fill:#707070;fill-opacity:0.49803922" />
    <path
       id="path3658"
       d="M 3.875,12.625 3.75,12.25 3.84375,12.53125 3.9375,12.8125 3.875,12.625 Q 3.8125,12.4375 3.6875,12.3125 L 3.5625,12.1875 3.625,12.25 3.6875,12.3125 4,12 4.3125,11.6875 4.25,11.625 4.1875,11.5625 l 0.125,0.125 q 0.125,0.125 0.3125,0.1875 L 4.8125,11.9375 4.53125,11.84375 4.25,11.75 4.625,11.875 5,12 5,12.5 5,13 4.5,13 4,13 3.875,12.625 M 4.625,13 5,13 5.125,13 5.25,13 5,13 q -0.25,0 -0.5,0 l -0.25,0 0.375,0"
       style="fill:#464646;fill-opacity:0.30196078" />
    <path
       id="path3660"
       d="M 5,12.5 5,12 5.375,12.125 Q 5.75,12.25 6.03125,11.96875 L 6.3125,11.6875 6.25,11.625 6.1875,11.5625 l 0.125,0.125 q 0.125,0.125 0.3125,0.1875 L 6.8125,11.9375 6.53125,11.84375 6.25,11.75 6.625,11.875 Q 7,12 7.5,12 q 0.5,0 1,0 0.5,0 1,0 0.5,0 1,0 0.5,0 0.875,-0.125 L 11.75,11.75 11.46875,11.84375 11.1875,11.9375 11.375,11.875 q 0.1875,-0.0625 0.34375,-0.15625 L 11.875,11.625 l -0.07813,0.04687 -0.07813,0.04687 0.296875,0.296875 0.296875,0.296875 0.0625,-0.0625 0.0625,-0.0625 -0.125,0.125 q -0.125,0.125 -0.1875,0.3125 L 12.0625,12.8125 12.15625,12.53125 12.25,12.25 12.125,12.625 12,13 11.5,13 q -0.5,0 -1,0 -0.5,0 -1,0 -0.5,0 -1,0 -0.5,0 -1,0 -0.5,0 -1,0 -0.5,0 -1,0 L 5,13 5,12.5 M 4.875,13 5,13 5.375,13 5.75,13 5.5,13 Q 5.25,13 5,13 l -0.25,0 0.125,0"
       style="fill:#9b9b9b;fill-opacity:0.70980392" />
    <path
       id="path3662"
       d="m 12.125,12.625 q 0.125,-0.375 0.5,-0.5 L 13,12 12.875,12.375 q -0.125,0.375 -0.5,0.5 L 12,13 12.125,12.625"
       style="fill:#9a9a9a;fill-opacity:0.70980392" />
    <path
       id="path3664"
       d="M 12.875,12.375 13,12 l 0.5,0 0.5,0 0.125,0.375 0.125,0.375 -0.09375,-0.28125 -0.09375,-0.28125 0.0625,0.1875 q 0.0625,0.1875 0.1875,0.3125 l 0.125,0.125 L 14.375,12.75 14.3125,12.6875 14.03125,12.96875 Q 13.75,13.25 13.5,13.25 q -0.25,0 -0.53125,-0.28125 L 12.6875,12.6875 12.625,12.75 l -0.0625,0.0625 0.125,-0.125 q 0.125,-0.125 0.1875,-0.3125 L 12.9375,12.1875 12.84375,12.46875 12.75,12.75 12.875,12.375"
       style="fill:#212121;fill-opacity:0.12156863" />
    <path
       id="path3666"
       d="M 14.125,12.375 14,12 l 0.375,0.125 q 0.375,0.125 0.5,0.5 L 15,13 14.625,12.875 q -0.375,-0.125 -0.5,-0.5"
       style="fill:#959595;fill-opacity:0.68235294" />
    <path
       id="path3668"
       d="M 14.875,12.625 14.75,12.25 14.84375,12.53125 14.9375,12.8125 14.875,12.625 q -0.0625,-0.1875 -0.1875,-0.3125 l -0.125,-0.125 0.0625,0.0625 0.0625,0.0625 0.296875,-0.296875 L 15.28125,11.71875 15.20312,11.67188 15.125,11.625 15.28125,11.71875 Q 15.4375,11.8125 15.625,11.875 L 15.8125,11.9375 15.53125,11.84375 15.25,11.75 l 0.375,0.125 q 0.375,0.125 0.75,0 L 16.75,11.75 16.46875,11.84375 16.1875,11.9375 16.375,11.875 q 0.1875,-0.0625 0.3125,-0.1875 l 0.125,-0.125 L 16.75,11.625 16.6875,11.6875 17,12 l 0.3125,0.3125 0.0625,-0.0625 0.0625,-0.0625 -0.125,0.125 q -0.125,0.125 -0.1875,0.3125 L 17.0625,12.8125 17.15625,12.53125 17.25,12.25 17.125,12.625 17,13 16.5,13 16,13 15.5,13 15,13 14.875,12.625 M 16.625,13 17,13 17.125,13 17.25,13 17,13 q -0.25,0 -0.5,0 l -0.25,0 0.375,0"
       style="fill:#9b9b9b;fill-opacity:0.70980392" />
    <path
       id="path3670"
       d="m 17.125,12.625 q 0.125,-0.375 0.5,-0.5 L 18,12 l 0,0.5 0,0.5 -0.5,0 -0.5,0 0.125,-0.375 M 16.875,13 17,13 l 0.375,0 0.375,0 -0.25,0 q -0.25,0 -0.5,0 l -0.25,0 0.125,0"
       style="fill:#656565;fill-opacity:0.44705882" />
    <path
       id="path3672"
       d="M 0,13.5 0,13 0.5,13 1,13 1,13.5 1,14 0.5,14 0,14 0,13.5"
       style="fill:#000000;fill-opacity:0.01568627" />
    <path
       id="path3674"
       d="M 1,13.5 1,13 1.5,13 2,13 2,13.5 2,14 2,14.5 2,15 1.5,15 1,15 1,14.5 1,14 1,13.5"
       style="fill:#000000;fill-opacity:0.04705882" />
    <path
       id="path3676"
       d="M 2,13.5 2,13 2.5,13 3,13 3.5,13 4,13 4.5,13 q 0.5,0 1,0 0.5,0 1,0 0.5,0 1,0 0.5,0 1,0 0.5,0 1,0 0.5,0 1,0 0.5,0 1,0 L 12,13 12.375,12.875 12.75,12.75 12.46875,12.84375 12.1875,12.9375 12.375,12.875 q 0.1875,-0.0625 0.3125,-0.1875 l 0.125,-0.125 -0.0625,0.0625 -0.0625,0.0625 0.28125,0.28125 Q 13.25,13.25 13.5,13.25 q 0.25,0 0.53125,-0.28125 L 14.3125,12.6875 14.25,12.625 l -0.0625,-0.0625 0.125,0.125 q 0.125,0.125 0.3125,0.1875 L 14.8125,12.9375 14.53125,12.84375 14.25,12.75 14.625,12.875 15,13 l 0.5,0 0.5,0 0,0.5 0,0.5 -0.5,0 -0.5,0 -0.5,0 -0.5,0 -0.5,0 -0.5,0 -0.5,0 -0.5,0 -0.5,0 q -0.5,0 -1,0 -0.5,0 -1,0 -0.5,0 -1,0 -0.5,0 -1,0 -0.5,0 -1,0 L 6,14 5.5,14 5,14 4.5,14 4,14 3.5,14 3,14 2.5,14 2,14 2,13.5"
       style="fill:#000000;fill-opacity:0.05490196" />
    <path
       id="path3678"
       d="m 16,13.5 0,-0.5 0.5,0 0.5,0 0,0.5 0,0.5 -0.5,0 -0.5,0 0,-0.5"
       style="fill:#000000;fill-opacity:0.04705882" />
    <path
       id="path3680"
       d="m 17,13.5 0,-0.5 0.5,0 0.5,0 0,0.5 0,0.5 -0.5,0 -0.5,0 0,-0.5"
       style="fill:#000000;fill-opacity:0.01176471" />
    <path
       id="path3682"
       d="M 0,14.5 0,14 0.5,14 1,14 1,14.5 1,15 0.5,15 0,15 0,14.5"
       style="fill:#000000;fill-opacity:0.00784314" />
    <path
       id="path3684"
       d="M 2,14.5 2,14 2.5,14 3,14 3,14.5 3,15 2.5,15 2,15 2,14.5"
       style="fill:#000000;fill-opacity:0.09019608" />
    <path
       id="path3686"
       d="M 3,14.5 3,14 3.5,14 4,14 4,14.5 4,15 3.5,15 3,15 3,14.5"
       style="fill:#000000;fill-opacity:0.12156863" />
    <path
       id="path3688"
       d="M 4,14.5 4,14 4.5,14 5,14 5,14.5 5,15 4.5,15 4,15 4,14.5"
       style="fill:#000000;fill-opacity:0.13333333" />
    <path
       id="path3690"
       d="M 5,14.5 5,14 5.5,14 6,14 6,14.5 6,15 5.5,15 5,15 5,14.5"
       style="fill:#000000;fill-opacity:0.14117647" />
    <path
       id="path3692"
       d="M 6,14.5 6,14 6.5,14 q 0.5,0 1,0 0.5,0 1,0 0.5,0 1,0 0.5,0 1,0 0.5,0 1,0 l 0.5,0 0,0.5 0,0.5 -0.5,0 -0.5,0 -0.5,0 -0.5,0 -0.5,0 Q 9,15 8.5,15 L 8,15 7.5,15 7,15 6.5,15 6,15 6,14.5"
       style="fill:#000000;fill-opacity:0.14509804" />
    <path
       id="path3694"
       d="m 12,14.5 0,-0.5 0.5,0 0.5,0 0,0.5 0,0.5 -0.5,0 -0.5,0 0,-0.5"
       style="fill:#000000;fill-opacity:0.14117647" />
    <path
       id="path3696"
       d="m 13,14.5 0,-0.5 0.5,0 0.5,0 0,0.5 0,0.5 -0.5,0 -0.5,0 0,-0.5"
       style="fill:#000000;fill-opacity:0.13333333" />
    <path
       id="path3698"
       d="m 14,14.5 0,-0.5 0.5,0 0.5,0 0,0.5 0,0.5 -0.5,0 -0.5,0 0,-0.5"
       style="fill:#000000;fill-opacity:0.11764706" />
    <path
       id="path3700"
       d="m 15,14.5 0,-0.5 0.5,0 0.5,0 0,0.5 0,0.5 -0.5,0 -0.5,0 0,-0.5"
       style="fill:#000000;fill-opacity:0.09019608" />
    <path
       id="path3702"
       d="m 16,14.5 0,-0.5 0.5,0 0.5,0 0,0.5 0,0.5 -0.5,0 -0.5,0 0,-0.5"
       style="fill:#000000;fill-opacity:0.04313725" />
    <path
       id="path3704"
       d="m 17,14.5 0,-0.5 0.5,0 0.5,0 0,0.5 0,0.5 -0.5,0 -0.5,0 0,-0.5"
       style="fill:#000000;fill-opacity:0.00392157" />
    <path
       id="path3706"
       d="M 0,15.5 0,15 0.5,15 1,15 1.5,15 2,15 2,15.5 2,16 1.5,16 1,16 0.5,16 0,16 0,15.5"
       style="fill:#000000;fill-opacity:0" />
    <path
       id="path3708"
       d="M 2,15.5 2,15 2.5,15 3,15 3,15.5 3,16 2.5,16 2,16 2,15.5"
       style="fill:#000000;fill-opacity:0.00392157" />
    <path
       id="path3710"
       d="M 3,15.5 3,15 3.5,15 4,15 4,15.5 4,16 3.5,16 3,16 3,15.5"
       style="fill:#000000;fill-opacity:0.01568627" />
    <path
       id="path3712"
       d="M 4,15.5 4,15 4.5,15 5,15 5,15.5 5,16 4.5,16 4,16 4,15.5"
       style="fill:#000000;fill-opacity:0.03137255" />
    <path
       id="path3714"
       d="M 5,15.5 5,15 5.5,15 6,15 6,15.5 6,16 5.5,16 5,16 5,15.5"
       style="fill:#000000;fill-opacity:0.05098039" />
    <path
       id="path3716"
       d="M 6,15.5 6,15 6.5,15 7,15 7,15.5 7,16 6.5,16 6,16 6,15.5"
       style="fill:#000000;fill-opacity:0.06666667" />
    <path
       id="path3718"
       d="M 7,15.5 7,15 7.5,15 8,15 8,15.5 8,16 7.5,16 7,16 7,15.5"
       style="fill:#000000;fill-opacity:0.0745098" />
    <path
       id="path3720"
       d="M 8,15.5 8,15 8.5,15 q 0.5,0 1,0 L 10,15 10,15.5 10,16 9.5,16 9,16 8.5,16 8,16 8,15.5"
       style="fill:#000000;fill-opacity:0.08235294" />
    <path
       id="path3722"
       d="m 10,15.5 0,-0.5 0.5,0 0.5,0 0,0.5 0,0.5 -0.5,0 -0.5,0 0,-0.5"
       style="fill:#000000;fill-opacity:0.0745098" />
    <path
       id="path3724"
       d="m 11,15.5 0,-0.5 0.5,0 0.5,0 0,0.5 0,0.5 -0.5,0 -0.5,0 0,-0.5"
       style="fill:#000000;fill-opacity:0.06666667" />
    <path
       id="path3726"
       d="m 12,15.5 0,-0.5 0.5,0 0.5,0 0,0.5 0,0.5 -0.5,0 -0.5,0 0,-0.5"
       style="fill:#000000;fill-opacity:0.05098039" />
    <path
       id="path3728"
       d="m 13,15.5 0,-0.5 0.5,0 0.5,0 0,0.5 0,0.5 -0.5,0 -0.5,0 0,-0.5"
       style="fill:#000000;fill-opacity:0.03137255" />
    <path
       id="path3730"
       d="m 14,15.5 0,-0.5 0.5,0 0.5,0 0,0.5 0,0.5 -0.5,0 -0.5,0 0,-0.5"
       style="fill:#000000;fill-opacity:0.01568627" />
    <path
       id="path3732"
       d="m 15,15.5 0,-0.5 0.5,0 0.5,0 0,0.5 0,0.5 -0.5,0 -0.5,0 0,-0.5"
       style="fill:#000000;fill-opacity:0.00392157" />
    <path
       id="path3734"
       d="m 16,15.5 0,-0.5 0.5,0 0.5,0 0.5,0 0.5,0 0,0.5 0,0.5 -0.5,0 -0.5,0 -0.5,0 -0.5,0 0,-0.5"
       style="fill:#000000;fill-opacity:0" />
  </g>
</svg>
