<?xml version="1.0" encoding="UTF-8" standalone="no"?>
<!-- Created with Inkscape (http://www.inkscape.org/) -->

<svg
   xmlns:dc="http://purl.org/dc/elements/1.1/"
   xmlns:cc="http://creativecommons.org/ns#"
   xmlns:rdf="http://www.w3.org/1999/02/22-rdf-syntax-ns#"
   xmlns:svg="http://www.w3.org/2000/svg"
   xmlns="http://www.w3.org/2000/svg"
   xmlns:sodipodi="http://sodipodi.sourceforge.net/DTD/sodipodi-0.dtd"
   xmlns:inkscape="http://www.inkscape.org/namespaces/inkscape"
   id="svg2"
   version="1.1"
   inkscape:version="0.91 r13725"
   width="16.875"
   height="16.875"
   viewBox="0 0 16.875 16.875"
   sodipodi:docname="problem_verifying.svg">
  <metadata
     id="metadata8">
    <rdf:RDF>
      <cc:Work
         rdf:about="">
        <dc:format>image/svg+xml</dc:format>
        <dc:type
           rdf:resource="http://purl.org/dc/dcmitype/StillImage" />
        <dc:title></dc:title>
      </cc:Work>
    </rdf:RDF>
  </metadata>
  <defs
     id="defs6" />
  <sodipodi:namedview
     pagecolor="#ffffff"
     bordercolor="#666666"
     borderopacity="1"
     objecttolerance="10"
     gridtolerance="10"
     guidetolerance="10"
     inkscape:pageopacity="0"
     inkscape:pageshadow="2"
     inkscape:window-width="1440"
     inkscape:window-height="851"
     id="namedview4"
     showgrid="false"
     inkscape:zoom="19.778039"
     inkscape:cx="8.4375"
     inkscape:cy="8.4375"
     inkscape:window-x="0"
     inkscape:window-y="1"
     inkscape:window-maximized="1"
     inkscape:current-layer="svg2" />
  <path
     inkscape:connector-curvature="0"
     id="path3352"
     d="M 2.4441453,14.645368 C 0.80353295,13.004755 0.14300888,11.315467 0.14300888,8.7602175 c 0,-4.1413234 2.36321332,-8.1242248 4.36471172,-7.3561778 0.7576053,0.2907204 1.1045176,0.1113757 0.7849015,-0.40577397 -0.3420042,-0.5533745 0.9826669,-0.9267615 3.2878868,-0.9267615 2.3052201,0 3.6298911,0.373387 3.2878871,0.9267615 -0.319617,0.51714967 0.0273,0.69649437 0.784901,0.40577397 2.001499,-0.768047 4.364712,3.2148544 4.364712,7.3561778 0,5.0114835 -3.272229,8.1862865 -8.4375001,8.1862865 -2.8219697,0 -4.4431818,-0.607955 -6.1363636,-2.301136 z m 5.5181158,-0.745739 c 0.3575492,-0.88118 0.7173528,-0.823041 1.4504713,0.234375 0.8498236,1.225747 1.1899076,1.178579 2.6494976,-0.367473 1.610617,-1.706025 1.60685,-1.749933 -0.0987,-1.150414 -1.461949,0.513892 -1.576713,0.386525 -0.653765,-0.72556 0.902807,-1.087816 0.747031,-1.467074 -0.804897,-1.9596372 -1.0583976,-0.3359222 -2.7903206,-0.3359222 -3.8487181,0 C 5.104222,10.423483 4.9484462,10.802741 5.8512533,11.890557 6.7757977,13.004565 6.6619656,13.12351 5.1974872,12.573686 3.6310481,11.985583 3.5743066,12.092409 4.7109258,13.489725 c 1.5286644,1.879282 2.6002981,2.014385 3.2513353,0.409904 z"
     style="fill:#e6e7e7" />
  <path
     inkscape:connector-curvature="0"
     id="path3350"
     d="M 2.5691624,14.429476 C 0.5217184,12.382032 0.1043368,11.201437 0.3319465,8.1013509 0.4875097,5.982551 1.0974326,4.2902542 1.7055089,4.2902542 c 1.4015393,0 2.65625,-1.2547107 2.65625,-2.65625 0,-0.6712963 1.6294642,-1.09375 4.21875,-1.09375 2.5892861,0 4.2187501,0.4224537 4.2187501,1.09375 0,1.4015393 1.254711,2.65625 2.65625,2.65625 0.608076,0 1.217999,1.6922968 1.373563,3.8110967 C 17.407727,15.982747 8.2059214,20.066235 2.5691624,14.429476 Z M 13.344283,13.12023 c 1.858704,-1.858704 1.874049,-2.036606 0.323449,-3.7499997 -0.94614,-1.0454731 -1.17438,-1.7987261 -0.545024,-1.7987261 0.595541,0 1.082801,-0.7117416 1.082801,-1.581648 0,-1.2344638 -0.621058,-0.9866365 -2.829321,1.129013 L 8.5468681,9.8295301 6.4543136,7.671413 4.3617589,5.513296 7.2592511,6.1153294 C 9.3834603,6.5566921 10.509361,6.2902514 11.478001,5.116976 12.584419,3.7768169 12.591459,3.446706 11.521303,3.0868115 10.698591,2.8101323 10.59549,2.4393981 11.23188,2.0460872 11.775573,1.7100665 10.52892,1.4351406 8.4615403,1.4351406 c -2.0673797,0 -3.2786395,0.1600776 -2.6916882,0.355728 0.6164865,0.2054955 0.2475528,0.9298201 -0.8735795,1.7150918 -2.0855802,1.4607972 -2.635267,4.0655438 -0.8579628,4.0655438 0.6293559,0 0.4011161,0.753253 -0.545024,1.7987261 -1.5506002,1.7133937 -1.5352556,1.8912957 0.3234492,3.7499997 1.1094656,1.109466 3.1646276,1.951274 4.7637739,1.951274 1.5991461,0 3.6543081,-0.841808 4.7637741,-1.951274 z"
     style="fill:#d0d1d3" />
  <path
     inkscape:connector-curvature="0"
     id="path3348"
     d="M 2.8833935,14.206119 C 0.88271932,12.205446 0.16891236,10.623828 0.23897277,8.3467446 L 0.33493666,5.2277542 1.081188,8.3876778 c 2.2056455,9.3395752 12.792996,9.3395752 14.998642,0 l 0.746251,-3.1599236 0.09597,3.1189904 c 0.128708,4.1832654 -4.155172,8.5997594 -8.3415371,8.5997594 -2.0179656,0 -3.8268058,-0.870075 -5.6971154,-2.740385 z M 6.8930089,8.3215042 C 5.2827962,6.7112915 5.4991539,5.2437905 7.1453401,6.6100037 8.2520449,7.5284872 8.979184,7.3939941 10.846057,5.925512 12.446727,4.6664244 12.867742,3.7962379 12.199539,3.128034 11.531335,2.4598302 11.591723,1.9343491 12.393674,1.4387159 c 0.705148,-0.4358056 0.926213,-0.3346043 0.560759,0.2567115 -0.750926,1.2150239 1.609914,3.3031665 2.659515,2.3523181 0.421943,-0.3822452 0.459445,-0.1607659 0.08334,0.4921761 -0.376109,0.652942 -1.015234,0.9823507 -1.420279,0.732019 C 13.87196,5.0216091 12.561946,5.8584775 11.365865,7.1316482 8.8895755,9.767537 8.4547205,9.8832161 6.8930089,8.3215042 Z M 1.4597356,4.6141525 C 1.0712655,3.9855946 1.2000626,3.7847356 1.7669321,4.1350801 2.981956,4.8860062 5.0700986,2.5251666 4.1192502,1.4755655 3.737005,1.0536213 3.9790847,1.0288517 4.6572052,1.4205218 5.6391909,1.987699 5.5619096,2.4953527 4.2775294,3.9145768 2.3827876,6.0082429 2.3295063,6.021471 1.4597356,4.6141525 Z"
     style="fill:#bfc2c7" />
  <path
     inkscape:connector-curvature="0"
     id="path3346"
     d="M 2.8833935,14.206119 C 1.376182,12.698908 0.16974998,10.695002 0.20243354,9.7529945 0.25354402,8.2798858 0.37378232,8.317263 1.0618237,10.020145 c 1.0113542,2.503069 5.3875719,5.988859 7.5186852,5.988859 2.1311131,0 6.5073311,-3.48579 7.5186851,-5.988859 0.688042,-1.7028821 0.80828,-1.7402592 0.859391,-0.2671505 0.09766,2.8148005 -5.002096,7.1935095 -8.3780761,7.1935095 -2.0179656,0 -3.8268058,-0.870075 -5.6971154,-2.740385 z M 6.8930089,8.3215042 C 5.256718,6.6852133 5.5122598,5.2546675 7.1918441,6.6485986 8.3570557,7.6156383 8.953058,7.5249536 10.473095,6.1493398 c 1.021577,-0.9245156 1.857414,-1.2590623 1.857414,-0.7434373 0,0.915659 -2.9935389,4.0406017 -3.8706945,4.0406017 -0.2429931,0 -0.9480556,-0.50625 -1.5668056,-1.125 z"
     style="fill:#b7bac2" />
  <path
     inkscape:connector-curvature="0"
     id="path3344"
     d="M 2.8833935,14.206119 C 1.376182,12.698908 0.15583755,10.905939 0.17151703,10.221744 0.1871965,9.5375495 0.66403104,9.8215042 1.2311494,10.852754 c 1.5988119,2.907286 4.7705497,5.114558 7.3493595,5.114558 2.5788091,0 5.7505471,-2.207272 7.3493601,-5.114558 0.567118,-1.0312498 1.043953,-1.3152045 1.059632,-0.63101 0.0558,2.435036 -5.308294,6.72476 -8.4089921,6.72476 -2.0179656,0 -3.8268058,-0.870075 -5.6971154,-2.740385 z M 6.9047276,8.333223 C 5.2599627,6.688458 5.5053115,5.2489009 7.1918441,6.6485986 8.3588681,7.6171425 8.9872123,7.5110274 10.675564,6.0602656 L 12.735449,4.2902542 11.280871,6.5826237 C 9.5066468,9.378744 8.3949597,9.8234551 6.9047276,8.333223 Z"
     style="fill:#adafb4" />
  <path
     inkscape:connector-curvature="0"
     id="path3342"
     d="m 6.9398839,16.300261 c 0.9023437,-0.235807 2.3789063,-0.235807 3.2812501,0 0.902344,0.235807 0.164063,0.42874 -1.6406251,0.42874 -1.8046875,0 -2.5429688,-0.192933 -1.640625,-0.42874 z M 2.3976848,13.899629 0.61175888,11.790254 2.7211339,13.57618 c 1.982292,1.67833 2.5361633,2.432824 1.7859259,2.432824 -0.1778971,0 -1.1271159,-0.949219 -2.109375,-2.109375 z m 11.3390742,0.234375 c 0.933268,-1.03125 1.907789,-1.875 2.165602,-1.875 0.257812,0 -0.294834,0.84375 -1.228102,1.875 -0.933268,1.03125 -1.907789,1.875 -2.165602,1.875 -0.257812,0 0.294834,-0.84375 1.228102,-1.875 z M 6.7804072,7.3371292 C 5.5734208,5.3989939 5.5945945,5.333391 7.0412298,6.5290156 8.4021332,7.6537839 8.8906619,7.5902063 10.643092,6.0602656 L 12.670503,4.2902542 10.859881,6.8389184 C 8.6460028,9.9552133 8.4274573,9.981903 6.7804072,7.3371292 Z"
     style="fill:#999ca2" />
  <path
     inkscape:connector-curvature="0"
     id="path3340"
     d="M 7.3810739,8.241147 C 7.1113845,7.5383475 7.611473,7.0357899 8.5805089,7.0357899 c 0.9690356,0 1.4691241,0.5025576 1.1994347,1.2053571 -0.2543963,0.6629465 -0.7941419,1.2053572 -1.1994347,1.2053572 -0.4052928,0 -0.9450385,-0.5424107 -1.199435,-1.2053572 z"
     style="fill:#5a5a5a" />
</svg>
