<?xml version="1.0" encoding="UTF-8" standalone="no"?>
<svg
   xmlns:dc="http://purl.org/dc/elements/1.1/"
   xmlns:cc="http://creativecommons.org/ns#"
   xmlns:rdf="http://www.w3.org/1999/02/22-rdf-syntax-ns#"
   xmlns:svg="http://www.w3.org/2000/svg"
   xmlns="http://www.w3.org/2000/svg"
   xmlns:xlink="http://www.w3.org/1999/xlink"
   xmlns:sodipodi="http://sodipodi.sourceforge.net/DTD/sodipodi-0.dtd"
   xmlns:inkscape="http://www.inkscape.org/namespaces/inkscape"
   viewBox="0 0 128 128.25"
   height="128.25"
   width="128"
   version="1.1"
   id="svg2"
   inkscape:version="0.91 r13725"
   sodipodi:docname="rejudge.svg">
  <sodipodi:namedview
     pagecolor="#ffffff"
     bordercolor="#666666"
     borderopacity="1"
     objecttolerance="10"
     gridtolerance="10"
     guidetolerance="10"
     inkscape:pageopacity="0"
     inkscape:pageshadow="2"
     inkscape:window-width="1440"
     inkscape:window-height="851"
     id="namedview12"
     showgrid="false"
     inkscape:zoom="1.8101934"
     inkscape:cx="57.804828"
     inkscape:cy="49.736649"
     inkscape:window-x="0"
     inkscape:window-y="1"
     inkscape:window-maximized="1"
     inkscape:current-layer="svg2" />
  <metadata
     id="metadata8">
    <rdf:RDF>
      <cc:Work
         rdf:about="">
        <dc:format>image/svg+xml</dc:format>
        <dc:type
           rdf:resource="http://purl.org/dc/dcmitype/StillImage" />
        <dc:title></dc:title>
      </cc:Work>
    </rdf:RDF>
  </metadata>
  <defs
     id="defs6">
    <linearGradient
       inkscape:collect="always"
       id="linearGradient4179">
      <stop
         style="stop-color:#008000;stop-opacity:1;"
         offset="0"
         id="stop4181" />
      <stop
         style="stop-color:#008000;stop-opacity:0;"
         offset="1"
         id="stop4183" />
    </linearGradient>
    <linearGradient
       inkscape:collect="always"
       xlink:href="#linearGradient4179"
       id="linearGradient4185"
       x1="1325.8252"
       y1="2458.052"
       x2="1343.5029"
       y2="-61.015965"
       gradientUnits="userSpaceOnUse"
       gradientTransform="translate(0,-2648)" />
  </defs>
  <g
     id="g4187"
     transform="matrix(0.047295,0,0,0.047295,0.5374747,124.93525)">
    <path
       sodipodi:nodetypes="ccccccccssccccccccccccccccccccccccccccccccccccccccccccccccccccssccccccccccccc"
       inkscape:connector-curvature="0"
       id="rect4157"
       d="M 1014.5984,-2387.0806 C 1051.2843,-2314.6597 1089.9702,-2242.3888 1128.407,-2169.1236 L 1128.5652,-2168.8248 C 1204.1625,-2026.3733 1278.1972,-1883.6606 1353.7117,-1742.3072 1353.7393,-1742.256 1353.7643,-1742.206 1353.7918,-1742.1548 L 1353.8152,-1742.1158 C 1380.4119,-1692.6936 1405.8273,-1643.884 1432.1433,-1596.7974 1478.9553,-1669.057 1524.4543,-1743.2167 1571.0359,-1817.6881 1576.8042,-1829.3718 1586.9139,-1842.8011 1604.8367,-1851.5201 1631.8759,-1864.674 1656.2141,-1857.1004 1666.2039,-1852.9068 1686.1835,-1844.5195 1688.9393,-1842.2975 1673.4461,-1848.7408 1675.5856,-1847.8504 1677.68,-1846.855 1679.7215,-1845.7584 1808.0558,-1776.8604 1915.2589,-1670.3553 1983.5047,-1540.8736 L 1983.5086,-1540.8657 C 2031.3268,-1450.3199 2060.1654,-1349.4218 2065.1785,-1246.106 2065.1963,-1245.7428 2065.2112,-1245.3795 2065.2234,-1245.0161 2066.9462,-1192.85 2066.8478,-1137.0119 2056.1883,-1079.3306 2035.0716,-955.8218 1982.1094,-838.5412 1902.8445,-741.2251 1804.3178,-619.3826 1667.0612,-531.0462 1514.9597,-492.4517 1514.8413,-492.4214 1514.7228,-492.3915 1514.6043,-492.3618 1473.9853,-482.2796 1431.1066,-474.1742 1386.1844,-471.5728 1385.4805,-471.5323 1384.7759,-471.5023 1384.0711,-471.4829 1347.2393,-470.4574 1309.0211,-469.9245 1269.6316,-472.2134 1268.8305,-472.2603 1268.0302,-472.3208 1267.2312,-472.395 1210.2164,-477.667 1153.7568,-489.4608 1099.3094,-507.6997 941.24998,-560.48 804.17038,-667.8457 714.45968,-807.9439 616.02138,-960.6394 577.68818,-1148.6862 609.50068,-1327.8462 627.35368,-1430.4557 668.63818,-1526.8164 725.70778,-1611.5162 713.53528,-1620.6645 700.63038,-1630.3004 687.23318,-1640.981 686.28138,-1641.74 685.34938,-1642.5235 684.43818,-1643.3307 668.54198,-1657.4094 649.74338,-1671.8945 629.62568,-1688.2545 628.07618,-1689.3781 626.80578,-1690.3318 625.48118,-1691.3189 623.03828,-1691.9408 620.63298,-1692.6676 618.29178,-1693.5396 L 621.22728,-1692.1685 C 620.15868,-1692.5453 618.99458,-1693.1623 617.87178,-1693.6705 617.06358,-1693.9777 616.31428,-1694.3807 615.52218,-1694.7193 615.22118,-1694.8745 614.93898,-1694.9876 614.63548,-1695.1509 612.61518,-1696.0533 610.56828,-1696.9123 608.68238,-1698.0318 L 613.94998,-1695.5689 C 602.86438,-1701.7145 590.42998,-1712.9941 582.34248,-1725.3775 551.66778,-1750.0334 520.13648,-1774.2483 488.28388,-1798.3717 400.09778,-1673.7538 338.56238,-1529.7804 311.76828,-1380.0903 311.75088,-1379.9894 311.73338,-1379.8885 311.71558,-1379.7876 301.47058,-1323.9517 296.75728,-1266.7574 296.76828,-1209.0943 296.76808,-1208.757 296.76548,-1208.4197 296.76048,-1208.0825 295.37968,-1110.635 309.40828,-1012.6339 336.38158,-917.9595 L 336.38358,-917.9517 C 388.72538,-734.3192 494.17808,-565.4265 635.67458,-437.022 635.71238,-436.9875 635.75018,-436.953 635.78788,-436.9185 762.00988,-321.8757 917.07888,-238.4982 1082.7195,-197.4614 1082.7977,-197.442 1082.8758,-197.4225 1082.9539,-197.4028 1279.4047,-148.0172 1491.4511,-159.0983 1682.4754,-227.3599 1682.5209,-227.3762 1682.5665,-227.3925 1682.6121,-227.4087 1862.7959,-291.3818 2024.5026,-408.0303 2144.1512,-557.7525 2144.1798,-557.7877 2144.2084,-557.8228 2144.2371,-557.8579 2258.5886,-700.3892 2334.4258,-874.3134 2360.2644,-1054.9849 2378.7104,-1185.1047 2373.2276,-1318.7576 2342.0203,-1445.7095 2342.0059,-1445.7668 2341.9916,-1445.8241 2341.9773,-1445.8814 2301.3107,-1613.1259 2215.2372,-1769.6091 2097.575,-1896.3463 2024.3074,-1974.529 1939.5909,-2042.0864 1846.9324,-2095.0318 1843.361,-2097.0727 1839.9751,-2099.4221 1836.8133,-2102.0533 1841.0511,-2098.5264 1842.9498,-2097.0948 1844.0906,-2096.2935 1842.7733,-2097.2023 1841.1504,-2098.28 1839.0574,-2099.5533 1833.8956,-2102.6934 1825.3549,-2107.9293 1816.323,-2120.1744 1807.2911,-2132.4195 1800.4747,-2153.5566 1801.8836,-2170.9342 1802.7834,-2182.0304 1806.2979,-2192.756 1812.1394,-2202.233 1836.9529,-2242.486 1862.1375,-2281.948 1886.6707,-2321.0923 1893.8549,-2332.9338 1900.7918,-2343.799 1907.4812,-2354.2486 1871.8265,-2356.604 1835.1728,-2358.0797 1797.4597,-2359.9478 1797.4293,-2359.9491 1797.4004,-2359.9504 1797.3699,-2359.9517 1651.4016,-2366.1381 1504.7498,-2370.3077 1357.5594,-2376.2291 L 1358.0222,-2376.2095 C 1242.2439,-2380.1076 1127.8632,-2385.6875 1014.5984,-2387.0806 Z M 573.06128,-1775.3502 C 572.97018,-1775.5104 572.72268,-1774.1732 572.56318,-1771.6959 572.71478,-1772.4597 572.90188,-1773.4233 572.97538,-1773.899 573.10648,-1774.7487 573.11568,-1775.2545 573.06128,-1775.3502 Z"
       style="fill:url(#linearGradient4185);fill-opacity:1;stroke:#2b0000;stroke-width:1;stroke-miterlimit:4;stroke-dasharray:none;stroke-opacity:1" />
    <path
       transform="matrix(0.93821653,0,0,0.93821653,129.9071,-2575.1201)"
       d="M 888.31836,-54.158203 C 868.79753,-53.955249 846.56926,-52.623927 822.31055,-47.03125 763.95679,-34.980159 722.24789,2.8933302 695.75781,44.210938 A 75.15261,75.15261 0 0 0 695.3125,44.916016 C 678.83488,71.255079 663.48211,105.69376 664.23242,147.87305 663.73673,168.58601 664.98024,193.84662 675.25195,221.35352 L 673.76953,216.97852 C 684.64277,252.64623 699.91923,279.23813 709.73828,300.25391 A 75.15261,75.15261 0 0 0 710.54297,301.92188 C 791.06852,463.75081 877.64017,620.61267 959.77344,777.91406 A 75.15261,75.15261 0 0 0 960.00781,778.35742 C 1023.2882,897.60461 1086.3513,1017.2655 1150.3965,1136.6758 A 75.15261,75.15261 0 0 0 1150.7832,1137.3867 C 1170.1016,1172.4918 1190.3553,1208.1158 1212.791,1243.3789 A 75.15261,75.15261 0 0 0 1216.7363,1248.9961 C 1246.0953,1286.9795 1289.0909,1320.7996 1345.918,1330.7891 1403.5732,1341.4598 1466.9075,1329.5568 1515.877,1286.5254 1561.027,1247.6624 1583.6455,1203.2412 1603.875,1173.0293 A 75.15261,75.15261 0 0 0 1604.5469,1172.0098 C 1621.1044,1146.3909 1637.0386,1120.8311 1652.7344,1095.5645 1663.4891,1106.0849 1674.103,1116.964 1684.4648,1128.4043 1741.395,1193.4024 1782.0094,1273.0862 1799.3594,1356.8086 A 75.15261,75.15261 0 0 0 1799.541,1357.6562 C 1806.1554,1387.8188 1809.5354,1418.5397 1809.5449,1449.2695 A 75.15261,75.15261 0 0 0 1809.5762,1451.4004 C 1812.018,1536.5325 1792.1569,1623.0657 1753.3066,1699.4941 A 75.15261,75.15261 0 0 0 1753.1152,1699.873 C 1704.317,1797.2302 1622.9932,1879.5693 1526.166,1929.3379 A 75.15261,75.15261 0 0 0 1525.748,1929.5547 C 1450.1494,1969.0118 1363.8325,1989.428 1278.293,1988.625 A 75.15261,75.15261 0 0 0 1277.8301,1988.623 C 1186.3728,1988.3291 1094.4443,1963.7871 1015.543,1917.877 A 75.15261,75.15261 0 0 0 1015.1777,1917.666 C 914.5485,1859.864 833.22631,1765.6962 790.17773,1657.6875 A 75.15261,75.15261 0 0 0 790.17578,1657.6836 C 770.68039,1608.7796 758.46418,1556.148 754.22852,1503.6191 753.09621,1468.4502 752.9567,1434.6159 755.50195,1402.5723 764.18964,1330.6085 787.34168,1260.4921 824.07617,1199.1543 A 75.15261,75.15261 0 0 0 824.85352,1197.8242 C 836.45521,1177.5191 852.99232,1155.3354 871.07617,1128.8047 A 75.15261,75.15261 0 0 0 871.33398,1128.4238 C 894.18395,1094.456 907.33963,1053.4582 905.59375,1009.9336 904.01637,954.32946 881.75287,895.98637 830.59766,857.08789 781.12097,817.58307 731.05558,782.52999 683.86719,747.49023 A 75.15261,75.15261 0 0 0 683.20312,747.00391 C 617.78937,699.53409 552.51397,649.03476 484.11523,599.97461 413.69274,548.49447 322.83697,552.03158 254.45312,597.27734 L 255.4082,596.65625 C 242.0125,605.23019 216.71831,618.83952 196.03125,650.32031 L 198.8457,646.32617 C 51.119349,842.10401 -44.68276,1077.2919 -69.994141,1322.7109 A 75.15261,75.15261 0 0 0 -70.005859,1322.8184 C -91.710061,1536.2805 -62.691148,1754.5923 16.318359,1954.7168 71.46268,2096.0324 151.05741,2226.9426 248.99219,2341.7871 A 75.15261,75.15261 0 0 0 249.18945,2342.0176 C 346.60771,2455.3219 462.15397,2553.393 591.53711,2629.6328 591.54864,2629.6397 591.56073,2629.6455 591.57227,2629.6523 785.90081,2744.9187 1008.8987,2810.5371 1235.0879,2817.4824 A 75.15261,75.15261 0 0 0 1235.8066,2817.502 C 1294.36,2818.7395 1354.6727,2818.1975 1416.1758,2811.5859 1597.7464,2793.9239 1775.014,2738.7708 1934.6426,2650.7051 2143.7,2535.9774 2321.0352,2366.0289 2444.5898,2162.0781 2561.0425,1971.6987 2628.2256,1752.6585 2639.3672,1529.9844 2648.6904,1351.3722 2622.269,1170.8341 2559.6074,1002.5352 2489.2175,812.25202 2375.1668,639.15908 2228.9512,498.88281 2187.3305,458.56395 2143.1872,421.15208 2097.1758,386.48438 2110.9601,364.9155 2124.976,342.69751 2138.6855,318.97266 A 75.15261,75.15261 0 0 0 2139.8848,316.81836 C 2151.5141,295.07692 2171.2267,263.36145 2176.0117,217.62109 2181.9809,173.47795 2172.2847,130.3691 2151.5332,93.685547 2119.375,35.009543 2061.5631,-1.8190427 1997.4023,-9.6875 L 1999.8145,-9.3515625 C 1949.1432,-17.239346 1902.335,-17.87259 1860.4277,-20.605469 A 75.15261,75.15261 0 0 0 1859.9297,-20.634766 C 1675.7598,-31.420966 1493.0974,-34.20135 1312.5098,-42.466797 A 75.15261,75.15261 0 0 0 1311.8672,-42.494141 C 1214.5337,-46.114957 1116.6148,-50.425881 1018.0449,-53.058594 A 75.15261,75.15261 0 0 0 1017.6387,-53.068359 C 980.57557,-53.857852 943.50544,-54.206819 906.43359,-54.117188 900.67898,-54.170704 894.66219,-54.224159 888.31836,-54.158203 Z M 942.0293,198.72266 C 1062.7528,200.20755 1184.6658,206.15386 1308.0684,210.30859 L 1307.5762,210.28906 C 1464.4594,216.60039 1620.7671,221.04297 1776.3477,227.63672 1776.3802,227.6381 1776.4128,227.63925 1776.4453,227.64062 1816.6418,229.63176 1855.7082,231.20629 1893.7109,233.7168 1886.4008,245.13597 1878.8178,257.00064 1870.9531,269.99609 L 1871.5684,268.99609 C 1845.4078,310.73783 1818.55,352.8179 1792.0898,395.74219 A 75.15261,75.15261 0 0 0 1781.1602,429.10156 C 1779.6586,447.62343 1786.9241,470.15362 1796.5508,483.20508 1806.1774,496.25654 1815.2795,501.83664 1820.7812,505.18359 1823.5261,506.85339 1825.6894,508.30492 1827.1621,509.35156 1826.0117,508.58029 1824.4222,507.54076 1818.3887,502.51953 A 75.15261,75.15261 0 0 0 1829.1758,510.00391 C 1927.9361,566.43583 2018.2299,638.44025 2096.3223,721.77148 2221.7328,856.85449 2313.4757,1023.6426 2356.8203,1201.9004 A 75.15261,75.15261 0 0 0 2356.8652,1202.084 C 2390.1276,1337.3959 2395.9712,1479.8506 2376.3105,1618.5391 2348.7703,1811.1082 2267.9384,1996.485 2146.0566,2148.4023 A 75.15261,75.15261 0 0 0 2145.9668,2148.5156 C 2018.4392,2308.0973 1846.0825,2432.4275 1654.0332,2500.6133 A 75.15261,75.15261 0 0 0 1653.8887,2500.6641 C 1450.2851,2573.4208 1224.2742,2585.2316 1014.8867,2532.5938 A 75.15261,75.15261 0 0 0 1014.6367,2532.5312 C 838.0883,2488.7921 672.80742,2399.9252 538.27344,2277.3066 A 75.15261,75.15261 0 0 0 538.15234,2277.1953 C 387.33804,2140.3351 274.94105,1960.3207 219.15234,1764.5957 L 219.15039,1764.5879 C 190.40079,1663.679 175.45013,1559.224 176.92188,1455.3594 A 75.15261,75.15261 0 0 0 176.92969,1454.2812 C 176.91793,1392.8208 181.94166,1331.8605 192.86133,1272.3477 A 75.15261,75.15261 0 0 0 192.91797,1272.0254 C 221.47645,1112.478 287.06324,959.02336 381.05664,826.19922 415.0067,851.91117 448.6139,877.72051 481.30859,904 489.92864,917.19885 503.18251,929.22123 514.99805,935.77148 L 509.38281,933.14648 C 511.39295,934.33966 513.5752,935.25499 515.72852,936.2168 516.05201,936.39088 516.35295,936.51032 516.67383,936.67578 517.51804,937.03666 518.31626,937.46749 519.17773,937.79492 520.37445,938.33652 521.61495,938.99494 522.75391,939.39648 L 519.625,937.93359 C 522.12039,938.86299 524.68528,939.6379 527.28906,940.30078 528.70084,941.35289 530.0535,942.36882 531.70508,943.56641 553.14751,961.00372 573.18588,976.44339 590.12891,991.44922 A 75.15261,75.15261 0 0 0 593.10742,993.95312 C 607.38694,1005.337 621.14118,1015.6086 634.11523,1025.3594 573.28754,1115.6368 529.28442,1218.3425 510.25586,1327.709 476.34839,1518.6671 517.20625,1719.0969 622.12695,1881.8477 717.74528,2031.1716 863.85049,2145.6073 1032.3184,2201.8633 1090.3513,2221.3033 1150.5294,2233.875 1211.2988,2239.4941 A 75.15261,75.15261 0 0 0 1213.8574,2239.6875 C 1255.8408,2242.1271 1296.5768,2241.5579 1335.834,2240.4648 A 75.15261,75.15261 0 0 0 1338.0859,2240.3691 C 1385.9664,2237.5964 1431.6691,2228.9571 1474.9629,2218.2109 A 75.15261,75.15261 0 0 0 1475.3418,2218.1152 C 1637.4594,2176.9791 1783.7546,2082.827 1888.7695,1952.9609 1973.2541,1849.2363 2029.7037,1724.2319 2052.2109,1592.5898 2063.5724,1531.1101 2063.676,1471.5955 2061.8398,1415.9941 A 75.15261,75.15261 0 0 0 2061.793,1414.832 C 2056.4498,1304.7126 2025.7113,1197.1706 1974.7441,1100.6621 L 1974.7402,1100.6543 C 1902.0003,962.64602 1787.7385,849.12649 1650.9531,775.69141 A 75.15261,75.15261 0 0 0 1644.2637,772.51367 C 1660.7772,779.38123 1657.8402,777.01185 1636.5449,768.07227 1625.8973,763.60248 1599.9565,755.53069 1571.1367,769.55078 1552.0337,778.84393 1541.2575,793.15623 1535.1094,805.60938 1485.4603,884.98483 1436.9649,964.02891 1387.0703,1041.0469 1359.0213,990.85959 1331.9321,938.83686 1303.584,886.16016 L 1303.5605,886.11719 C 1303.5312,886.06266 1303.504,886.00961 1303.4746,885.95508 1222.9873,735.29324 1144.0775,583.18183 1063.502,431.34961 L 1063.334,431.03125 C 1022.366,352.94135 981.13107,275.91265 942.0293,198.72266 Z M 471.41602,850.73633 C 471.47399,850.83825 471.46599,851.3775 471.32617,852.2832 471.2479,852.79026 471.04828,853.81677 470.88672,854.63086 471.05669,851.99043 471.3189,850.56559 471.41602,850.73633 Z"
       id="path4155"
       style="fill:#008000;fill-opacity:1"
       inkscape:original="M 906.61523 21.027344 C 883.65743 20.811986 860.52351 21.081582 838.06055 26.421875 C 804.8089 33.108062 776.99167 56.734646 759.01758 84.769531 C 747.44277 103.27158 738.94815 124.47275 739.36133 146.61328 C 738.80299 162.98059 739.86491 179.57854 745.64844 195.06641 C 753.454 220.67116 766.52763 244.27969 777.81836 268.44531 C 857.39561 428.36849 943.71776 584.80914 1026.3848 743.13281 C 1089.7321 862.50606 1152.7442 982.06892 1216.6172 1101.1582 C 1235.5829 1135.6224 1255.074 1169.8499 1276.1914 1203.041 C 1296.6844 1229.554 1325.6643 1251.0352 1359.2285 1256.8438 C 1396.6139 1263.8601 1437.7148 1255.373 1466.5859 1229.8281 C 1498.2725 1202.6567 1518.5206 1165.4431 1541.4355 1131.2207 C 1572.9486 1082.4615 1602.919 1032.5927 1634.0938 983.71484 C 1636.274 980.77749 1639.9848 986.88207 1642.7148 987.86719 C 1678.5075 1014.3121 1710.7762 1045.4623 1740.5664 1078.3945 C 1806.0435 1152.9819 1852.7678 1244.2126 1872.9414 1341.5605 C 1880.695 1376.918 1884.6783 1413.0228 1884.6895 1449.2461 C 1887.5047 1547.3973 1864.7941 1646.0035 1820.2949 1733.5449 C 1764.21 1845.4396 1671.9104 1938.9167 1560.5176 1996.1719 C 1473.6402 2041.5157 1375.4579 2064.6863 1277.5879 2063.7676 C 1172.9579 2063.4313 1068.4178 2035.5829 977.75 1982.8262 C 861.94082 1916.3047 769.81831 1809.5678 720.37305 1685.5098 C 697.83925 1628.984 683.89362 1568.624 679.17383 1508.0547 C 677.92567 1470.4236 677.61153 1432.5886 680.69141 1395.0293 C 690.44399 1312.5787 716.84635 1231.9456 759.60742 1160.5449 C 774.36782 1134.7114 792.26854 1111.0042 808.98438 1086.4805 C 823.54673 1064.8327 831.62153 1038.8534 830.51562 1012.6953 C 829.63788 976.38862 814.51338 939.22808 785.0625 916.86133 C 737.63354 878.90005 687.83084 844.03086 639.06836 807.82227 C 572.23497 759.32224 506.90371 708.77214 439.79492 660.65625 C 398.19968 630.23362 338.26857 631.92625 295.91797 659.94727 C 282.21345 668.71887 267.95308 677.70485 258.83008 691.58789 C 119.15257 876.69881 28.576929 1099.432 4.7539062 1330.4199 C -15.748139 1532.0588 11.776022 1738.6438 86.263672 1927.252 C 138.21594 2060.4384 213.45943 2184.3091 306.16992 2293.0273 C 398.45353 2400.3597 507.85197 2493.1302 629.875 2565.0039 C 813.24288 2673.7764 1024.2341 2735.8277 1237.3945 2742.373 C 1294.4658 2743.5792 1351.6659 2742.9697 1408.4727 2736.8418 C 1579.8887 2720.2272 1747.6552 2668.0596 1898.4297 2584.8633 C 2095.7981 2476.5646 2263.7884 2315.5607 2380.4102 2122.9941 C 2490.2205 1943.5219 2553.8127 1736.2849 2564.3184 1526.1895 C 2573.1377 1357.5426 2548.1238 1187.0136 2489.1562 1028.6719 C 2422.7862 849.224 2314.906 685.45679 2176.8574 553.03711 C 2121.4796 499.36891 2061.1906 450.82552 1997.5254 407.38867 C 1994.1999 404.74222 2000.517 400.26404 2001.6504 396.80078 C 2025.4545 358.21188 2050.9351 320.63713 2073.623 281.375 C 2085.8579 258.50137 2098.9747 235.00609 2101.4609 208.67578 C 2105.375 181.70191 2099.3839 153.89185 2085.9375 130.29883 C 2066.4323 94.320107 2028.6748 69.855278 1988.2559 64.898438 C 1944.3382 58.061946 1899.8163 57.268416 1855.5371 54.380859 C 1673.5285 43.721239 1491.1863 40.934832 1309.0742 32.599609 C 1211.4013 28.966166 1113.7446 24.670172 1016.0391 22.060547 C 979.56964 21.2837 943.09277 20.939149 906.61523 21.027344 z M 917.63281 123.16406 C 1048.704 124.05209 1179.6121 130.79504 1310.5977 135.20508 C 1466.9227 141.49395 1623.3155 145.93685 1779.627 152.5625 C 1840.3959 155.57932 1901.3019 157.36328 1961.748 164.05273 C 1974.8357 165.54787 1990.8753 168.72123 1996.5098 182.39844 C 2001.1816 190.57931 2000.2177 200.46247 1995.7109 208.48633 C 1978.724 243.69661 1955.4593 275.49586 1935.2422 308.90234 C 1908.8634 350.99232 1882.1075 392.91663 1856.0586 435.17383 C 1855.6127 440.67401 1863.1118 441.97583 1866.457 444.75977 C 1972.0208 505.07919 2068.1475 581.78961 2151.248 670.48438 C 2285.2536 814.77228 2383.2807 992.67683 2429.8379 1184.1465 C 2465.5312 1329.3474 2471.6652 1481.34 2450.7012 1629.1582 C 2421.2115 1835.3829 2335.0435 2032.9259 2204.6699 2195.4277 C 2068.4499 2365.8866 1884.9438 2498.3712 1679.1758 2571.4277 C 1461.4766 2649.2214 1220.8523 2661.8539 996.56641 2605.4707 C 807.62389 2558.661 631.44514 2463.8994 487.6543 2332.8438 C 326.36209 2186.4752 206.61596 1994.755 146.88281 1785.1855 C 116.27093 1677.743 100.20131 1566.0712 101.78516 1454.2949 C 101.77262 1388.7352 107.12467 1323.2297 118.94922 1258.7852 C 151.37333 1077.6418 227.95563 904.84563 338.01953 757.55859 C 346.99386 746.46344 357.30323 732.0047 373.32422 732.80469 C 380.13287 732.48836 386.5828 735.07909 391.5625 739.82812 C 443.23595 778.62777 494.72063 817.75813 544.79297 858.5957 C 548.058 860.88013 542.67454 866.74212 547.73828 868.52734 C 550.53511 870.18748 553.41286 868.01437 554.79688 865.74609 C 563.17003 870.73965 569.7798 878.46113 577.74805 884.16406 C 598.53501 901.10878 619.89646 917.43358 639.95117 935.19531 C 667.22498 956.93839 696.04683 976.65731 722.57031 999.31055 C 729.75219 1009.507 728.98651 1024.1041 720.61719 1033.4297 C 652.57737 1123.6364 603.64753 1229.1393 584.25781 1340.752 C 553.7526 1512.4074 590.88643 1694.7526 685.33594 1841.2148 C 771.52038 1975.8632 904.42618 2079.9335 1056.1191 2130.5879 C 1108.5794 2148.167 1163.1355 2159.5748 1218.2168 2164.668 C 1256.6698 2166.9025 1295.2561 2166.4212 1333.7422 2165.3496 C 1375.319 2162.9419 1416.489 2155.2998 1456.8594 2145.2793 C 1602.817 2108.2436 1735.7519 2022.7128 1830.3926 1905.6465 C 1906.7113 1811.998 1958.0145 1698.3664 1978.2598 1579.293 C 1988.0899 1526.3304 1988.5087 1472.144 1986.7363 1418.4746 C 1981.9564 1319.9642 1954.2891 1222.8244 1908.2676 1135.6992 C 1842.7921 1011.4701 1739.032 908.26756 1615.4082 841.89844 C 1610.3474 839.79378 1603.867 832.21091 1601.6152 840.9707 C 1545.4662 930.65817 1490.4038 1021.1167 1432.293 1109.5078 C 1421.7143 1124.3466 1412.4973 1140.6195 1398.6152 1152.6953 C 1391.1788 1157.6921 1381.3322 1156.0294 1373.1855 1153.7285 C 1360.4444 1147.0738 1354.2661 1132.9068 1346.4844 1121.5332 C 1307.9927 1056.0522 1273.2933 988.43653 1237.3047 921.56836 C 1156.4367 770.19799 1077.4074 617.84945 996.95703 466.25781 C 953.647 383.69864 909.49974 301.53122 867.62891 218.24805 C 858.3866 197.64881 845.06436 178.21433 841.76562 155.45312 C 840.6676 140.36655 853.89783 126.33855 868.76562 125.06445 C 884.55308 122.86223 901.34833 123.29651 917.63281 123.16406 z "
       inkscape:radius="75.145096"
       sodipodi:type="inkscape:offset" />
  </g>
</svg>
