<?xml version="1.0" encoding="UTF-8" standalone="no"?>
<svg
   xmlns:dc="http://purl.org/dc/elements/1.1/"
   xmlns:cc="http://creativecommons.org/ns#"
   xmlns:rdf="http://www.w3.org/1999/02/22-rdf-syntax-ns#"
   xmlns:svg="http://www.w3.org/2000/svg"
   xmlns="http://www.w3.org/2000/svg"
   xmlns:sodipodi="http://sodipodi.sourceforge.net/DTD/sodipodi-0.dtd"
   xmlns:inkscape="http://www.inkscape.org/namespaces/inkscape"
   viewBox="0 0 512 512"
   height="512"
   width="512"
   version="1.1"
   id="svg2"
   inkscape:version="0.91 r13725"
   sodipodi:docname="rejudgeAll.svg">
  <sodipodi:namedview
     pagecolor="#ffffff"
     bordercolor="#666666"
     borderopacity="1"
     objecttolerance="10"
     gridtolerance="10"
     guidetolerance="10"
     inkscape:pageopacity="0"
     inkscape:pageshadow="2"
     inkscape:window-width="1440"
     inkscape:window-height="851"
     id="namedview6"
     showgrid="false"
     inkscape:zoom="0.4609375"
     inkscape:cx="256"
     inkscape:cy="256"
     inkscape:window-x="0"
     inkscape:window-y="1"
     inkscape:window-maximized="1"
     inkscape:current-layer="svg2" />
  <metadata
     id="metadata8">
    <rdf:RDF>
      <cc:Work
         rdf:about="">
        <dc:format>image/svg+xml</dc:format>
        <dc:type
           rdf:resource="http://purl.org/dc/dcmitype/StillImage" />
        <dc:title />
      </cc:Work>
    </rdf:RDF>
  </metadata>
  <defs
     id="defs6" />
  <path
     style="fill:#008000"
     d="m 242.91949,510.30632 c -4.8125,-0.22062 -8.75,-0.83362 -8.75,-1.36219 0,-0.52859 -1.53028,-0.96107 -3.40063,-0.96107 -9.16423,0 -40.78039,-6.9847 -56.09937,-12.39358 -40.2762,-14.22086 -78.972677,-39.81644 -105.233907,-69.60642 -31.60586,-35.85278 -51.71337,-75.71666 -60.7807,-120.5 -1.33631,-6.60001 -2.7318201,-15.2625 -3.1011201,-19.25 -0.36931,-3.98751 -0.98943,-7.25 -1.37806,-7.25 -1.14319,0 -1.91099,-20.86613 -1.28539,-34.93256 0.318,-7.15038 0.89986,-12.80188 1.29301,-12.55891 0.39314,0.24298 1.02975,-3.03454 1.41468,-7.28338 C 6.567703,213.50465 10.634623,194.00054 14.676473,180.66966 39.006053,100.42562 103.61205,35.81961 183.8561,11.49003 c 13.33088,-4.04185 32.83499,-8.10876 43.53855,-9.07847 4.24884,-0.38493 7.52267,-1.02751 7.27518,-1.42796 -0.64484,-1.04338 21.38166,-1.80168 35.47448,-1.22127 6.58615,0.27125 11.77233,0.82082 11.52484,1.22127 -0.24749,0.40045 2.88881,1.03064 6.96955,1.40043 4.08074,0.36979 11.95157,1.53591 17.49072,2.59139 57.2974,10.91791 110.11375,42.08293 147.79025,87.20572 30.1645,36.12614 52.9261,89.0432 56.8296,132.1195 0.3829,4.22533 1.0186,7.68241 1.4127,7.68241 1.0577,0 1.8628,22.9806 1.2547,35.8113 -0.2903,6.12332 -0.8497,10.93433 -1.2432,10.69111 -0.3936,-0.24321 -0.9984,2.80675 -1.3441,6.7777 -0.917,10.53276 -4.3019,27.30566 -8.2573,40.91645 -24.1174,82.99001 -90.216,149.08858 -173.20605,173.206 -13.6108,3.95538 -30.38366,7.34028 -40.91643,8.25727 -3.97095,0.34571 -6.98189,1.01368 -6.69098,1.48437 0.2909,0.4707 -1.67764,0.85581 -4.37454,0.85581 -2.6969,0 -9.58596,0.16299 -15.30902,0.3622 -5.72306,0.1992 -14.34306,0.18168 -19.15556,-0.0389 z m 7.38748,-42.83614 c 3.54677,-1.77267 78.86255,-76.25241 78.86255,-77.98712 0,-0.55543 -16.9875,-17.97661 -37.75003,-38.71373 -28.25523,-28.22068 -38.88183,-38.21173 -42.25,-39.7231 -8.40957,-3.77357 -17.26403,-2.22361 -24.70267,4.32414 -5.7825,5.08996 -8.24693,10.41277 -8.27537,17.87358 -0.0288,7.54301 2.53936,12.88662 9.49422,19.75509 3.0161,2.97864 5.48382,5.75732 5.48382,6.17486 0,1.9671 -19.60882,-3.976 -29.5,-8.94095 -26.01321,-13.05753 -45.19882,-36.35482 -54.14584,-65.74989 -2.57388,-8.45639 -2.73934,-10.14762 -2.73934,-28 0,-17.88971 0.16096,-19.52593 2.75443,-28 4.06889,-13.29494 10.4036,-25.85574 18.15565,-36 7.68945,-10.06233 9.36734,-13.77777 9.43121,-20.88398 0.0636,-7.07258 -1.77164,-12.12487 -6.25391,-17.217 -5.69344,-6.46809 -10.67521,-8.7551 -19.2022,-8.81528 -11.94941,-0.0843 -18.83758,5.11523 -31.05811,23.44431 -17.88992,26.83234 -26.441887,55.12574 -26.441887,87.48054 0,43.54128 15.013057,79.64383 45.953477,110.50633 25.72895,25.66416 55.77259,40.57618 90.66218,44.99974 4.24042,0.53764 7.95095,1.21861 8.24562,1.51329 0.29467,0.29467 -3.58532,4.68393 -8.62221,9.75391 -10.14784,10.21451 -12.23907,14.01082 -12.23907,22.21814 0,11.144 6.68539,19.92133 17.99353,23.62391 3.62681,1.1875 12.24046,0.3142 16.14395,-1.63678 z M 378.01042,362.06422 c 11.89365,-6.0677 30.18255,-34.24526 38.61285,-59.49073 6.0225,-18.03501 7.8712,-31.72441 7.2372,-53.59043 -0.3857,-13.30347 -1.1121,-21.10401 -2.5862,-27.77042 -6.8873,-31.14914 -20.2099,-55.35619 -43.08245,-78.28019 -26.2976,-26.35697 -55.8731,-40.62261 -94.27233,-45.47207 -2.6125,-0.32993 -4.75,-0.91974 -4.75,-1.31068 0,-0.39094 3.87405,-4.52587 8.60899,-9.18873 9.95572,-9.80414 12.33802,-14.09147 12.36905,-22.26004 0.0369,-9.70395 -4.67341,-17.38569 -13.47804,-21.98066 -5.62066,-2.93332 -15.56474,-2.94402 -21,-0.0226 -4.70894,2.53102 -78.92405,76.52469 -78.37376,78.13989 0.20557,0.60339 17.02376,17.8174 37.37376,38.25339 41.24602,41.4203 42.82046,42.65489 53.05047,41.59906 13.57275,-1.40083 22.37897,-10.91155 22.42757,-24.22176 0.0274,-7.50951 -2.17052,-11.94588 -9.76453,-19.70903 -3.07953,-3.14812 -5.38055,-5.94244 -5.11338,-6.20961 0.7519,-0.75191 11.85573,2.05782 19.5087,4.93651 28.8634,10.85702 52.1389,34.83193 62.0233,63.88685 3.6577,10.7519 5.3679,21.79263 5.3679,34.65519 0,23.82389 -7.033,44.38624 -21.8329,63.83258 -7.6336,10.03033 -9.1671,13.41342 -9.1671,20.22418 0,7.59477 1.8433,12.50752 6.7337,17.94683 7.8479,8.72879 20.0353,11.17074 30.1072,6.03247 z"
     id="path3346" />
</svg>
