<?xml version="1.0" encoding="UTF-8" standalone="no"?>
<!-- Generator: Adobe Illustrator 17.1.0, SVG Export Plug-In . SVG Version: 6.00 Build 0)  -->

<svg
   xmlns:dc="http://purl.org/dc/elements/1.1/"
   xmlns:cc="http://creativecommons.org/ns#"
   xmlns:rdf="http://www.w3.org/1999/02/22-rdf-syntax-ns#"
   xmlns:svg="http://www.w3.org/2000/svg"
   xmlns="http://www.w3.org/2000/svg"
   xmlns:sodipodi="http://sodipodi.sourceforge.net/DTD/sodipodi-0.dtd"
   xmlns:inkscape="http://www.inkscape.org/namespaces/inkscape"
   version="1.1"
   id="Capa_1"
   x="0px"
   y="0px"
   viewBox="0 0 369.00101 210"
   xml:space="preserve"
   width="512.0014"
   height="291.38211"
   inkscape:version="0.91 r13725"
   sodipodi:docname="SendIMessage.svg"><metadata
     id="metadata49"><rdf:RDF><cc:Work
         rdf:about=""><dc:format>image/svg+xml</dc:format><dc:type
           rdf:resource="http://purl.org/dc/dcmitype/StillImage" /><dc:title></dc:title></cc:Work></rdf:RDF></metadata><defs
     id="defs47" /><sodipodi:namedview
     pagecolor="#ffffff"
     bordercolor="#666666"
     borderopacity="1"
     objecttolerance="10"
     gridtolerance="10"
     guidetolerance="10"
     inkscape:pageopacity="0"
     inkscape:pageshadow="2"
     inkscape:window-width="1440"
     inkscape:window-height="851"
     id="namedview45"
     showgrid="false"
     fit-margin-top="0"
     fit-margin-left="0"
     fit-margin-right="0"
     fit-margin-bottom="0"
     inkscape:zoom="0.4609375"
     inkscape:cx="-15.186441"
     inkscape:cy="145.69245"
     inkscape:window-x="0"
     inkscape:window-y="1"
     inkscape:window-maximized="1"
     inkscape:current-layer="Capa_1" /><g
     id="g3"
     transform="translate(0,-79.501)"><path
       d="m 362.489,121.053 c -2.231,0 -3.905,1.168 -4.52,1.67 l -108.411,95.261 c -2.106,1.896 -4.741,2.898 -7.62,2.898 -2.887,0 -5.62,-1.026 -7.741,-2.932 L 129.083,125.879 c -0.88,-0.834 -2.961,-2.486 -5.605,-2.486 -0.663,0 -6.477,0.227 -6.477,8.069 l 0,141.345 c 0,9.205 7.426,16.694 16.555,16.694 l 219.197,0 c 9.111,0 16.248,-7.333 16.248,-16.694 l 0,-143.533 c -10e-4,-7.99 -5.846,-8.221 -6.512,-8.221 z"
       id="path5"
       inkscape:connector-curvature="0"
       style="fill:#006df0" /><path
       d="m 126.985,92.471 105.779,91.261 c 0.979,0.942 4.235,3.666 9.171,3.666 4.717,0 8.056,-2.702 8.68,-3.245 l 107.028,-93.376 0.134,-0.121 c 1.456,-1.366 4.485,-4.208 3.043,-7.855 -0.794,-2.005 -2.734,-3.3 -4.945,-3.3 l -225.444,0 c -2.709,0 -5.115,1.539 -6.132,3.921 -0.688,1.614 -1.277,4.914 2.522,8.878 l 0.164,0.171 z"
       id="path7"
       inkscape:connector-curvature="0"
       style="fill:#006df0" /><path
       d="m 80,134.5 -30,0 c -5.514,0 -10,4.486 -10,10 l 0,7 c 0,5.514 4.486,10 10,10 l 30,0 c 5.514,0 10,-4.486 10,-10 l 0,-7 c 0,-5.514 -4.486,-10 -10,-10 z"
       id="path9"
       inkscape:connector-curvature="0"
       style="fill:#006df0" /><path
       d="m 80,178.5 -50,0 c -5.514,0 -10,4.486 -10,10 l 0,7 c 0,5.514 4.486,10 10,10 l 50,0 c 5.514,0 10,-4.486 10,-10 l 0,-7 c 0,-5.514 -4.486,-10 -10,-10 z"
       id="path11"
       inkscape:connector-curvature="0"
       style="fill:#006df0" /><path
       d="m 80,222.5 -70,0 c -5.514,0 -10,4.486 -10,10 l 0,7 c 0,5.514 4.486,10 10,10 l 70,0 c 5.514,0 10,-4.486 10,-10 l 0,-7 c 0,-5.514 -4.486,-10 -10,-10 z"
       id="path13"
       inkscape:connector-curvature="0"
       style="fill:#006df0" /></g><g
     id="g15"
     transform="translate(0,-79.501)" /><g
     id="g17"
     transform="translate(0,-79.501)" /><g
     id="g19"
     transform="translate(0,-79.501)" /><g
     id="g21"
     transform="translate(0,-79.501)" /><g
     id="g23"
     transform="translate(0,-79.501)" /><g
     id="g25"
     transform="translate(0,-79.501)" /><g
     id="g27"
     transform="translate(0,-79.501)" /><g
     id="g29"
     transform="translate(0,-79.501)" /><g
     id="g31"
     transform="translate(0,-79.501)" /><g
     id="g33"
     transform="translate(0,-79.501)" /><g
     id="g35"
     transform="translate(0,-79.501)" /><g
     id="g37"
     transform="translate(0,-79.501)" /><g
     id="g39"
     transform="translate(0,-79.501)" /><g
     id="g41"
     transform="translate(0,-79.501)" /><g
     id="g43"
     transform="translate(0,-79.501)" /></svg>