<?xml version="1.0" encoding="UTF-8" standalone="no"?>
<svg
   xmlns:dc="http://purl.org/dc/elements/1.1/"
   xmlns:cc="http://creativecommons.org/ns#"
   xmlns:rdf="http://www.w3.org/1999/02/22-rdf-syntax-ns#"
   xmlns:svg="http://www.w3.org/2000/svg"
   xmlns="http://www.w3.org/2000/svg"
   viewBox="0 0 128 128"
   height="128"
   width="128"
   version="1.1"
   id="svg2">
  <metadata
     id="metadata8">
    <rdf:RDF>
      <cc:Work
         rdf:about="">
        <dc:format>image/svg+xml</dc:format>
        <dc:type
           rdf:resource="http://purl.org/dc/dcmitype/StillImage" />
        <dc:title></dc:title>
      </cc:Work>
    </rdf:RDF>
  </metadata>
  <defs
     id="defs6" />
  <path
     style="fill:#f3f3f3"
     d="M 42.444959,125.67192 C 23.401031,118.84093 8.737097,103.70068 2.764311,84.702353 0.916785,78.825716 0.5,75.199162 0.5,65 0.5,53.923584 0.81822,51.57341 3.29418,44.36393 6.385024,35.364038 13.683616,23.955196 20.039808,18.187896 33.975785,5.5430649 55.31043,-0.96385656 73.104575,2.0035035 100.8067,6.6231234 121.6553,26.481724 126.64336,53 c 5.9404,31.58122 -11.15751,61.72333 -41.1973,72.62718 -5.85306,2.12455 -8.1279,2.36465 -21.741549,2.29474 -12.951671,-0.0665 -16.101681,-0.39989 -21.259552,-2.25 z M 72.5,120.01386 c 7.51672,-1.22092 18.77895,-5.3125 16.0879,-5.84476 -1.05166,-0.208 -4.87666,0.45059 -8.5,1.46355 -8.801553,2.46058 -24.337269,2.45119 -32.714368,-0.0198 -8.538433,-2.51856 -11.491561,-1.63358 -4.026845,1.20674 10.054335,3.82567 19.138197,4.82096 29.153313,3.19424 z M 57.5,92 C 57.160081,91.45 56.346024,91.006891 55.690983,91.015313 54.975367,91.024514 55.098708,91.41754 56,92 c 1.921123,1.241525 2.267305,1.241525 1.5,0 z m 43.23203,-50 c 0.94185,-1.1 2.71508,-2 3.94052,-2 1.22544,0 2.6855,-0.7875 3.24457,-1.75 0.9214,-1.586271 1.25995,-1.469322 3.61852,1.25 l 2.60201,3 -2.81882,-5.491591 C 109.76847,33.988034 105.31836,28.299091 101.4297,24.366314 90.36134,13.172408 80.03386,9 63.395236,9 43.889647,9 29.850441,16.90128 17.75,34.689187 c -4.549977,6.688564 -5.030222,9.378186 -0.576808,3.230426 1.745255,-2.409255 3.357755,-3.826772 3.583333,-3.150038 C 20.982103,35.446309 21.920921,36 22.842787,36 c 0.921865,0 2.238179,0.9 2.92514,2 0.686961,1.1 1.997274,2 2.911806,2 0.914532,0 2.469739,0.730283 3.456015,1.62285 1.674709,1.515591 2.11869,1.350359 6.717521,-2.5 5.631712,-4.715135 6.661093,-4.927712 9.760798,-2.015689 1.831242,1.720362 2.760892,1.935468 5.064451,1.171831 C 55.988867,37.513105 56.590579,36.633193 57,33.421832 L 57.5,29.5 l 7,0 7,0 0.5,3.921832 c 0.409421,3.211361 1.011133,4.091273 3.32148,4.85716 2.30356,0.763637 3.23321,0.548531 5.06445,-1.171831 C 81.61957,35.948222 83.20878,35 83.91752,35 c 0.70874,0 3.54091,2.025 6.2937,4.5 5.50209,4.946849 7.93147,5.524129 10.52081,2.5 z"
     id="path3352" />
  <path
     style="fill:#e8e8e8"
     d="M 51,126.0988 C 28.485671,120.95576 9.967578,103.426 3.886685,81.5 2.071149,74.953684 2.07783,56.00994 3.89797,49.5 10.925741,24.364371 30.618054,7.2815107 56.322234,4.0225385 75.34035,1.6112764 93.63953,7.9431097 107.31269,21.666116 c 7.84309,7.871681 12.08594,14.517552 15.28534,23.942492 2.30435,6.788266 2.67442,9.49896 2.64739,19.391392 -0.0525,19.198819 -4.79192,30.68783 -18.17689,44.06299 C 94.45001,121.67225 84.33808,125.97618 66,126.54292 c -6.325,0.19547 -13.075,-0.004 -15,-0.44412 z m 24.5,-6.6032 c 9.65923,-2.02798 20.25819,-7.49338 27.1255,-13.98739 3.17059,-2.99824 5.48389,-5.732153 5.14067,-6.075373 -0.34322,-0.343219 -3.33026,1.628103 -6.63786,4.380723 -10.4392,8.68759 -24.77483,14.15171 -37.12831,14.15171 -12.385854,0 -28.647822,-6.24677 -37.887169,-14.55373 -2.803724,-2.52079 -5.60194,-4.41517 -6.218257,-4.209731 -2.110508,0.703502 11.090684,11.681661 18.35113,15.260861 12.477959,6.1513 24.312472,7.7501 37.254296,5.03293 z M 72.345492,100.25 C 72.600431,99.8375 69.476988,99.5 65.404508,99.5 61.332029,99.5 58,99.8375 58,100.25 c 0,0.4125 3.123442,0.75 6.940983,0.75 3.817541,0 7.149569,-0.3375 7.404509,-0.75 z M 41.17451,89.570882 C 38.067226,86.584867 35.32143,84.345237 35.072741,84.593926 34.388655,85.278012 44.246721,95 45.624467,95 46.284275,95 44.281795,92.556897 41.17451,89.570882 Z M 87.59501,92.75 89.5,90.5 87,92.489343 c -1.375,1.094139 -2.6875,2.106639 -2.91667,2.25 C 83.85417,94.882704 84.12192,95 84.67835,95 c 0.55642,0 1.86892,-1.0125 2.91666,-2.25 z M 57.433333,92.054096 C 56.92,91.552182 55.15,90.86582 53.5,90.528848 c -2.983124,-0.609231 -2.980311,-0.602209 0.5,1.248308 3.499216,1.860569 5.192701,1.997169 3.433333,0.27694 z M 77,91.422849 79.5,89.91657 77,90.570679 c -1.375,0.359761 -2.9275,1.053533 -3.45,1.541716 -1.527462,1.42714 0.66379,0.989178 3.45,-0.689546 z M 39.013282,75.032065 c -0.977238,-2.359262 -1.839216,-3.001847 -3.884602,-2.895883 -2.210241,0.114504 -2.286092,0.203126 -0.476501,0.556732 1.216506,0.237714 2.687982,1.714094 3.384602,3.395883 0.677833,1.636433 1.457423,2.750332 1.732423,2.475332 0.275,-0.275 -0.06517,-1.864429 -0.755922,-3.532064 z m 30.268837,1.596814 C 75.03612,74.17713 77.5,70.540659 77.5,64.5 c 0,-4.314643 -0.47961,-5.852165 -2.5,-8.01445 -5.1533,-5.515223 -9.772195,-6.636548 -15.716931,-3.815585 -7.363913,3.494405 -9.686625,13.32012 -4.582646,19.385855 2.565254,3.048631 7.296857,5.82002 10.081696,5.905038 0.705165,0.02153 2.730165,-0.577863 4.5,-1.331979 z M 117.76232,57.726003 c -0.42295,-11.48016 -0.67242,-12.723189 -3.85726,-19.219243 -2.27062,-4.631345 -5.72099,-9.287637 -10.3564,-13.976003 -3.82324,-3.866917 -6.86614,-7.352062 -6.762,-7.744769 0.10414,-0.392706 -0.49866,-0.45 -1.33955,-0.127319 -0.94132,0.361219 -1.4171,0.08978 -1.238,-0.706288 C 94.58487,14.282153 85.17234,9.5404071 77.52948,7.5496954 69.959158,5.5778758 58.121727,5.565598 50.460099,7.5216189 44.030415,9.1631232 31.914484,14.666856 32.22762,15.803829 32.333074,16.186723 29.017467,19.875 24.859604,24 c -5.736717,5.691374 -8.461749,9.379291 -11.300152,15.293036 -2.057221,4.286169 -3.534379,8.336169 -3.282575,9 0.251804,0.66383 0.04313,4.286237 -0.463712,8.049793 -0.767001,5.695331 -0.651231,7.255369 0.690371,9.302912 l 1.611908,2.460082 3.565367,-3.130433 c 5.819285,-5.1094 7.917823,-5.701082 10.757721,-3.033136 l 2.418749,2.272297 0.32136,-3.357276 c 0.285127,-2.978755 0.688615,-3.392667 3.578727,-3.671183 2.453941,-0.236483 3.644874,-1.063261 4.828449,-3.352044 1.478792,-2.859669 1.448988,-3.168097 -0.507368,-5.250543 C 35.935302,47.366681 35,45.933184 35,45.397957 35,44.86273 37.219568,42.238624 39.932373,39.56661 l 4.932373,-4.858206 3.049329,2.565841 c 2.707763,2.278433 3.387417,2.438226 6.067627,1.42656 C 56.606322,37.710122 57,37.068398 57,33.780762 L 57,30 l 7.5,0 7.5,0 0,3.780762 c 0,3.271665 0.398801,3.931293 2.96166,4.898664 2.37588,0.896795 3.2002,0.830466 4.16775,-0.335359 3.34683,-4.032677 4.86991,-3.77642 10.47911,1.763101 l 5.37124,5.304522 -2.51713,2.627319 c -2.3823,2.486579 -2.4365,2.783568 -1.01192,5.544155 1.15578,2.239705 2.38087,3.032909 5.27725,3.416836 3.71452,0.492376 3.77671,0.573063 4.07852,5.291368 l 0.30648,4.791369 3.02025,-2.541369 c 1.66113,-1.397752 3.32321,-2.527939 3.69352,-2.511526 0.3703,0.01641 2.69827,1.802984 5.17327,3.970158 2.475,2.167174 4.66076,3.953745 4.85725,3.970158 0.19649,0.01641 0.15377,-5.493457 -0.0949,-12.244155 z"
     id="path3350" />
  <path
     style="fill:#d3d3d3"
     d="M 51,123.50817 C 28.396918,118.39874 10.35079,99.832787 5.591978,76.792158 3.477221,66.553189 3.584504,58.9445 5.975445,49.596011 8.84496,38.376313 13.308804,30.608573 21.690224,22.25 31.148117,12.817889 32.608853,12.829705 23.507672,22.2647 12.228718,33.957349 7,46.873797 7,63.043432 c 0,4.742779 0.277055,8.900289 0.615677,9.238912 0.338623,0.338622 0.757227,2.513564 0.930232,4.833204 0.892068,11.960774 16.044485,31.294232 29.55454,37.709592 17.84186,8.47235 35.35619,8.04222 53.922031,-1.32428 7.55913,-3.81359 18.64582,-15.336011 22.63276,-23.522292 4.17853,-8.57963 5.91037,-15.010968 4.30874,-16.000829 -0.90699,-0.560549 -0.89206,-0.835045 0.0627,-1.1533 2.13787,-0.712622 1.84117,-20.179381 -0.40884,-26.824439 -3.24516,-9.584074 -7.91707,-17.284027 -14.66602,-24.171637 -6.81738,-6.957435 -6.47515,-7.59649 0.74019,-1.382204 6.00141,5.168777 13.16842,16.48308 16.0823,25.388548 3.11164,9.509891 3.4898,24.127223 0.88067,34.04094 C 116.35574,100.0107 100.39717,116.54757 80.5,122.52198 c -7.496201,2.25083 -21.791386,2.72873 -29.5,0.98619 z m -1.72549,-8.04721 C 41.19066,113.28367 32.764612,108.59142 26.869944,102.98443 L 21.5,97.87655 l 5.621322,4.42522 C 38.153146,110.98625 49.810037,115 64,115 c 13.95184,0 24.34052,-3.60913 36.5,-12.68048 l 6,-4.476177 -5.33617,4.984927 c -6.34381,5.92625 -14.62268,10.53526 -22.70538,12.64054 -7.266977,1.8928 -22.142015,1.8888 -29.18394,-0.008 z M 58.707624,99.37429 C 58.318431,98.985097 58,97.178223 58,95.359013 58,92.729504 57.412314,91.747456 55.133556,90.569065 52.434651,89.173406 52.132222,89.230353 49.959242,91.543385 48.689914,92.894523 47.150397,94 46.538094,94 45.221411,94 36,84.838265 36,83.530102 c 0,-0.49566 0.961891,-1.925086 2.137536,-3.176502 1.894963,-2.017096 1.997239,-2.614011 0.901245,-5.259974 -1.007863,-2.433198 -1.910925,-3.040928 -4.887536,-3.289148 L 30.5,71.5 l 0,-7 0,-7 3.257368,-0.313908 c 2.384607,-0.229801 3.645671,-1.064804 4.706615,-3.116444 1.354509,-2.619331 1.288657,-2.953403 -1.007368,-5.110406 C 36.105477,47.689914 35,46.116392 35,45.462528 c 0,-0.653864 2.284941,-3.326139 5.077646,-5.938388 l 5.077646,-4.749543 2.717224,2.603265 c 2.470865,2.367239 3.003432,2.495234 5.87397,1.411727 2.619017,-0.988569 3.207574,-1.796089 3.45513,-4.740564 L 57.5,30.5 l 7,0 7,0 0.298384,3.549025 c 0.247556,2.944475 0.836113,3.751995 3.455126,4.740564 2.87054,1.083507 3.40311,0.955512 5.87397,-1.411727 l 2.71723,-2.603265 5.07764,4.749543 C 91.71506,42.136389 94,44.808664 94,45.462528 c 0,0.653864 -1.08215,2.205474 -2.40479,3.448022 -2.31775,2.17742 -2.34519,2.36301 -0.75809,5.12837 1.242,2.164055 2.50885,2.941924 5.15479,3.165136 L 99.5,57.5 l 0,7 0,7 -3.67159,0.305691 c -3.09427,0.257623 -3.84261,0.796284 -4.75923,3.425717 -0.92881,2.664382 -0.79422,3.432366 0.92158,5.258761 C 93.09584,81.666472 94,83.257866 94,84.0266 94,85.613067 86.10051,94 84.60624,94 84.06871,94 82.61957,93.051778 81.38593,91.892839 79.55469,90.172477 78.62504,89.957371 76.32148,90.721008 74.01113,91.486895 73.409421,92.366807 73,95.578168 L 72.5,99.5 65.957624,99.790957 c -3.598307,0.160026 -6.860807,-0.02747 -7.25,-0.416667 z M 70.59131,75.955798 C 77.79376,72.469153 80.20164,63.562773 75.7341,56.933395 71.293366,50.343793 61.970377,49.374161 55.8273,54.863 c -2.465424,2.202856 -3.181133,3.764008 -3.567094,7.780787 -0.647458,6.738217 1.548378,10.91224 7.056111,13.412834 5.286643,2.400216 6.124004,2.392728 11.274993,-0.100823 z"
     id="path3348" />
  <path
     style="fill:#adadad"
     d="M 49.788378,121.51493 C 28.944499,116.21919 11.404269,98.545666 6.549157,77.947112 5.71338,74.401201 5.084012,69.025 5.150562,66 c 0.120541,-5.479168 0.123855,-5.47288 0.875044,1.660257 2.696408,25.604535 20.419345,46.243433 44.587674,51.923693 9.181165,2.15784 23.50557,1.43956 32.24475,-1.61687 21.56744,-7.54297 35.91886,-26.268658 39.06134,-50.96708 0.73747,-5.796199 0.83887,-6.012753 0.93646,-2 0.32668,13.432458 -6.40688,29.524357 -16.72228,39.96298 -7.37858,7.46672 -13.17042,11.19475 -23.01398,14.81339 -8.41588,3.09381 -24.661693,3.94119 -33.331192,1.73856 z M 58,95.56949 c 0,-2.861193 -0.535248,-3.794917 -2.866444,-5.000425 -2.698905,-1.395659 -3.001334,-1.338712 -5.174314,0.97432 C 48.689914,92.894523 47.150397,94 46.538094,94 c -0.612303,0 -3.32367,-2.244137 -6.02526,-4.98697 L 35.600851,84.026059 38.170708,81.26303 C 40.580231,78.672386 40.654893,78.297232 39.367414,75.25 38.190585,72.464655 37.494276,72 34.497132,72 L 31,72 l 0,-7.5 0,-7.5 3.280762,0 c 2.772195,0 3.467902,-0.495789 4.487996,-3.198327 1.059257,-2.80629 0.963554,-3.457711 -0.780762,-5.314451 C 36.894598,47.323354 36,45.931294 36,45.393757 36,44.177237 44.246567,36 45.4734,36 c 0.493734,0 1.904901,0.946218 3.135927,2.102707 1.995029,1.874232 2.626814,1.974464 5.814451,0.922448 C 57.391879,38.045594 58,37.369202 58,35.047448 58,32.714306 58.518672,32.146266 61.125,31.625 62.84375,31.28125 65.76875,31 67.625,31 70.67642,31 71,31.275888 71,33.877555 c 0,3.215852 1.300444,4.65778 5.04935,5.598694 1.8471,0.463592 3.04491,0.07708 4.39939,-1.419606 C 81.47242,36.925489 82.78727,36 83.37064,36 c 0.58336,0 3.20982,2.116842 5.83657,4.704093 l 4.77591,4.704093 -2.57382,2.686489 c -2.49022,2.59923 -2.5216,2.787486 -0.96588,5.795907 C 91.77192,56.459628 92.65184,57 95.50663,57 c 4.04259,0 4.8041,1.691904 4.30567,9.566271 -0.30949,4.889279 -0.3452,4.936472 -3.96354,5.238207 -2.97662,0.24822 -3.87968,0.85595 -4.88754,3.289148 -1.09599,2.645963 -0.99372,3.242878 0.90124,5.259974 C 93.03811,81.605016 94,83.066816 94,83.602043 c 0,0.535227 -2.24414,3.183533 -4.98697,5.885123 l -4.98697,4.911983 -2.76303,-2.630035 C 78.75194,89.378896 78.27204,89.261549 76,90.482186 c -1.66479,0.894397 -2.667042,2.45806 -3,4.68046 L 72.5,98.5 65.25,98.79381 58,99.087619 58,95.56949 Z M 72.621512,75.328425 c 7.730568,-5.065259 6.832528,-18.456671 -1.52763,-22.779876 -6.05124,-3.129219 -13.824406,-0.941841 -17.706215,4.982548 -2.377829,3.629027 -2.243038,10.833304 0.266751,14.257189 4.425941,6.037922 12.776321,7.59649 18.967094,3.540139 z"
     id="path3346" />
  <path
     style="fill:#979797"
     d="M 55.992424,122.03628 C 46.650011,120.81299 34.81358,115.93575 29,110.91397 l -2.5,-2.1595 2.5,1.62293 c 11.653123,7.56488 22.195034,10.74961 35.462733,10.71336 10.670167,-0.0292 21.777737,-3.02047 30.037267,-8.08917 2.90802,-1.7846 3.958,-2.1737 2.50954,-0.92999 -8.59704,7.38177 -26.85959,11.81847 -41.017116,9.96468 z M 58,95.263047 C 58,91.871784 57.634274,91.300429 54.771944,90.22002 51.82568,89.10793 51.3261,89.219355 49.049004,91.496451 l -2.494886,2.494885 -5.266938,-5.201513 -5.266939,-5.201513 2.572142,-2.684737 c 2.48846,-2.597392 2.519829,-2.785899 0.964199,-5.794155 C 38.225496,72.53538 37.35043,72 34.47432,72 L 31,72 l 0,-7.5 0,-7.5 3.402175,0 c 2.922959,0 3.558111,-0.447318 4.509236,-3.175718 0.953909,-2.736387 0.825428,-3.475501 -0.928732,-5.342719 L 35.946887,46.314561 50.723444,45.606936 C 59.400088,45.191425 70.247316,43.940434 77,42.576509 l 11.5,-2.3228 2.25,2.047459 c 2.76226,2.513608 2.80324,3.481038 0.262,6.186054 -1.74431,1.85674 -1.84001,2.508161 -0.78076,5.314451 C 91.29602,56.622604 91.8846,57 95.21924,57 L 99,57 l 0,7.5 0,7.5 -3.37868,0 c -2.82095,0 -3.58648,0.501681 -4.63754,3.039148 -1.12322,2.711692 -1.02854,3.284303 0.87868,5.314452 C 93.03811,81.605016 94,83.066816 94,83.602043 c 0,0.535227 -2.25337,3.192627 -5.00749,5.905333 l -5.00749,4.932192 -2.59444,-2.594444 c -2.27669,-2.276691 -2.94346,-2.462707 -5.44413,-1.51881 -2.291655,0.865004 -2.908112,1.770608 -3.148066,4.624661 L 72.5,98.5 65.25,98.79381 58,99.087619 58,95.263047 Z M 70.510222,76.560176 C 75.08424,74.649027 77.99153,69.726428 77.99626,63.884859 78.00244,56.25484 72.26661,51 63.932013,51 c -3.491856,0 -4.783128,0.615821 -7.966716,3.799409 -6.76669,6.76669 -5.942869,15.691863 1.932586,20.937394 3.923702,2.613424 7.732967,2.862105 12.612339,0.823373 z"
     id="path3344" />
  <path
     style="fill:#505050"
     d="M 58.666667,98.333333 C 58.3,97.966667 58,96.221261 58,94.454654 58,91.819365 57.454314,91.01661 54.960852,89.983784 52.24916,88.860565 51.676549,88.955239 49.6464,90.862464 48.394984,92.038109 46.967134,93 46.4734,93 45.246567,93 37,84.822763 37,83.606243 c 0,-0.537537 0.894598,-1.929597 1.987996,-3.093465 1.734942,-1.846762 1.836651,-2.517083 0.799025,-5.266068 -0.985831,-2.611764 -1.795334,-3.200922 -4.737996,-3.448326 L 31.5,71.5 31.20431,64.75 30.90862,58 l 2.946914,0 c 2.280341,0 3.392161,-0.754638 4.915348,-3.336246 1.803445,-3.056613 2.59836,-3.443999 9.48397,-4.62182 8.651562,-1.479897 31.069928,-0.929374 37.044168,0.909687 2.32277,0.71502 4.22169,2.097115 4.88673,3.556705 0.80437,1.7654 2.02891,2.465968 4.70098,2.68946 L 98.5,57.5 l 0,7 0,7 -3.25737,0.313908 c -2.45594,0.236675 -3.64485,1.063213 -4.83226,3.359418 -1.52381,2.946731 -1.48473,3.139616 1.20489,5.94698 l 2.77979,2.90147 -4.40574,4.489112 c -4.94307,5.036631 -6.3898,5.40095 -9.57281,2.410663 -2.09577,-1.968868 -2.37596,-1.993875 -5.31446,-0.47432 C 72.535692,91.774343 72,92.65134 72,95.52568 L 72,99 65.666667,99 c -3.483334,0 -6.633334,-0.3 -7,-0.666667 z M 70.961364,76.51998 C 82.42847,70.590108 80.46002,54.355136 67.862651,50.963016 58.657428,48.484306 49.04273,58.06548 51.382066,67.386137 c 0.780289,3.108918 5.305899,8.540418 8.036372,9.64501 3.285429,1.329096 8.424323,1.101525 11.542926,-0.511167 z"
     id="path3342" />
  <path
     style="fill:#343434"
     d="M 59,95.200888 C 59,91.749778 58.671683,91.283056 55.415771,90.105703 52.156298,88.927062 51.62947,88.999467 49.60132,90.904815 48.374698,92.057167 46.967134,93 46.4734,93 45.246567,93 37,84.822763 37,83.606243 c 0,-0.537537 0.961891,-2.001227 2.137536,-3.252643 1.894963,-2.017096 1.997239,-2.614011 0.901245,-5.259974 -1.007002,-2.431118 -1.911927,-3.04114 -4.879219,-3.289148 C 32.636068,71.593563 31.414723,70.962243 31.184992,69.75 30.886979,68.177442 31.872138,68 40.900996,68 l 10.047644,0 1.574228,3.044223 c 2.165472,4.18756 7.057622,6.94751 12.32284,6.952039 7.954436,0.0068 13.519752,-5.2906 13.604172,-12.94936 0.0485,-4.400132 0.22194,-4.652257 5.3732,-7.810755 C 89.11966,53.988538 91,53.811131 91,56.559017 91,57.576209 92.18983,58 95.04569,58 l 4.04569,0 -0.29569,6.75 L 98.5,71.5 94.95098,71.798384 c -2.94448,0.247556 -3.752,0.836113 -4.74057,3.45513 -1.08296,2.869081 -0.95526,3.403364 1.40126,5.863046 l 2.5928,2.7063 -4.22959,4.58857 C 87.6486,90.935144 85.26909,93 84.68709,93 84.10509,93 82.6253,92.057167 81.39868,90.904815 79.37053,88.999467 78.8437,88.927062 75.58423,90.105703 72.328317,91.283056 72,91.749778 72,95.200888 L 72,99 65.5,99 59,99 59,95.200888 Z"
     id="path3340" />
</svg>
