<?xml version="1.0" encoding="UTF-8" standalone="no"?>
<svg
   xmlns:dc="http://purl.org/dc/elements/1.1/"
   xmlns:cc="http://creativecommons.org/ns#"
   xmlns:rdf="http://www.w3.org/1999/02/22-rdf-syntax-ns#"
   xmlns:svg="http://www.w3.org/2000/svg"
   xmlns="http://www.w3.org/2000/svg"
   xmlns:sodipodi="http://sodipodi.sourceforge.net/DTD/sodipodi-0.dtd"
   xmlns:inkscape="http://www.inkscape.org/namespaces/inkscape"
   enable-background="new 0 0 64 64"
   height="64px"
   version="1.1"
   viewBox="0 0 64 64"
   width="64px"
   xml:space="preserve"
   id="svg2"
   inkscape:version="0.91 r13725"
   sodipodi:docname="Setting.svg"><metadata
     id="metadata34"><rdf:RDF><cc:Work
         rdf:about=""><dc:format>image/svg+xml</dc:format><dc:type
           rdf:resource="http://purl.org/dc/dcmitype/StillImage" /></cc:Work></rdf:RDF></metadata><defs
     id="defs32" /><sodipodi:namedview
     pagecolor="#ffffff"
     bordercolor="#666666"
     borderopacity="1"
     objecttolerance="10"
     gridtolerance="10"
     guidetolerance="10"
     inkscape:pageopacity="0"
     inkscape:pageshadow="2"
     inkscape:window-width="1440"
     inkscape:window-height="851"
     id="namedview30"
     showgrid="false"
     inkscape:zoom="3.6875"
     inkscape:cx="-1.8983051"
     inkscape:cy="32"
     inkscape:window-x="0"
     inkscape:window-y="1"
     inkscape:window-maximized="1"
     inkscape:current-layer="svg2" /><g
     id="g5"
     style="fill:#0055d4"><circle
       style="fill:#0055d4"
       id="circle7"
       r="32"
       cy="32"
       cx="32" /></g><g
     style="opacity:0.2"
     id="g9"><g
       id="g11"><path
         style="fill:#231f20"
         inkscape:connector-curvature="0"
         id="path13"
         d="m 27.5,34 c 0,2.485 2.015,4.5 4.5,4.5 2.485,0 4.5,-2.015 4.5,-4.5 0,-2.485 -2.015,-4.5 -4.5,-4.5 -2.485,0 -4.5,2.015 -4.5,4.5 z" /></g></g><g
     style="opacity:0.2"
     id="g15"><path
       style="fill:#231f20"
       inkscape:connector-curvature="0"
       id="path17"
       d="m 53.947,32.573 c -0.048,-0.548 -0.511,-1.147 -1.029,-1.331 l -4.127,-1.469 c -0.518,-0.184 -1.09,-0.76 -1.27,-1.28 l -0.653,-1.58 c -0.238,-0.496 -0.24,-1.308 -0.004,-1.805 l 1.875,-3.944 c 0.236,-0.497 0.129,-1.238 -0.238,-1.648 l -2.017,-2.017 c -0.41,-0.367 -1.151,-0.474 -1.648,-0.238 l -3.944,1.875 c -0.497,0.236 -1.309,0.234 -1.805,-0.004 L 37.506,18.48 c -0.519,-0.181 -1.095,-0.753 -1.28,-1.271 l -1.469,-4.127 c -0.184,-0.518 -0.784,-0.981 -1.331,-1.029 0,0 -0.607,-0.053 -1.427,-0.053 -0.82,0 -1.427,0.053 -1.427,0.053 -0.548,0.048 -1.147,0.511 -1.331,1.029 l -1.469,4.127 c -0.184,0.518 -0.76,1.09 -1.28,1.271 l -1.578,0.652 c -0.496,0.238 -1.308,0.24 -1.805,0.004 l -3.947,-1.875 c -0.497,-0.236 -1.238,-0.129 -1.648,0.238 l -2.017,2.017 c -0.367,0.41 -0.474,1.151 -0.238,1.648 l 1.875,3.944 c 0.236,0.497 0.235,1.309 -0.004,1.805 l -0.652,1.581 c -0.181,0.519 -0.753,1.095 -1.271,1.28 l -4.127,1.469 c -0.518,0.184 -0.981,0.784 -1.029,1.331 0,0 -0.053,0.607 -0.053,1.427 0,0.819 0.053,1.427 0.053,1.427 0.048,0.548 0.511,1.147 1.029,1.331 l 4.13,1.469 c 0.518,0.184 1.09,0.76 1.27,1.28 l 0.653,1.58 c 0.238,0.496 0.24,1.308 0.004,1.805 l -1.875,3.944 c -0.236,0.497 -0.129,1.238 0.238,1.648 l 2.018,2.017 c 0.41,0.367 1.151,0.474 1.648,0.238 l 3.944,-1.875 c 0.497,-0.236 1.309,-0.235 1.805,0.004 l 1.581,0.652 c 0.519,0.181 1.095,0.753 1.28,1.271 l 1.469,4.13 c 0.184,0.518 0.784,0.981 1.332,1.028 0,0 0.604,0.052 1.424,0.052 0.82,0 1.427,-0.053 1.427,-0.053 0.548,-0.048 1.147,-0.511 1.331,-1.029 l 1.469,-4.13 c 0.184,-0.518 0.76,-1.09 1.28,-1.27 l 1.58,-0.652 c 0.496,-0.238 1.308,-0.24 1.805,-0.004 l 3.944,1.875 c 0.497,0.236 1.238,0.129 1.648,-0.238 l 2.017,-2.018 c 0.367,-0.41 0.474,-1.151 0.238,-1.648 l -1.875,-3.944 c -0.236,-0.497 -0.235,-1.309 0.004,-1.805 l 0.652,-1.581 c 0.181,-0.519 0.753,-1.095 1.271,-1.28 l 4.13,-1.469 c 0.518,-0.184 0.981,-0.784 1.028,-1.331 0,0 0.052,-0.604 0.052,-1.424 C 54,33.18 53.947,32.573 53.947,32.573 Z M 32,44 c -5.523,0 -10,-4.478 -10,-10 0,-5.523 4.477,-10 10,-10 5.523,0 10,4.477 10,10 0,5.522 -4.477,10 -10,10 z" /></g><g
     id="g19"><g
       id="g21"><path
         style="fill:#4f5d73"
         inkscape:connector-curvature="0"
         id="path23"
         d="m 27.5,32 c 0,2.485 2.015,4.5 4.5,4.5 2.485,0 4.5,-2.015 4.5,-4.5 0,-2.485 -2.015,-4.5 -4.5,-4.5 -2.485,0 -4.5,2.015 -4.5,4.5 z" /></g></g><g
     id="g25"><path
       style="fill:#ffffff"
       inkscape:connector-curvature="0"
       id="path27"
       d="m 53.947,30.573 c -0.048,-0.548 -0.511,-1.147 -1.029,-1.331 l -4.127,-1.469 c -0.518,-0.184 -1.09,-0.76 -1.27,-1.28 l -0.653,-1.58 c -0.238,-0.496 -0.24,-1.308 -0.004,-1.805 l 1.875,-3.944 c 0.236,-0.497 0.129,-1.238 -0.238,-1.648 l -2.017,-2.017 c -0.41,-0.367 -1.151,-0.474 -1.648,-0.238 l -3.944,1.875 c -0.497,0.236 -1.309,0.234 -1.805,-0.004 L 37.506,16.48 c -0.519,-0.181 -1.095,-0.753 -1.28,-1.271 l -1.469,-4.127 c -0.184,-0.518 -0.784,-0.981 -1.331,-1.029 0,0 -0.607,-0.053 -1.427,-0.053 -0.82,0 -1.427,0.053 -1.427,0.053 -0.548,0.048 -1.147,0.511 -1.331,1.029 l -1.469,4.127 c -0.184,0.518 -0.76,1.09 -1.28,1.271 l -1.578,0.652 c -0.496,0.238 -1.308,0.24 -1.805,0.004 l -3.947,-1.875 c -0.497,-0.236 -1.238,-0.129 -1.648,0.238 l -2.017,2.017 c -0.367,0.41 -0.474,1.151 -0.238,1.648 l 1.875,3.944 c 0.236,0.497 0.235,1.309 -0.004,1.805 l -0.652,1.581 c -0.181,0.519 -0.753,1.095 -1.271,1.28 l -4.127,1.469 c -0.518,0.184 -0.981,0.784 -1.029,1.331 0,0 -0.053,0.607 -0.053,1.427 0,0.819 0.053,1.427 0.053,1.427 0.048,0.548 0.511,1.147 1.029,1.331 l 4.13,1.469 c 0.518,0.184 1.09,0.76 1.27,1.28 l 0.653,1.58 c 0.238,0.496 0.24,1.308 0.004,1.805 l -1.875,3.944 c -0.236,0.497 -0.129,1.238 0.238,1.648 l 2.018,2.017 c 0.41,0.367 1.151,0.474 1.648,0.238 l 3.944,-1.875 c 0.497,-0.236 1.309,-0.235 1.805,0.004 l 1.581,0.652 c 0.519,0.181 1.095,0.753 1.28,1.271 l 1.469,4.13 c 0.184,0.518 0.784,0.981 1.332,1.028 0,0 0.604,0.052 1.424,0.052 0.82,0 1.427,-0.053 1.427,-0.053 0.548,-0.048 1.147,-0.511 1.331,-1.029 l 1.469,-4.13 c 0.184,-0.518 0.76,-1.09 1.28,-1.27 l 1.58,-0.652 c 0.496,-0.238 1.308,-0.24 1.805,-0.004 l 3.944,1.875 c 0.497,0.236 1.238,0.129 1.648,-0.238 l 2.017,-2.018 c 0.367,-0.41 0.474,-1.151 0.238,-1.648 l -1.875,-3.944 c -0.236,-0.497 -0.235,-1.309 0.004,-1.805 l 0.652,-1.581 c 0.181,-0.519 0.753,-1.095 1.271,-1.28 l 4.13,-1.469 c 0.518,-0.184 0.981,-0.784 1.028,-1.331 0,0 0.052,-0.604 0.052,-1.424 C 54,31.18 53.947,30.573 53.947,30.573 Z M 32,42 c -5.523,0 -10,-4.478 -10,-10 0,-5.523 4.477,-10 10,-10 5.523,0 10,4.477 10,10 0,5.522 -4.477,10 -10,10 z" /></g><g
     id="Layer_2" /></svg>