<?xml version="1.0" encoding="UTF-8" standalone="no"?>
<svg
   xmlns:dc="http://purl.org/dc/elements/1.1/"
   xmlns:cc="http://creativecommons.org/ns#"
   xmlns:rdf="http://www.w3.org/1999/02/22-rdf-syntax-ns#"
   xmlns:svg="http://www.w3.org/2000/svg"
   xmlns="http://www.w3.org/2000/svg"
   xmlns:xlink="http://www.w3.org/1999/xlink"
   id="svg4112"
   height="615.33331"
   width="521.68268"
   version="1.1">
  <defs
     id="defs3">
    <filter
       id="filter3961"
       color-interpolation-filters="sRGB">
      <feGaussianBlur
         stdDeviation="3.9829738"
         id="feGaussianBlur3963" />
    </filter>
    <filter
       id="filter3919"
       color-interpolation-filters="sRGB">
      <feGaussianBlur
         stdDeviation="7.7021517"
         id="feGaussianBlur3921" />
    </filter>
    <filter
       id="filter3931"
       color-interpolation-filters="sRGB">
      <feGaussianBlur
         stdDeviation="7.6646842"
         id="feGaussianBlur3933" />
    </filter>
    <linearGradient
       gradientTransform="matrix(0.68812741,0,0,0.68812741,9.9046733,-1.8076553)"
       gradientUnits="userSpaceOnUse"
       xlink:href="#linearGradient3052"
       id="linearGradient3058"
       y2="-7.3852959"
       x2="534.94434"
       y1="841.9339"
       x1="182.54022" />
    <linearGradient
       id="linearGradient3052">
      <stop
         offset="0"
         style="stop-color:#ff0000;stop-opacity:1"
         id="stop3054" />
      <stop
         offset="1"
         style="stop-color:#800000;stop-opacity:1"
         id="stop3056" />
    </linearGradient>
    <linearGradient
       gradientTransform="matrix(0.66451891,0,0,0.64027929,18.464133,25.557595)"
       gradientUnits="userSpaceOnUse"
       xlink:href="#linearGradient3121"
       id="linearGradient3127"
       y2="347.55408"
       x2="420.85666"
       y1="999.12128"
       x1="169.86382" />
    <linearGradient
       id="linearGradient3121">
      <stop
         offset="0"
         style="stop-color:#2b2200;stop-opacity:1"
         id="stop3123" />
      <stop
         offset="1"
         style="stop-color:#2b2200;stop-opacity:0"
         id="stop3125" />
    </linearGradient>
    <linearGradient
       gradientTransform="matrix(0.98169228,0,0,0.97655741,5.6035267,10.790915)"
       gradientUnits="userSpaceOnUse"
       xlink:href="#linearGradient3091"
       id="linearGradient4047"
       y2="720.24036"
       x2="271.27505"
       y1="-85.978989"
       x1="529.87372" />
    <linearGradient
       id="linearGradient3091">
      <stop
         offset="0"
         style="stop-color:#ffffff;stop-opacity:1"
         id="stop3093" />
      <stop
         offset="1"
         style="stop-color:#ffffff;stop-opacity:0"
         id="stop3095" />
    </linearGradient>
    <linearGradient
       gradientTransform="matrix(0.67552937,0,0,0.67199592,12.562089,-3.0576036)"
       gradientUnits="userSpaceOnUse"
       xlink:href="#linearGradient3091"
       id="linearGradient4110"
       y2="720.24036"
       x2="271.27505"
       y1="-85.978989"
       x1="529.87372" />
  </defs>
  <metadata
     id="metadata4">
    <rdf:RDF>
      <cc:Work
         rdf:about="">
        <dc:format>image/svg+xml</dc:format>
        <dc:type
           rdf:resource="http://purl.org/dc/dcmitype/StillImage" />
        <dc:title></dc:title>
      </cc:Work>
    </rdf:RDF>
  </metadata>
  <g
     transform="translate(-6,8)"
     id="g4243">
    <path
       d="M 389.1875,4.9375 C 288.36609,6.4205911 186.21373,13.12984 89.396174,43.100781 62.572624,52.097158 34.872811,63.474371 16.15625,85.5 8.6978933,95.110875 6.7953861,107.72285 7.8130308,119.5923 3.7729404,253.64016 5.6884189,389.8269 39.8125,520.28125 62.594426,604.84343 104.29933,686.04416 168.43706,746.49251 227.386,803.48314 299.58049,844.42861 373.0625,880 478.71541,827.45986 576.60685,754.48401 644.25801,656.80371 709.61844,563.2634 741.5838,449.21363 744.84375,335.71875 747.56929,257.66817 737.29203,180.00871 728.46875,102.65625 728.24247,88.079184 724.69143,72.088567 712.22546,63.049785 689.97604,43.540956 660.38811,35.96841 632.53046,28.130064 562.95731,11.020288 490.94951,6.753386 419.5,5.0625 409.39648,4.9080555 399.29195,4.8667392 389.1875,4.9375 Z"
       id="path3943"
       style="fill:#000000;fill-opacity:1;stroke:none;filter:url(#filter3961)"
       transform="matrix(0.68812741,0,0,0.68812741,9.541099,-4.4400343)" />
    <path
       d="M 379.59375,18.90625 C 293.89568,20.234558 207.47739,26.700165 124.60173,49.277336 94.251472,58.08503 62.708311,68.947664 39.5625,91.1875 c -9.85536,9.80257 -15.558926,23.76458 -13.997895,37.74909 -3.773219,123.05143 -2.399518,247.7538 25.341645,368.21966 17.996872,75.99572 49.78567,150.01182 101.28866,209.37789 57.29405,66.65685 133.97492,112.96714 212.00167,151.75301 5.03236,4.76327 10.04521,1.9668 15.03132,-1.16398 100.20612,-51.745 192.22217,-123.85442 253.9453,-219.30327 56.72355,-86.35632 84.55394,-189.37382 88.53437,-292.13069 3.40462,-75.42084 -5.79036,-150.72434 -14.71159,-225.3745 C 706.27401,106.89229 705.71205,92.201369 696.1875,81.6875 679.52547,62.209189 654.08526,53.446616 630.42122,45.730744 578.94865,30.095894 524.97494,24.776368 471.44627,21.07891 440.86876,19.259491 410.22295,18.535551 379.59375,18.90625 Z"
       id="path3129"
       style="fill:#000000;fill-opacity:1;stroke:none;filter:url(#filter3919)"
       transform="matrix(0.68812741,0,0,0.68812741,11.301565,-2.6328393)" />
    <path
       d="m 273.00874,2.6783027 c -62.77862,1.06305 -126.11139,5.555366 -186.883143,21.8320533 -20.76126,5.912823 -42.25331,13.082678 -58.60632,27.648609 -5.99293,5.590993 -10.06044,13.73727 -8.98913,22.0839 -2.78103,87.451675 -1.89622,176.072025 17.54772,261.725645 12.76666,54.99051 35.77313,108.82414 73.310213,151.53893 42.39589,48.68989 99.17278,81.95539 156.86841,109.90648 69.14519,-34.61017 133.60135,-82.12787 179.14967,-145.19489 41.42826,-56.6128 64.80448,-125.07492 71.1549,-194.64814 6.25468,-61.96623 -1.17969,-124.22083 -8.82601,-185.647635 -1.00885,-9.18842 -0.0119,-19.745092 -7.02065,-26.903612 C 489.37981,32.737283 472.67526,27.302446 457.21033,22.136363 420.11027,11.020597 381.34669,7.1645297 342.83331,4.4234987 319.59014,2.9739787 296.29456,2.4682497 273.00874,2.6783027 Z"
       id="path3070"
       style="opacity:0.87999998;fill:#806600;fill-opacity:1;stroke:none" />
    <path
       d="M 272.7591,14.793958 C 217.30795,15.598884 161.55835,19.695302 107.48009,32.281295 85.31334,37.895453 62.56607,44.310273 43.72408,57.764018 35.64691,63.675163 28.10233,72.589643 29.18919,83.304073 26.66541,159.37735 27.24321,236.17247 41.00306,311.22681 c 10.10402,54.7219 28.97454,108.99205 62.89868,153.62522 36.07458,48.07235 87.06185,81.84164 139.91235,109.14045 7.46071,3.87856 14.97372,7.64569 22.54486,11.3028 71.56757,-35.74902 137.94163,-86.17397 181.72239,-153.97205 35.41703,-54.01273 54.34046,-117.69645 58.78099,-181.99424 4.12341,-53.07063 -1.66625,-106.20588 -8.28312,-158.818937 -1.36559,-8.64397 -1.18033,-17.57903 -2.93986,-26.10372 C 491.14634,51.990948 478.56043,45.509538 467.29312,40.27839 437.47472,27.743125 405.02677,23.01685 373.05461,19.291982 339.75705,15.741685 306.23409,14.495676 272.7591,14.793958 Z"
       id="path3099"
       style="opacity:0.87999998;fill:#800000;fill-opacity:1;stroke:none" />
    <path
       d="M 498.15346,69.809314 C 504.80569,162.93648 576.16709,431.6537 266.37096,586.27308 92.018476,501.89959 14.771066,408.9253 27.812936,77.741244 42.701156,-3.0973683 494.9346,-9.0548085 498.15346,69.809314 Z"
       id="path3043"
       style="opacity:0.87999998;fill:#ff0000;fill-opacity:1;stroke:none" />
    <path
       d="M 382.21875,27.78125 C 296.49217,29.265103 210.09693,35.424812 127.0747,57.697741 97.72581,66.035711 67.352778,76.043543 44.53125,97.1875 36.582178,105.02053 31.816931,115.98092 33.190325,127.21786 29.402448,248.98634 30.606949,372.40968 57.854482,491.63636 76.011779,569.60899 108.97844,645.38083 163.1875,705.25 c 56.52569,63.08786 130.90136,107.34617 206.39288,144.46732 4.9542,4.05855 9.8436,-2.50699 14.70539,-3.96269 C 481.03174,795.31612 570.20304,725.42286 630.5547,633.6992 680.16601,558.75881 708.52642,470.74252 716.64455,381.42137 724.59504,299.82792 716.44329,217.67001 706.07719,136.79169 704.29251,123.4827 704.1798,109.79452 701.3125,96.71875 693.33527,78.051424 673.02922,69.237447 655.4375,61.78125 603.42605,41.813083 547.31575,35.931593 492.06773,31.136701 455.52458,28.377628 418.85882,27.474308 382.21875,27.78125 Z m 16.0625,9.1875 c 74.43727,0.507313 149.71435,4.534296 221.83607,23.932557 25.18954,7.223331 51.81925,16.501058 69.72643,36.348693 7.51121,8.94587 9.61327,20.81456 9.74474,32.16408 7.82268,70.71954 17.65742,141.62369 14.78651,212.96092 -3.03465,95.98901 -27.34835,192.36215 -78.53125,274.15625 -57.38008,92.55817 -144.33759,163.39887 -239.94929,213.88413 -6.75647,3.68539 -13.69201,7.12793 -20.55071,10.67837 C 297.06782,802.95177 219.66107,757.82157 162.52269,690.99384 105.92309,625.58422 74.464997,542.04879 59.075346,457.69351 39.067691,350.83865 38.864251,241.45629 42.40625,133.15625 c 1.001537,-17.33756 14.839809,-30.0646 28.15625,-39.25 31.42732,-19.736705 68.23738,-28.861078 104.21875,-36.9375 73.41796,-14.721259 148.64636,-19.910969 223.5,-20 z"
       id="path3045"
       style="opacity:0.87999998;fill:#554400;fill-opacity:1;stroke:none;filter:url(#filter3931)"
       transform="matrix(0.68812741,0,0,0.68812741,9.5841122,-2.3216833)" />
    <path
       d="M 498.15349,69.809306 C 504.80569,162.93648 576.16709,431.6537 266.37094,586.27308 92.018463,501.89959 14.771043,408.9253 27.812923,77.741236 42.701143,-3.0973653 494.93459,-9.0548139 498.15349,69.809306 Z"
       id="path3050"
       style="opacity:0.87999998;fill:url(#linearGradient3058);fill-opacity:1;stroke:none" />
    <path
       d="m 501.76916,85.156085 c 6.7568,91.140665 79.2399,354.125785 -235.4259,505.446895 C 89.25013,508.0293 10.788443,417.03829 24.035363,92.91881 39.157623,13.804615 498.49966,7.974245 501.76916,85.156085 Z"
       id="rect3040"
       style="opacity:0.33000004;fill:url(#linearGradient3127);fill-opacity:1;stroke:none" />
    <path
       d="M 382.21875,27.78125 C 296.49217,29.265103 210.09693,35.424812 127.0747,57.697741 97.72581,66.035711 67.352778,76.043543 44.53125,97.1875 36.582178,105.02053 31.816931,115.98092 33.190325,127.21786 29.402448,248.98634 30.606949,372.40968 57.854482,491.63636 76.011779,569.60899 108.97844,645.38083 163.1875,705.25 c 56.52569,63.08786 130.90136,107.34617 206.39288,144.46732 4.9542,4.05855 9.8436,-2.50699 14.70539,-3.96269 C 481.03174,795.31612 570.20304,725.42286 630.5547,633.6992 680.16601,558.75881 708.52642,470.74252 716.64455,381.42137 724.59504,299.82792 716.44329,217.67001 706.07719,136.79169 704.29251,123.4827 704.1798,109.79452 701.3125,96.71875 693.33527,78.051424 673.02922,69.237447 655.4375,61.78125 603.42605,41.813083 547.31575,35.931593 492.06773,31.136701 455.52458,28.377628 418.85882,27.474308 382.21875,27.78125 Z m 16.0625,9.1875 c 74.43727,0.507313 149.71435,4.534296 221.83607,23.932557 25.18954,7.223331 51.81925,16.501058 69.72643,36.348693 7.51121,8.94587 9.61327,20.81456 9.74474,32.16408 7.82268,70.71954 17.65742,141.62369 14.78651,212.96092 -3.03465,95.98901 -27.34835,192.36215 -78.53125,274.15625 -57.38008,92.55817 -144.33759,163.39887 -239.94929,213.88413 -6.75647,3.68539 -13.69201,7.12793 -20.55071,10.67837 C 297.06782,802.95177 219.66107,757.82157 162.52269,690.99384 105.92309,625.58422 74.464997,542.04879 59.075346,457.69351 39.067691,350.83865 38.864251,241.45629 42.40625,133.15625 c 1.001537,-17.33756 14.839809,-30.0646 28.15625,-39.25 31.42732,-19.736705 68.23738,-28.861078 104.21875,-36.9375 73.41796,-14.721259 148.64636,-19.910969 223.5,-20 z"
       id="path3939"
       style="opacity:0.87999998;fill:#554400;fill-opacity:1;stroke:none;filter:url(#filter3931)"
       transform="matrix(0.68812741,0,0,0.68812741,9.5841122,-2.3216833)" />
    <path
       d="M 382.21875,27.78125 C 296.49217,29.265103 210.09693,35.424812 127.0747,57.697741 97.72581,66.035711 67.352778,76.043543 44.53125,97.1875 36.582178,105.02053 31.816931,115.98092 33.190325,127.21786 29.402448,248.98634 30.606949,372.40968 57.854482,491.63636 76.011779,569.60899 108.97844,645.38083 163.1875,705.25 c 56.52569,63.08786 130.90136,107.34617 206.39288,144.46732 4.9542,4.05855 9.8436,-2.50699 14.70539,-3.96269 C 481.03174,795.31612 570.20304,725.42286 630.5547,633.6992 680.16601,558.75881 708.52642,470.74252 716.64455,381.42137 724.59504,299.82792 716.44329,217.67001 706.07719,136.79169 704.29251,123.4827 704.1798,109.79452 701.3125,96.71875 693.33527,78.051424 673.02922,69.237447 655.4375,61.78125 603.42605,41.813083 547.31575,35.931593 492.06773,31.136701 455.52458,28.377628 418.85882,27.474308 382.21875,27.78125 Z m 16.0625,9.1875 c 74.43727,0.507313 149.71435,4.534296 221.83607,23.932557 25.18954,7.223331 51.81925,16.501058 69.72643,36.348693 7.51121,8.94587 9.61327,20.81456 9.74474,32.16408 7.82268,70.71954 17.65742,141.62369 14.78651,212.96092 -3.03465,95.98901 -27.34835,192.36215 -78.53125,274.15625 -57.38008,92.55817 -144.33759,163.39887 -239.94929,213.88413 -6.75647,3.68539 -13.69201,7.12793 -20.55071,10.67837 C 297.06782,802.95177 219.66107,757.82157 162.52269,690.99384 105.92309,625.58422 74.464997,542.04879 59.075346,457.69351 39.067691,350.83865 38.864251,241.45629 42.40625,133.15625 c 1.001537,-17.33756 14.839809,-30.0646 28.15625,-39.25 31.42732,-19.736705 68.23738,-28.861078 104.21875,-36.9375 73.41796,-14.721259 148.64636,-19.910969 223.5,-20 z"
       id="path3941"
       style="opacity:0.87999998;fill:#554400;fill-opacity:1;stroke:none;filter:url(#filter3931)"
       transform="matrix(0.68812741,0,0,0.68812741,9.5841122,-2.3216833)" />
    <path
       d="m 256.36751,16.009777 c -64.93105,1.799858 -131.16697,7.213781 -192.095071,31.094758 -13.22586,5.527991 -27.02805,14.786461 -30.47115,29.567974 -1.06405,22.724931 -2.22418,45.573861 -0.43008,68.275151 4.61791,12.65878 17.95063,18.43734 27.05077,27.31053 67.926461,54.62391 149.940781,90.48803 235.263211,107.65407 63.58224,14.20287 128.42255,21.67273 193.33389,26.48729 16.61329,-70.42768 11.44627,-143.81223 1.99713,-214.891404 C 489.41527,78.151543 490.35265,62.45652 480.15944,52.243986 461.86084,37.751346 438.43674,31.823778 415.90554,27.299368 363.49422,16.449701 309.71797,15.378031 256.36751,16.009777 Z"
       id="path3060"
       style="opacity:0.87999998;fill:url(#linearGradient4110);fill-opacity:1;stroke:none" />
  </g>
</svg>
