<?xml version="1.0" encoding="UTF-8" standalone="no"?>
<svg
   xmlns:dc="http://purl.org/dc/elements/1.1/"
   xmlns:cc="http://creativecommons.org/ns#"
   xmlns:rdf="http://www.w3.org/1999/02/22-rdf-syntax-ns#"
   xmlns:svg="http://www.w3.org/2000/svg"
   xmlns="http://www.w3.org/2000/svg"
   xmlns:xlink="http://www.w3.org/1999/xlink"
   id="svg4112"
   height="615.33331"
   width="521.68268"
   version="1.1">
  <defs
     id="defs3">
    <filter
       id="filter3961"
       color-interpolation-filters="sRGB">
      <feGaussianBlur
         stdDeviation="3.9829738"
         id="feGaussianBlur3963" />
    </filter>
    <filter
       id="filter3919"
       color-interpolation-filters="sRGB">
      <feGaussianBlur
         stdDeviation="7.7021517"
         id="feGaussianBlur3921" />
    </filter>
    <filter
       id="filter3931"
       color-interpolation-filters="sRGB">
      <feGaussianBlur
         stdDeviation="7.6646842"
         id="feGaussianBlur3933" />
    </filter>
    <linearGradient
       gradientTransform="matrix(0.68812741,0,0,0.68812741,-238.78353,-7.2260683)"
       gradientUnits="userSpaceOnUse"
       xlink:href="#linearGradient3052"
       id="linearGradient3058"
       y2="-7.3852959"
       x2="534.94434"
       y1="841.9339"
       x1="182.54022" />
    <linearGradient
       id="linearGradient3052">
      <stop
         offset="0"
         style="stop-color:#00ff00;stop-opacity:1"
         id="stop3054" />
      <stop
         offset="1"
         style="stop-color:#aa8800;stop-opacity:0"
         id="stop3056" />
    </linearGradient>
    <linearGradient
       gradientTransform="matrix(0.66451891,0,0,0.64027929,-230.22409,28.16494)"
       gradientUnits="userSpaceOnUse"
       xlink:href="#linearGradient3121"
       id="linearGradient3127"
       y2="347.55408"
       x2="420.85666"
       y1="999.12128"
       x1="169.86382" />
    <linearGradient
       id="linearGradient3121">
      <stop
         offset="0"
         style="stop-color:#2b2200;stop-opacity:1"
         id="stop3123" />
      <stop
         offset="1"
         style="stop-color:#2b2200;stop-opacity:0"
         id="stop3125" />
    </linearGradient>
    <linearGradient
       gradientTransform="matrix(0.98169228,0,0,0.97655741,5.6035267,10.790915)"
       gradientUnits="userSpaceOnUse"
       xlink:href="#linearGradient3091"
       id="linearGradient4047"
       y2="720.24036"
       x2="271.27505"
       y1="-85.978989"
       x1="529.87372" />
    <linearGradient
       id="linearGradient3091">
      <stop
         offset="0"
         style="stop-color:#ffffff;stop-opacity:1"
         id="stop3093" />
      <stop
         offset="1"
         style="stop-color:#ffffff;stop-opacity:0"
         id="stop3095" />
    </linearGradient>
    <linearGradient
       gradientTransform="matrix(0.67552937,0,0,0.67199592,-234.12613,12.76443)"
       gradientUnits="userSpaceOnUse"
       xlink:href="#linearGradient3091"
       id="linearGradient4110"
       y2="720.24036"
       x2="271.27505"
       y1="-85.978989"
       x1="529.87372" />
  </defs>
  <metadata
     id="metadata4">
    <rdf:RDF>
      <cc:Work
         rdf:about="">
        <dc:format>image/svg+xml</dc:format>
        <dc:type
           rdf:resource="http://purl.org/dc/dcmitype/StillImage" />
        <dc:title></dc:title>
      </cc:Work>
    </rdf:RDF>
  </metadata>
  <g
     transform="translate(242,0)"
     id="g4200">
    <path
       d="M 389.1875,4.9375 C 288.36609,6.4205911 186.21373,13.12984 89.396174,43.100781 62.572624,52.097158 34.872811,63.474371 16.15625,85.5 8.6978933,95.110875 6.7953861,107.72285 7.8130308,119.5923 3.7729404,253.64016 5.6884189,389.8269 39.8125,520.28125 62.594426,604.84343 104.29933,686.04416 168.43706,746.49251 227.386,803.48314 299.58049,844.42861 373.0625,880 478.71541,827.45986 576.60685,754.48401 644.25801,656.80371 709.61844,563.2634 741.5838,449.21363 744.84375,335.71875 747.56929,257.66817 737.29203,180.00871 728.46875,102.65625 728.24247,88.079184 724.69143,72.088567 712.22546,63.049785 689.97604,43.540956 660.38811,35.96841 632.53046,28.130064 562.95731,11.020288 490.94951,6.753386 419.5,5.0625 409.39648,4.9080555 399.29195,4.8667392 389.1875,4.9375 Z"
       id="path3943"
       style="fill:#000000;fill-opacity:1;stroke:none;filter:url(#filter3961)"
       transform="matrix(0.68812741,0,0,0.68812741,-239.14712,3.20331)" />
    <path
       d="M 379.59375,18.90625 C 293.89568,20.234558 207.47739,26.700165 124.60173,49.277336 94.251472,58.08503 62.708311,68.947664 39.5625,91.1875 c -9.85536,9.80257 -15.558926,23.76458 -13.997895,37.74909 -3.773219,123.05143 -2.399518,247.7538 25.341645,368.21966 17.996872,75.99572 49.78567,150.01182 101.28866,209.37789 57.29405,66.65685 133.97492,112.96714 212.00167,151.75301 5.03236,4.76327 10.04521,1.9668 15.03132,-1.16398 100.20612,-51.745 192.22217,-123.85442 253.9453,-219.30327 56.72355,-86.35632 84.55394,-189.37382 88.53437,-292.13069 3.40462,-75.42084 -5.79036,-150.72434 -14.71159,-225.3745 C 706.27401,106.89229 705.71205,92.201369 696.1875,81.6875 679.52547,62.209189 654.08526,53.446616 630.42122,45.730744 578.94865,30.095894 524.97494,24.776368 471.44627,21.07891 440.86876,19.259491 410.22295,18.535551 379.59375,18.90625 Z"
       id="path3129"
       style="fill:#000000;fill-opacity:1;stroke:none;filter:url(#filter3919)"
       transform="matrix(0.68812741,0,0,0.68812741,-237.38665,3.20331)" />
    <path
       d="m 24.320519,10.106088 c -62.77862,1.06305 -126.111389,5.555366 -186.883139,21.832053 -20.76126,5.912823 -42.25331,13.082678 -58.60632,27.648609 -5.99293,5.590993 -10.06044,13.737266 -8.98913,22.083901 -2.78103,87.451679 -1.89622,176.072029 17.54772,261.725649 12.76666,54.99051 35.77313,108.82414 73.31021,151.53893 42.395889,48.68989 99.172779,81.95539 156.868409,109.90648 69.14519,-34.61017 133.601351,-82.12787 179.149671,-145.19489 41.42826,-56.6128 64.80448,-125.07492 71.1549,-194.64814 6.25468,-61.96623 -1.17969,-124.22083 -8.82601,-185.647638 -1.00885,-9.188419 -0.0119,-19.745094 -7.02065,-26.903614 C 240.69159,40.165068 223.98704,34.730231 208.52211,29.564148 171.42205,18.448382 132.65847,14.592315 94.145089,11.851284 70.901919,10.401764 47.606339,9.8960355 24.320519,10.106088 Z"
       id="path3070"
       style="opacity:0.87999998;fill:#806600;fill-opacity:1;stroke:none" />
    <path
       d="m 24.070879,20.577134 c -55.45115,0.804926 -111.20075,4.901344 -165.279009,17.487337 -22.16675,5.614158 -44.91402,12.028978 -63.75601,25.482718 -8.07717,5.911145 -15.62175,14.825625 -14.53489,25.540051 -2.52378,76.07328 -1.94598,152.8684 11.81387,227.92274 10.10402,54.7219 28.97454,108.99205 62.89868,153.62522 36.07458,48.07235 87.061849,81.84164 139.9123495,109.14045 7.46071,3.87856 14.9737195,7.64569 22.5448595,11.3028 C 89.238299,555.32943 155.61236,504.90448 199.39312,437.1064 234.81015,383.09367 253.73358,319.40995 258.17411,255.11216 262.29752,202.04153 256.50786,148.90628 249.89099,96.29322 248.5254,87.649253 248.71066,78.714194 246.95113,70.189507 242.45812,57.774127 229.87221,51.292714 218.6049,46.061566 188.7865,33.526301 156.33855,28.800026 124.36639,25.075158 91.068829,21.524861 57.545869,20.278852 24.070879,20.577134 Z"
       id="path3099"
       style="opacity:0.87999998;fill:#806600;fill-opacity:1;stroke:none" />
    <path
       d="M 249.46523,74.820275 C 256.11748,167.94745 327.47889,436.66467 17.682728,591.28405 -156.66975,506.91056 -233.91716,413.93627 -220.87529,82.752205 -205.98707,1.9135953 246.24637,-4.0438447 249.46523,74.820275 Z"
       id="path3043"
       style="opacity:0.87999998;fill:#00ff00;fill-opacity:1;stroke:none" />
    <path
       d="M 382.21875,27.78125 C 296.49217,29.265103 210.09693,35.424812 127.0747,57.697741 97.72581,66.035711 67.352778,76.043543 44.53125,97.1875 36.582178,105.02053 31.816931,115.98092 33.190325,127.21786 29.402448,248.98634 30.606949,372.40968 57.854482,491.63636 76.011779,569.60899 108.97844,645.38083 163.1875,705.25 c 56.52569,63.08786 130.90136,107.34617 206.39288,144.46732 4.9542,4.05855 9.8436,-2.50699 14.70539,-3.96269 C 481.03174,795.31612 570.20304,725.42286 630.5547,633.6992 680.16601,558.75881 708.52642,470.74252 716.64455,381.42137 724.59504,299.82792 716.44329,217.67001 706.07719,136.79169 704.29251,123.4827 704.1798,109.79452 701.3125,96.71875 693.33527,78.051424 673.02922,69.237447 655.4375,61.78125 603.42605,41.813083 547.31575,35.931593 492.06773,31.136701 455.52458,28.377628 418.85882,27.474308 382.21875,27.78125 Z m 16.0625,9.1875 c 74.43727,0.507313 149.71435,4.534296 221.83607,23.932557 25.18954,7.223331 51.81925,16.501058 69.72643,36.348693 7.51121,8.94587 9.61327,20.81456 9.74474,32.16408 7.82268,70.71954 17.65742,141.62369 14.78651,212.96092 -3.03465,95.98901 -27.34835,192.36215 -78.53125,274.15625 -57.38008,92.55817 -144.33759,163.39887 -239.94929,213.88413 -6.75647,3.68539 -13.69201,7.12793 -20.55071,10.67837 C 297.06782,802.95177 219.66107,757.82157 162.52269,690.99384 105.92309,625.58422 74.464997,542.04879 59.075346,457.69351 39.067691,350.83865 38.864251,241.45629 42.40625,133.15625 c 1.001537,-17.33756 14.839809,-30.0646 28.15625,-39.25 31.42732,-19.736705 68.23738,-28.861078 104.21875,-36.9375 73.41796,-14.721259 148.64636,-19.910969 223.5,-20 z"
       id="path3045"
       style="opacity:0.87999998;fill:#554400;fill-opacity:1;stroke:none;filter:url(#filter3931)"
       transform="matrix(0.68812741,0,0,0.68812741,-239.10411,3.20331)" />
    <path
       d="M 249.46525,64.390893 C 256.11745,157.51807 327.47885,426.23529 17.682742,580.85467 -156.66974,496.48118 -233.91716,403.50689 -220.87528,72.322823 c 14.88822,-80.8386013 467.12163,-86.79605 470.34053,-7.93193 z"
       id="path3050"
       style="opacity:0.87999998;fill:url(#linearGradient3058);fill-opacity:1;stroke:none" />
    <path
       d="m 253.08094,87.76343 c 6.7568,91.14066 79.2399,354.12578 -235.425898,505.44689 C -159.43809,510.63664 -237.89978,419.64563 -224.65286,95.52616 c 15.12226,-79.1142 474.4643,-84.94457 477.7338,-7.76273 z"
       id="rect3040"
       style="opacity:0.33000004;fill:url(#linearGradient3127);fill-opacity:1;stroke:none" />
    <path
       d="M 382.21875,27.78125 C 296.49217,29.265103 210.09693,35.424812 127.0747,57.697741 97.72581,66.035711 67.352778,76.043543 44.53125,97.1875 36.582178,105.02053 31.816931,115.98092 33.190325,127.21786 29.402448,248.98634 30.606949,372.40968 57.854482,491.63636 76.011779,569.60899 108.97844,645.38083 163.1875,705.25 c 56.52569,63.08786 130.90136,107.34617 206.39288,144.46732 4.9542,4.05855 9.8436,-2.50699 14.70539,-3.96269 C 481.03174,795.31612 570.20304,725.42286 630.5547,633.6992 680.16601,558.75881 708.52642,470.74252 716.64455,381.42137 724.59504,299.82792 716.44329,217.67001 706.07719,136.79169 704.29251,123.4827 704.1798,109.79452 701.3125,96.71875 693.33527,78.051424 673.02922,69.237447 655.4375,61.78125 603.42605,41.813083 547.31575,35.931593 492.06773,31.136701 455.52458,28.377628 418.85882,27.474308 382.21875,27.78125 Z m 16.0625,9.1875 c 74.43727,0.507313 149.71435,4.534296 221.83607,23.932557 25.18954,7.223331 51.81925,16.501058 69.72643,36.348693 7.51121,8.94587 9.61327,20.81456 9.74474,32.16408 7.82268,70.71954 17.65742,141.62369 14.78651,212.96092 -3.03465,95.98901 -27.34835,192.36215 -78.53125,274.15625 -57.38008,92.55817 -144.33759,163.39887 -239.94929,213.88413 -6.75647,3.68539 -13.69201,7.12793 -20.55071,10.67837 C 297.06782,802.95177 219.66107,757.82157 162.52269,690.99384 105.92309,625.58422 74.464997,542.04879 59.075346,457.69351 39.067691,350.83865 38.864251,241.45629 42.40625,133.15625 c 1.001537,-17.33756 14.839809,-30.0646 28.15625,-39.25 31.42732,-19.736705 68.23738,-28.861078 104.21875,-36.9375 73.41796,-14.721259 148.64636,-19.910969 223.5,-20 z"
       id="path3939"
       style="opacity:0.87999998;fill:#554400;fill-opacity:1;stroke:none;filter:url(#filter3931)"
       transform="matrix(0.68812741,0,0,0.68812741,-239.10411,3.20331)" />
    <path
       d="M 382.21875,27.78125 C 296.49217,29.265103 210.09693,35.424812 127.0747,57.697741 97.72581,66.035711 67.352778,76.043543 44.53125,97.1875 36.582178,105.02053 31.816931,115.98092 33.190325,127.21786 29.402448,248.98634 30.606949,372.40968 57.854482,491.63636 76.011779,569.60899 108.97844,645.38083 163.1875,705.25 c 56.52569,63.08786 130.90136,107.34617 206.39288,144.46732 4.9542,4.05855 9.8436,-2.50699 14.70539,-3.96269 C 481.03174,795.31612 570.20304,725.42286 630.5547,633.6992 680.16601,558.75881 708.52642,470.74252 716.64455,381.42137 724.59504,299.82792 716.44329,217.67001 706.07719,136.79169 704.29251,123.4827 704.1798,109.79452 701.3125,96.71875 693.33527,78.051424 673.02922,69.237447 655.4375,61.78125 603.42605,41.813083 547.31575,35.931593 492.06773,31.136701 455.52458,28.377628 418.85882,27.474308 382.21875,27.78125 Z m 16.0625,9.1875 c 74.43727,0.507313 149.71435,4.534296 221.83607,23.932557 25.18954,7.223331 51.81925,16.501058 69.72643,36.348693 7.51121,8.94587 9.61327,20.81456 9.74474,32.16408 7.82268,70.71954 17.65742,141.62369 14.78651,212.96092 -3.03465,95.98901 -27.34835,192.36215 -78.53125,274.15625 -57.38008,92.55817 -144.33759,163.39887 -239.94929,213.88413 -6.75647,3.68539 -13.69201,7.12793 -20.55071,10.67837 C 297.06782,802.95177 219.66107,757.82157 162.52269,690.99384 105.92309,625.58422 74.464997,542.04879 59.075346,457.69351 39.067691,350.83865 38.864251,241.45629 42.40625,133.15625 c 1.001537,-17.33756 14.839809,-30.0646 28.15625,-39.25 31.42732,-19.736705 68.23738,-28.861078 104.21875,-36.9375 73.41796,-14.721259 148.64636,-19.910969 223.5,-20 z"
       id="path3941"
       style="opacity:0.87999998;fill:#554400;fill-opacity:1;stroke:none;filter:url(#filter3931)"
       transform="matrix(0.68812741,0,0,0.68812741,-239.10411,3.20331)" />
    <path
       d="M 9.6792902,31.831811 C -55.25176,33.631669 -121.48768,39.045592 -182.41578,62.926569 c -13.22586,5.527991 -27.02805,14.786461 -30.47115,29.567974 -1.06405,22.724927 -2.22418,45.573857 -0.43008,68.275147 4.61791,12.65878 17.95063,18.43734 27.05077,27.31053 67.92646,54.62391 149.94078,90.48803 235.26321,107.65407 63.58224,14.20287 128.42255,21.67273 193.33389,26.48729 16.61329,-70.42768 11.44627,-143.81223 1.99713,-214.8914 C 242.72705,93.973577 243.66443,78.278554 233.47122,68.06602 215.17262,53.57338 191.74852,47.645812 169.21732,43.121402 116.806,32.271735 63.02975,31.200065 9.6792902,31.831811 Z"
       id="path3060"
       style="opacity:0.87999998;fill:url(#linearGradient4110);fill-opacity:1;stroke:none" />
  </g>
</svg>
