<?xml version="1.0" encoding="UTF-8" standalone="no"?>
<!-- Created with Inkscape (http://www.inkscape.org/) -->

<svg
   xmlns:dc="http://purl.org/dc/elements/1.1/"
   xmlns:cc="http://creativecommons.org/ns#"
   xmlns:rdf="http://www.w3.org/1999/02/22-rdf-syntax-ns#"
   xmlns:svg="http://www.w3.org/2000/svg"
   xmlns="http://www.w3.org/2000/svg"
   xmlns:sodipodi="http://sodipodi.sourceforge.net/DTD/sodipodi-0.dtd"
   xmlns:inkscape="http://www.inkscape.org/namespaces/inkscape"
   width="122.26995mm"
   height="7.7893338mm"
   viewBox="0 0 433.24003 27.600001"
   id="svg2"
   version="1.1"
   inkscape:version="0.91 r13725"
   sodipodi:docname="TitleImage.svg"
   inkscape:export-filename="/Users/jiangsir/Documents/Mars2/ZeroJudge/WebContent/images/Logo.png"
   inkscape:export-xdpi="90"
   inkscape:export-ydpi="90">
  <defs
     id="defs4" />
  <sodipodi:namedview
     id="base"
     pagecolor="#ffffff"
     bordercolor="#666666"
     borderopacity="1.0"
     inkscape:pageopacity="0.0"
     inkscape:pageshadow="2"
     inkscape:zoom="1.4"
     inkscape:cx="201.85995"
     inkscape:cy="-12.400035"
     inkscape:document-units="px"
     inkscape:current-layer="layer1"
     showgrid="false"
     fit-margin-top="0"
     fit-margin-left="0"
     fit-margin-right="0"
     fit-margin-bottom="0"
     inkscape:window-width="1440"
     inkscape:window-height="851"
     inkscape:window-x="0"
     inkscape:window-y="1"
     inkscape:window-maximized="1" />
  <metadata
     id="metadata7">
    <rdf:RDF>
      <cc:Work
         rdf:about="">
        <dc:format>image/svg+xml</dc:format>
        <dc:type
           rdf:resource="http://purl.org/dc/dcmitype/StillImage" />
        <dc:title></dc:title>
      </cc:Work>
    </rdf:RDF>
  </metadata>
  <g
     inkscape:label="Layer 1"
     inkscape:groupmode="layer"
     id="layer1"
     transform="translate(-7.5220091,-36.406096)">
    <g
       id="g3394">
      <g
         style="font-style:normal;font-variant:normal;font-weight:normal;font-stretch:normal;font-size:40.00000381px;line-height:125%;font-family:'.Times LT MM';-inkscape-font-specification:'.Times LT MM, Normal';text-align:start;letter-spacing:0px;word-spacing:0px;writing-mode:lr-tb;text-anchor:start;fill:#666666;fill-opacity:1;stroke:none;stroke-width:1px;stroke-linecap:butt;stroke-linejoin:miter;stroke-opacity:1"
         id="text3390">
        <path
           d="m 18.72201,63.446095 0,-0.760001 c -3.08,-0.08 -3.76,-0.68 -3.76,-3.6 l 0,-7.280001 c 0.96,0.08 1.72,0.12 2.68,0.12 4.2,0 6.760001,-0.72 8.480001,-2.36 0.68,-0.64 2.44,-2.28 2.44,-5.4 0,-5.040001 -4.96,-7.200001 -10.480001,-7.200001 l -10.5600009,0 0,0.76 c 2.9199999,0.28 3.3599999,0.76 3.3599999,3.6 l 0,17.320002 c 0,2.88 0,3.8 -3.3599999,4.04 l 0,0.760001 11.2000009,0 z m -2.12,-25.000003 c 1.76,0 7.600001,0.08 7.600001,5.800001 0,6.08 -5.360001,6.08 -6.840001,6.08 -0.84,0 -1.64,-0.04 -2.4,-0.12 l 0,-10.400001 c 0,-1.32 0.44,-1.36 1.64,-1.36 z"
           style=""
           id="path3401" />
        <path
           d="m 29.629511,36.966092 0,0.76 c 3.04,0.2 3.6,0.64 3.6,3.6 l 0,12.480002 c 0,2.4 0,10.200001 9.920001,10.200001 10.320001,0 10.360001,-7.480001 10.360001,-10.720001 l 0,-10.440001 c 0,-4.200001 0.68,-4.800001 3.760001,-5.120001 l 0,-0.76 -9.280001,0 0,0.76 c 2.8,0.2 3.76,0.88 3.76,5.120001 l 0,10.800001 c 0,3.28 -0.4,4.6 -0.92,5.44 -1.16,1.92 -3.48,3.16 -6.560001,3.16 -6.92,0 -6.96,-5.48 -6.96,-8.12 l 0,-12.800002 c 0,-2.84 0.48,-3.36 3.64,-3.6 l 0,-0.76 -11.320001,0 z"
           style=""
           id="path3403" />
        <path
           d="m 76.055765,63.446095 0,-0.760001 c -3.360001,-0.12 -3.840001,-0.88 -3.840001,-3.6 l 0,-20.440002 2.16,0 c 4.400001,0 5.520001,0.72 6.360001,5.120001 l 0.96,0 c -0.08,-2.280001 -0.16,-4.520001 -0.24,-6.800001 l -22.560002,0 c -0.08,2.28 -0.16,4.52 -0.24,6.800001 l 0.96,0 c 0.88,-4.360001 1.96,-5.120001 6.360001,-5.120001 l 2.16,0 0,20.000002 c 0,2.96 -0.12,3.88 -3.760001,4.04 l 0,0.760001 11.680002,0 z"
           style=""
           id="path3405" />
        <path
           d="m 93.308892,36.966092 0,0.76 c 1.8,0.16 2.4,0.28 6.48,6.280001 l 5.239998,7.68 0,6.960001 c 0,3.04 -0.12,3.96 -4.04,4.04 l 0,0.760001 12.24,0 0,-0.760001 c -3.6,-0.04 -4.12,-0.72 -4.12,-3.6 l 0,-7.760001 5.92,-9.040001 c 2.76,-4.24 4.08,-4.4 5.52,-4.56 l 0,-0.76 -8.76,0 0,0.76 c 1.24,0 2.76,0.08 2.76,1.32 0,0.56 -0.28,1.04 -0.56,1.48 l -5.72,9.040001 -5.92,-8.880001 c -0.36,-0.52 -0.68,-1.28 -0.68,-1.72 0,-1.12 1,-1.16 2.84,-1.24 l 0,-0.76 -11.199998,0 z"
           style=""
           id="path3407" />
        <path
           d="m 127.25514,50.206093 c 0,-9.120001 4.44,-12.360001 8.52,-12.360001 4.08,0 8.52,3.24 8.52,12.360001 0,8.800001 -4.08,12.360001 -8.52,12.360001 -4.44,0 -8.52,-3.56 -8.52,-12.360001 z m -4.56,0.04 c 0,8.520001 5.84,13.760002 13.08,13.760002 7.24,0 13.08,-5.240001 13.08,-13.760002 0,-9.200001 -6.52,-13.840001 -13.08,-13.840001 -6.56,0 -13.08,4.64 -13.08,13.840001 z"
           style=""
           id="path3409" />
        <path
           d="m 150.72327,36.966092 0,0.76 c 3.04,0.2 3.6,0.64 3.6,3.6 l 0,12.480002 c 0,2.4 0,10.200001 9.92001,10.200001 10.32,0 10.36,-7.480001 10.36,-10.720001 l 0,-10.440001 c 0,-4.200001 0.68,-4.800001 3.76,-5.120001 l 0,-0.76 -9.28,0 0,0.76 c 2.8,0.2 3.76,0.88 3.76,5.120001 l 0,10.800001 c 0,3.28 -0.4,4.6 -0.92,5.44 -1.16,1.92 -3.48,3.16 -6.56,3.16 -6.92,0 -6.96,-5.48 -6.96,-8.12 l 0,-12.800002 c 0,-2.84 0.48,-3.36 3.64,-3.6 l 0,-0.76 -11.32001,0 z"
           style=""
           id="path3411" />
        <path
           d="m 205.42953,63.446095 0,-0.760001 c -1.64,-0.08 -2.6,-0.8 -3.48,-1.88 -2.76,-3.36 -5.48,-6.76 -8.24,-10.120001 2.04,-0.4 7.24,-1.36 7.24,-6.72 0,-6.120001 -6.56,-7.000001 -10.16,-7.000001 l -11.04001,0 0,0.76 c 2.8,0.28 3.4,0.64 3.4,3.6 l 0,17.320002 c 0,3 -0.16,3.84 -3.4,4.04 l 0,0.760001 11.08001,0 0,-0.760001 c -3.2,-0.16 -3.6,-0.92 -3.6,-3.6 l 0,-7.880001 c 0.76,-0.04 1.48,-0.04 2.24,-0.08 3.16,4.120001 6.36,8.200001 9.52,12.320002 l 6.44,0 z m -15.72,-25.000003 c 1.64,0 6.88,0.12 6.88,5.440001 0,5.72 -6,5.8 -9.36,5.84 l 0,-9.840001 c 0,-1.16 0.36,-1.44 2.48,-1.44 z"
           style=""
           id="path3413" />
        <path
           d="m 233.86828,63.446095 0,-0.760001 c -3.36,-0.12 -3.84,-0.88 -3.84,-3.6 l 0,-20.440002 2.16,0 c 4.4,0 5.52,0.72 6.36,5.120001 l 0.96,0 c -0.08,-2.280001 -0.16,-4.520001 -0.24,-6.800001 l -22.56001,0 c -0.08,2.28 -0.16,4.52 -0.24,6.800001 l 0.96,0 c 0.88,-4.360001 1.96,-5.120001 6.36001,-5.120001 l 2.16,0 0,20.000002 c 0,2.96 -0.12,3.88 -3.76001,4.04 l 0,0.760001 11.68001,0 z"
           style=""
           id="path3415" />
        <path
           d="m 252.8414,63.446095 0,-0.760001 c -2.96,-0.08 -3.92,-0.48 -3.92,-3.6 l 0,-17.760002 c 0,-3.2 1,-3.48 3.92,-3.6 l 0,-0.76 -11.88,0 0,0.76 c 3.32,0.16 3.88,0.64 3.88,3.6 l 0,17.760002 c 0,2.84 -0.48,3.52 -3.88,3.6 l 0,0.760001 11.88,0 z"
           style=""
           id="path3417" />
        <path
           d="m 271.60265,63.446095 0,-0.760001 c -3.36,-0.12 -3.84,-0.88 -3.84,-3.6 l 0,-20.440002 2.16,0 c 4.4,0 5.52,0.72 6.36,5.120001 l 0.96,0 c -0.08,-2.280001 -0.16,-4.520001 -0.24,-6.800001 l -22.56,0 c -0.08,2.28 -0.16,4.52 -0.24,6.800001 l 0.96,0 c 0.88,-4.360001 1.96,-5.120001 6.36,-5.120001 l 2.16,0 0,20.000002 c 0,2.96 -0.12,3.88 -3.76,4.04 l 0,0.760001 11.68,0 z"
           style=""
           id="path3419" />
        <path
           d="m 299.97579,63.446095 1.92,-6.960001 -1,0 c -2.28,5.24 -4.84,5.4 -10.84,5.4 -3.32,0 -4.04,-0.04 -4.04,-1.64 l 0,-18.920002 c 0,-3.16 1,-3.44 3.72,-3.6 l 0,-0.76 -11.28,0 0,0.76 c 2.52,0.2 3.48,0.44 3.48,3.6 l 0,17.760002 c 0,3.08 -0.92,3.44 -3.48,3.6 l 0,0.760001 21.52,0 z"
           style=""
           id="path3421" />
        <path
           d="m 324.43079,63.446095 c 0.6,-2.240001 1.2,-4.520001 1.8,-6.760001 l -1.12,0 c -1.76,4.04 -3.76,5.24 -8.76,5.24 -2,0 -3.32,0 -4.2,-0.08 -1.76,-0.12 -1.76,-0.52 -1.76,-1.6 l 0,-9.920001 c 8.44,0 9.88,-0.64 10.56,3.880001 l 0.92,0 0,-9.280001 -0.92,0 c -0.44,2.84 -0.84,3.8 -4.4,3.8 -2.04,0 -4.12,0 -6.16,0 l 0,-8.880001 c 0,-0.64 0.08,-1 0.32,-1.16 0.2,-0.16 0.56,-0.2 1,-0.2 l 5.4,0 c 4.44,0 5.48,0.64 6.08,4.200001 l 1,0 c -0.04,-1.920001 -0.08,-3.800001 -0.12,-5.720001 l -21.24,0 0,0.76 c 2.52,0.2 3.48,0.44 3.48,3.6 l 0,17.760002 c 0,3.08 -0.92,3.44 -3.48,3.6 l 0,0.760001 21.6,0 z"
           style=""
           id="path3423" />
        <path
           d="m 357.28392,50.846093 0,7.800001 c 0,3 -0.16,3.88 -3.52,4.04 l 0,0.760001 11.12,0 0,-0.760001 c -3.12,-0.2 -3.52,-0.96 -3.52,-3.6 l 0,-17.760002 c 0,-2.84 0.48,-3.36 3.52,-3.6 l 0,-0.76 -11.12,0 0,0.76 c 2.96,0.24 3.52,0.64 3.52,3.6 l 0,7.760001 -12.12,0 0,-7.760001 c 0,-2.84 0.48,-3.36 3.52,-3.6 l 0,-0.76 -11.12001,0 0,0.76 c 2.96,0.24 3.52,0.64 3.52,3.6 l 0,17.320002 c 0,3 -0.16,3.88 -3.52,4.04 l 0,0.760001 11.12001,0 0,-0.760001 c -3.12,-0.2 -3.52,-0.96 -3.52,-3.6 l 0,-8.240001 12.12,0 z"
           style=""
           id="path3425" />
        <path
           d="m 387.79017,63.446095 c 0.6,-2.240001 1.2,-4.520001 1.8,-6.760001 l -1.12,0 c -1.76,4.04 -3.76,5.24 -8.76,5.24 -2,0 -3.32,0 -4.2,-0.08 -1.76,-0.12 -1.76,-0.52 -1.76,-1.6 l 0,-9.920001 c 8.44,0 9.88,-0.64 10.56,3.880001 l 0.92,0 0,-9.280001 -0.92,0 c -0.44,2.84 -0.84,3.8 -4.4,3.8 -2.04,0 -4.12,0 -6.16,0 l 0,-8.880001 c 0,-0.64 0.08,-1 0.32,-1.16 0.2,-0.16 0.56,-0.2 1,-0.2 l 5.4,0 c 4.44,0 5.48,0.64 6.08,4.200001 l 1,0 c -0.04,-1.920001 -0.08,-3.800001 -0.12,-5.720001 l -21.24001,0 0,0.76 c 2.52,0.2 3.48,0.44 3.48,3.6 l 0,17.760002 c 0,3.08 -0.92,3.44 -3.48,3.6 l 0,0.760001 21.60001,0 z"
           style=""
           id="path3427" />
        <path
           d="m 416.52329,63.446095 0,-0.760001 c -1.64,-0.08 -2.6,-0.8 -3.48,-1.88 -2.76,-3.36 -5.48,-6.76 -8.24,-10.120001 2.04,-0.4 7.24,-1.36 7.24,-6.72 0,-6.120001 -6.56,-7.000001 -10.16,-7.000001 l -11.04,0 0,0.76 c 2.8,0.28 3.4,0.64 3.4,3.6 l 0,17.320002 c 0,3 -0.16,3.84 -3.4,4.04 l 0,0.760001 11.08,0 0,-0.760001 c -3.2,-0.16 -3.6,-0.92 -3.6,-3.6 l 0,-7.880001 c 0.76,-0.04 1.48,-0.04 2.24,-0.08 3.16,4.120001 6.36,8.200001 9.52,12.320002 l 6.44,0 z m -15.72,-25.000003 c 1.64,0 6.88,0.12 6.88,5.440001 0,5.72 -6,5.8 -9.36,5.84 l 0,-9.840001 c 0,-1.16 0.36,-1.44 2.48,-1.44 z"
           style=""
           id="path3429" />
        <path
           d="m 438.96204,63.446095 c 0.6,-2.240001 1.2,-4.520001 1.8,-6.760001 l -1.12,0 c -1.76,4.04 -3.76,5.24 -8.76,5.24 -2,0 -3.32,0 -4.2,-0.08 -1.76,-0.12 -1.76,-0.52 -1.76,-1.6 l 0,-9.920001 c 8.44,0 9.88,-0.64 10.56,3.880001 l 0.92,0 0,-9.280001 -0.92,0 c -0.44,2.84 -0.84,3.8 -4.4,3.8 -2.04,0 -4.12,0 -6.16,0 l 0,-8.880001 c 0,-0.64 0.08,-1 0.32,-1.16 0.2,-0.16 0.56,-0.2 1,-0.2 l 5.4,0 c 4.44,0 5.48,0.64 6.08,4.200001 l 1,0 c -0.04,-1.920001 -0.08,-3.800001 -0.12,-5.720001 l -21.24,0 0,0.76 c 2.52,0.2 3.48,0.44 3.48,3.6 l 0,17.760002 c 0,3.08 -0.92,3.44 -3.48,3.6 l 0,0.760001 21.6,0 z"
           style=""
           id="path3431" />
      </g>
      <g
         style="font-style:normal;font-variant:normal;font-weight:normal;font-stretch:normal;font-size:40.00000381px;line-height:125%;font-family:'.Times LT MM';-inkscape-font-specification:'.Times LT MM, Normal';text-align:start;letter-spacing:0px;word-spacing:0px;writing-mode:lr-tb;text-anchor:start;fill:#ffffff;fill-opacity:1;stroke:none;stroke-width:1px;stroke-linecap:butt;stroke-linejoin:miter;stroke-opacity:1"
         id="text3386">
        <path
           d="m 18.72201,63.446095 0,-0.760001 c -3.08,-0.08 -3.76,-0.68 -3.76,-3.6 l 0,-7.280001 c 0.96,0.08 1.72,0.12 2.68,0.12 4.2,0 6.760001,-0.72 8.480001,-2.36 0.68,-0.64 2.44,-2.28 2.44,-5.4 0,-5.040001 -4.96,-7.200001 -10.480001,-7.200001 l -10.5600009,0 0,0.76 c 2.9199999,0.28 3.3599999,0.76 3.3599999,3.6 l 0,17.320002 c 0,2.88 0,3.8 -3.3599999,4.04 l 0,0.760001 11.2000009,0 z m -2.12,-25.000003 c 1.76,0 7.600001,0.08 7.600001,5.800001 0,6.08 -5.360001,6.08 -6.840001,6.08 -0.84,0 -1.64,-0.04 -2.4,-0.12 l 0,-10.400001 c 0,-1.32 0.44,-1.36 1.64,-1.36 z"
           style=""
           id="path3434" />
        <path
           d="m 29.629511,36.966092 0,0.76 c 3.04,0.2 3.6,0.64 3.6,3.6 l 0,12.480002 c 0,2.4 0,10.200001 9.920001,10.200001 10.320001,0 10.360001,-7.480001 10.360001,-10.720001 l 0,-10.440001 c 0,-4.200001 0.68,-4.800001 3.760001,-5.120001 l 0,-0.76 -9.280001,0 0,0.76 c 2.8,0.2 3.76,0.88 3.76,5.120001 l 0,10.800001 c 0,3.28 -0.4,4.6 -0.92,5.44 -1.16,1.92 -3.48,3.16 -6.560001,3.16 -6.92,0 -6.96,-5.48 -6.96,-8.12 l 0,-12.800002 c 0,-2.84 0.48,-3.36 3.64,-3.6 l 0,-0.76 -11.320001,0 z"
           style=""
           id="path3436" />
        <path
           d="m 76.055765,63.446095 0,-0.760001 c -3.360001,-0.12 -3.840001,-0.88 -3.840001,-3.6 l 0,-20.440002 2.16,0 c 4.400001,0 5.520001,0.72 6.360001,5.120001 l 0.96,0 c -0.08,-2.280001 -0.16,-4.520001 -0.24,-6.800001 l -22.560002,0 c -0.08,2.28 -0.16,4.52 -0.24,6.800001 l 0.96,0 c 0.88,-4.360001 1.96,-5.120001 6.360001,-5.120001 l 2.16,0 0,20.000002 c 0,2.96 -0.12,3.88 -3.760001,4.04 l 0,0.760001 11.680002,0 z"
           style=""
           id="path3438" />
        <path
           d="m 93.308892,36.966092 0,0.76 c 1.8,0.16 2.4,0.28 6.48,6.280001 l 5.239998,7.68 0,6.960001 c 0,3.04 -0.12,3.96 -4.04,4.04 l 0,0.760001 12.24,0 0,-0.760001 c -3.6,-0.04 -4.12,-0.72 -4.12,-3.6 l 0,-7.760001 5.92,-9.040001 c 2.76,-4.24 4.08,-4.4 5.52,-4.56 l 0,-0.76 -8.76,0 0,0.76 c 1.24,0 2.76,0.08 2.76,1.32 0,0.56 -0.28,1.04 -0.56,1.48 l -5.72,9.040001 -5.92,-8.880001 c -0.36,-0.52 -0.68,-1.28 -0.68,-1.72 0,-1.12 1,-1.16 2.84,-1.24 l 0,-0.76 -11.199998,0 z"
           style=""
           id="path3440" />
        <path
           d="m 127.25514,50.206093 c 0,-9.120001 4.44,-12.360001 8.52,-12.360001 4.08,0 8.52,3.24 8.52,12.360001 0,8.800001 -4.08,12.360001 -8.52,12.360001 -4.44,0 -8.52,-3.56 -8.52,-12.360001 z m -4.56,0.04 c 0,8.520001 5.84,13.760002 13.08,13.760002 7.24,0 13.08,-5.240001 13.08,-13.760002 0,-9.200001 -6.52,-13.840001 -13.08,-13.840001 -6.56,0 -13.08,4.64 -13.08,13.840001 z"
           style=""
           id="path3442" />
        <path
           d="m 150.72327,36.966092 0,0.76 c 3.04,0.2 3.6,0.64 3.6,3.6 l 0,12.480002 c 0,2.4 0,10.200001 9.92001,10.200001 10.32,0 10.36,-7.480001 10.36,-10.720001 l 0,-10.440001 c 0,-4.200001 0.68,-4.800001 3.76,-5.120001 l 0,-0.76 -9.28,0 0,0.76 c 2.8,0.2 3.76,0.88 3.76,5.120001 l 0,10.800001 c 0,3.28 -0.4,4.6 -0.92,5.44 -1.16,1.92 -3.48,3.16 -6.56,3.16 -6.92,0 -6.96,-5.48 -6.96,-8.12 l 0,-12.800002 c 0,-2.84 0.48,-3.36 3.64,-3.6 l 0,-0.76 -11.32001,0 z"
           style=""
           id="path3444" />
        <path
           d="m 205.42953,63.446095 0,-0.760001 c -1.64,-0.08 -2.6,-0.8 -3.48,-1.88 -2.76,-3.36 -5.48,-6.76 -8.24,-10.120001 2.04,-0.4 7.24,-1.36 7.24,-6.72 0,-6.120001 -6.56,-7.000001 -10.16,-7.000001 l -11.04001,0 0,0.76 c 2.8,0.28 3.4,0.64 3.4,3.6 l 0,17.320002 c 0,3 -0.16,3.84 -3.4,4.04 l 0,0.760001 11.08001,0 0,-0.760001 c -3.2,-0.16 -3.6,-0.92 -3.6,-3.6 l 0,-7.880001 c 0.76,-0.04 1.48,-0.04 2.24,-0.08 3.16,4.120001 6.36,8.200001 9.52,12.320002 l 6.44,0 z m -15.72,-25.000003 c 1.64,0 6.88,0.12 6.88,5.440001 0,5.72 -6,5.8 -9.36,5.84 l 0,-9.840001 c 0,-1.16 0.36,-1.44 2.48,-1.44 z"
           style=""
           id="path3446" />
        <path
           d="m 233.86828,63.446095 0,-0.760001 c -3.36,-0.12 -3.84,-0.88 -3.84,-3.6 l 0,-20.440002 2.16,0 c 4.4,0 5.52,0.72 6.36,5.120001 l 0.96,0 c -0.08,-2.280001 -0.16,-4.520001 -0.24,-6.800001 l -22.56001,0 c -0.08,2.28 -0.16,4.52 -0.24,6.800001 l 0.96,0 c 0.88,-4.360001 1.96,-5.120001 6.36001,-5.120001 l 2.16,0 0,20.000002 c 0,2.96 -0.12,3.88 -3.76001,4.04 l 0,0.760001 11.68001,0 z"
           style=""
           id="path3448" />
        <path
           d="m 252.8414,63.446095 0,-0.760001 c -2.96,-0.08 -3.92,-0.48 -3.92,-3.6 l 0,-17.760002 c 0,-3.2 1,-3.48 3.92,-3.6 l 0,-0.76 -11.88,0 0,0.76 c 3.32,0.16 3.88,0.64 3.88,3.6 l 0,17.760002 c 0,2.84 -0.48,3.52 -3.88,3.6 l 0,0.760001 11.88,0 z"
           style=""
           id="path3450" />
        <path
           d="m 271.60265,63.446095 0,-0.760001 c -3.36,-0.12 -3.84,-0.88 -3.84,-3.6 l 0,-20.440002 2.16,0 c 4.4,0 5.52,0.72 6.36,5.120001 l 0.96,0 c -0.08,-2.280001 -0.16,-4.520001 -0.24,-6.800001 l -22.56,0 c -0.08,2.28 -0.16,4.52 -0.24,6.800001 l 0.96,0 c 0.88,-4.360001 1.96,-5.120001 6.36,-5.120001 l 2.16,0 0,20.000002 c 0,2.96 -0.12,3.88 -3.76,4.04 l 0,0.760001 11.68,0 z"
           style=""
           id="path3452" />
        <path
           d="m 299.97579,63.446095 1.92,-6.960001 -1,0 c -2.28,5.24 -4.84,5.4 -10.84,5.4 -3.32,0 -4.04,-0.04 -4.04,-1.64 l 0,-18.920002 c 0,-3.16 1,-3.44 3.72,-3.6 l 0,-0.76 -11.28,0 0,0.76 c 2.52,0.2 3.48,0.44 3.48,3.6 l 0,17.760002 c 0,3.08 -0.92,3.44 -3.48,3.6 l 0,0.760001 21.52,0 z"
           style=""
           id="path3454" />
        <path
           d="m 324.43079,63.446095 c 0.6,-2.240001 1.2,-4.520001 1.8,-6.760001 l -1.12,0 c -1.76,4.04 -3.76,5.24 -8.76,5.24 -2,0 -3.32,0 -4.2,-0.08 -1.76,-0.12 -1.76,-0.52 -1.76,-1.6 l 0,-9.920001 c 8.44,0 9.88,-0.64 10.56,3.880001 l 0.92,0 0,-9.280001 -0.92,0 c -0.44,2.84 -0.84,3.8 -4.4,3.8 -2.04,0 -4.12,0 -6.16,0 l 0,-8.880001 c 0,-0.64 0.08,-1 0.32,-1.16 0.2,-0.16 0.56,-0.2 1,-0.2 l 5.4,0 c 4.44,0 5.48,0.64 6.08,4.200001 l 1,0 c -0.04,-1.920001 -0.08,-3.800001 -0.12,-5.720001 l -21.24,0 0,0.76 c 2.52,0.2 3.48,0.44 3.48,3.6 l 0,17.760002 c 0,3.08 -0.92,3.44 -3.48,3.6 l 0,0.760001 21.6,0 z"
           style=""
           id="path3456" />
        <path
           d="m 357.28392,50.846093 0,7.800001 c 0,3 -0.16,3.88 -3.52,4.04 l 0,0.760001 11.12,0 0,-0.760001 c -3.12,-0.2 -3.52,-0.96 -3.52,-3.6 l 0,-17.760002 c 0,-2.84 0.48,-3.36 3.52,-3.6 l 0,-0.76 -11.12,0 0,0.76 c 2.96,0.24 3.52,0.64 3.52,3.6 l 0,7.760001 -12.12,0 0,-7.760001 c 0,-2.84 0.48,-3.36 3.52,-3.6 l 0,-0.76 -11.12001,0 0,0.76 c 2.96,0.24 3.52,0.64 3.52,3.6 l 0,17.320002 c 0,3 -0.16,3.88 -3.52,4.04 l 0,0.760001 11.12001,0 0,-0.760001 c -3.12,-0.2 -3.52,-0.96 -3.52,-3.6 l 0,-8.240001 12.12,0 z"
           style=""
           id="path3458" />
        <path
           d="m 387.79017,63.446095 c 0.6,-2.240001 1.2,-4.520001 1.8,-6.760001 l -1.12,0 c -1.76,4.04 -3.76,5.24 -8.76,5.24 -2,0 -3.32,0 -4.2,-0.08 -1.76,-0.12 -1.76,-0.52 -1.76,-1.6 l 0,-9.920001 c 8.44,0 9.88,-0.64 10.56,3.880001 l 0.92,0 0,-9.280001 -0.92,0 c -0.44,2.84 -0.84,3.8 -4.4,3.8 -2.04,0 -4.12,0 -6.16,0 l 0,-8.880001 c 0,-0.64 0.08,-1 0.32,-1.16 0.2,-0.16 0.56,-0.2 1,-0.2 l 5.4,0 c 4.44,0 5.48,0.64 6.08,4.200001 l 1,0 c -0.04,-1.920001 -0.08,-3.800001 -0.12,-5.720001 l -21.24001,0 0,0.76 c 2.52,0.2 3.48,0.44 3.48,3.6 l 0,17.760002 c 0,3.08 -0.92,3.44 -3.48,3.6 l 0,0.760001 21.60001,0 z"
           style=""
           id="path3460" />
        <path
           d="m 416.52329,63.446095 0,-0.760001 c -1.64,-0.08 -2.6,-0.8 -3.48,-1.88 -2.76,-3.36 -5.48,-6.76 -8.24,-10.120001 2.04,-0.4 7.24,-1.36 7.24,-6.72 0,-6.120001 -6.56,-7.000001 -10.16,-7.000001 l -11.04,0 0,0.76 c 2.8,0.28 3.4,0.64 3.4,3.6 l 0,17.320002 c 0,3 -0.16,3.84 -3.4,4.04 l 0,0.760001 11.08,0 0,-0.760001 c -3.2,-0.16 -3.6,-0.92 -3.6,-3.6 l 0,-7.880001 c 0.76,-0.04 1.48,-0.04 2.24,-0.08 3.16,4.120001 6.36,8.200001 9.52,12.320002 l 6.44,0 z m -15.72,-25.000003 c 1.64,0 6.88,0.12 6.88,5.440001 0,5.72 -6,5.8 -9.36,5.84 l 0,-9.840001 c 0,-1.16 0.36,-1.44 2.48,-1.44 z"
           style=""
           id="path3462" />
        <path
           d="m 438.96204,63.446095 c 0.6,-2.240001 1.2,-4.520001 1.8,-6.760001 l -1.12,0 c -1.76,4.04 -3.76,5.24 -8.76,5.24 -2,0 -3.32,0 -4.2,-0.08 -1.76,-0.12 -1.76,-0.52 -1.76,-1.6 l 0,-9.920001 c 8.44,0 9.88,-0.64 10.56,3.880001 l 0.92,0 0,-9.280001 -0.92,0 c -0.44,2.84 -0.84,3.8 -4.4,3.8 -2.04,0 -4.12,0 -6.16,0 l 0,-8.880001 c 0,-0.64 0.08,-1 0.32,-1.16 0.2,-0.16 0.56,-0.2 1,-0.2 l 5.4,0 c 4.44,0 5.48,0.64 6.08,4.200001 l 1,0 c -0.04,-1.920001 -0.08,-3.800001 -0.12,-5.720001 l -21.24,0 0,0.76 c 2.52,0.2 3.48,0.44 3.48,3.6 l 0,17.760002 c 0,3.08 -0.92,3.44 -3.48,3.6 l 0,0.760001 21.6,0 z"
           style=""
           id="path3464" />
      </g>
    </g>
  </g>
</svg>
