<?xml version="1.0" encoding="UTF-8" standalone="no"?>
<!-- Created with Inkscape (http://www.inkscape.org/) -->

<svg
   xmlns:dc="http://purl.org/dc/elements/1.1/"
   xmlns:cc="http://creativecommons.org/ns#"
   xmlns:rdf="http://www.w3.org/1999/02/22-rdf-syntax-ns#"
   xmlns:svg="http://www.w3.org/2000/svg"
   xmlns="http://www.w3.org/2000/svg"
   xmlns:sodipodi="http://sodipodi.sourceforge.net/DTD/sodipodi-0.dtd"
   xmlns:inkscape="http://www.inkscape.org/namespaces/inkscape"
   width="99.760735mm"
   height="9.7029381mm"
   viewBox="0 0 353.48292 34.380489"
   id="svg4163"
   version="1.1"
   inkscape:version="0.91 r13725"
   sodipodi:docname="ZeroJudgeTitle.svg">
  <defs
     id="defs4165" />
  <sodipodi:namedview
     id="base"
     pagecolor="#ffffff"
     bordercolor="#666666"
     borderopacity="1.0"
     inkscape:pageopacity="0.0"
     inkscape:pageshadow="2"
     inkscape:zoom="0.98994949"
     inkscape:cx="176.8092"
     inkscape:cy="-84.04472"
     inkscape:document-units="px"
     inkscape:current-layer="layer1"
     showgrid="false"
     fit-margin-top="0"
     fit-margin-left="0"
     fit-margin-right="0"
     fit-margin-bottom="0"
     inkscape:window-width="1440"
     inkscape:window-height="851"
     inkscape:window-x="0"
     inkscape:window-y="1"
     inkscape:window-maximized="1" />
  <metadata
     id="metadata4168">
    <rdf:RDF>
      <cc:Work
         rdf:about="">
        <dc:format>image/svg+xml</dc:format>
        <dc:type
           rdf:resource="http://purl.org/dc/dcmitype/StillImage" />
        <dc:title></dc:title>
      </cc:Work>
    </rdf:RDF>
  </metadata>
  <g
     inkscape:label="Layer 1"
     inkscape:groupmode="layer"
     id="layer1"
     transform="translate(-21.033513,-9.8759792)">
    <text
       xml:space="preserve"
       style="font-style:normal;font-weight:normal;font-size:40px;line-height:125%;font-family:sans-serif;letter-spacing:0px;word-spacing:0px;fill:#000000;fill-opacity:1;stroke:none;stroke-width:1px;stroke-linecap:butt;stroke-linejoin:miter;stroke-opacity:1"
       x="97.14286"
       y="203.79079"
       id="text4711"
       sodipodi:linespacing="125%"><tspan
         sodipodi:role="line"
         id="tspan4713"
         x="97.14286"
         y="203.79079" /></text>
    <g
       style="font-style:normal;font-variant:normal;font-weight:normal;font-stretch:normal;font-size:40px;line-height:125%;font-family:GungSeo;-inkscape-font-specification:'GungSeo, Normal';text-align:start;letter-spacing:0px;word-spacing:0px;writing-mode:lr-tb;text-anchor:start;fill:#ffffff;fill-opacity:1;stroke:none;stroke-width:1px;stroke-linecap:butt;stroke-linejoin:miter;stroke-opacity:1"
       id="text4715">
      <path
         d="m 37.814001,33.915004 q -2.068293,0.03902 -3.473171,0.195122 -1.365854,0.156097 -2.770732,0.585365 0.195122,0.585366 0.312196,1.209757 0.156097,0.62439 0.507317,2.419512 2.107317,-0.273171 4.253658,-0.585366 0.273171,-0.62439 0.62439,-1.873171 0.195122,-0.62439 0.546342,-1.951219 z M 31.101806,21.34915 q 0.312195,0.936585 0.62439,1.912195 0.35122,0.97561 0.546341,1.873171 0.624391,-0.156098 2.302439,-0.429268 1.678049,-0.273171 2.692683,-0.546342 0.35122,-0.780488 0.507317,-1.24878 0.390244,-1.131708 0.390244,-1.756098 0,-0.780488 -0.546341,-0.780488 -1.170732,0 -3.239024,0.312195 -2.068293,0.312195 -3.278049,0.663415 z m 8,16.585366 q 0.429268,0.351219 0.429268,0.663414 0,0.468293 -0.62439,0.585366 -0.62439,0.117073 -1.443903,0.117073 -1.287805,0 -2.419512,0.07805 -1.131707,0.07805 -2.107317,0.312195 -0.507317,0.936586 -1.014634,0.936586 -0.702439,0 -1.560976,-2.068293 -1.092683,-2.731707 -2.146341,-5.502439 -0.312195,-0.312195 -0.312195,-0.468293 0,-0.156097 0.351219,-0.156097 0.468293,0 1.014634,0.234146 1.639025,0.741464 1.717074,0.741464 2.536585,-0.390244 3.980487,-0.585366 1.443903,-0.234147 1.834147,-0.35122 0.07805,-0.03902 0.819512,-0.429268 0.741463,-0.390244 0.936585,-0.390244 0.507317,0 1.990244,1.209756 1.482927,1.209756 1.482927,1.717073 0,0.312195 -0.546341,0.702439 -0.546342,0.35122 -0.585366,0.390244 -0.97561,1.131708 -1.795122,2.263415 z M 25.71644,31.417443 q 0.507317,1.834146 0.858536,4.917073 0.35122,3.043902 0.35122,5.112195 0,2.146341 -0.97561,2.146341 -0.741463,0 -1.560975,-1.131707 -0.780488,-1.092683 -0.780488,-2.22439 l 0,-0.741464 q 0,-2.887804 -0.468293,-5.268292 -0.585366,-3.004878 -1.834146,-4.8 -0.273171,-0.429269 -0.273171,-0.585366 0.156098,-0.195122 0.273171,-0.195122 0.702439,0 2.22439,0.97561 0.780488,0.507317 1.209756,0.507317 0.741464,0 3.356098,-0.35122 3.317073,-0.468292 6.634146,-0.975609 0.312195,-0.03902 3.785366,-0.429269 3.473171,-0.390244 5.502439,-0.390244 0.858537,0 1.6,-0.429268 0.741463,-0.429268 0.858537,-0.429268 0.507317,0 2.185365,1.834146 1.678049,1.834146 1.678049,2.341463 0,0.312196 -0.273171,0.663415 -0.780487,0.97561 -0.780487,1.014634 -0.780488,3.082927 -1.560976,6.12683 -1.24878,3.746341 -3.512195,4.956097 -0.312195,0.195122 -0.741464,0.195122 -0.702439,0 -0.897561,-0.858537 -0.156097,-0.819512 -1.014634,-1.795121 -0.819512,-0.936586 -1.678048,-1.873171 0,-0.234147 0.507317,-0.234147 0.429268,0 1.131707,0.117074 0.702439,0.156097 1.482927,0.312195 0.819512,0 2.068292,-4.019512 1.131708,-3.707318 1.131708,-5.034147 0,-1.326829 -1.482927,-1.326829 l -0.819512,-0.03902 q -1.834147,0 -4.019512,0.156097 -2.146342,0.117073 -4.565854,0.35122 -1.404878,0.07805 -2.380488,0.156097 -0.936585,0.03902 -2.107317,0.312195 -1.131707,0.273171 -2.497561,0.546342 -1.365854,0.27317 -2.614634,0.390244 z m 14.165854,-6.946342 q 0.312195,0.312195 0.312195,0.585366 0,0.35122 -0.546342,0.585366 -0.546341,0.195122 -1.053658,0.195122 -1.6,0 -3.082927,0.195122 -1.443903,0.195122 -2.887805,0.702439 -0.234146,0.351219 -0.35122,0.468293 -0.27317,0.234146 -0.62439,0.234146 -1.092683,0 -1.951219,-2.185366 -0.546342,-1.560976 -1.053659,-3.160976 -0.03902,-0.07805 -1.170732,-1.87317 -0.468292,-0.741464 -0.468292,-0.819513 0,-0.117073 0.390244,-0.195121 0.507317,0 1.560975,0.507317 1.053659,0.468292 1.443903,0.468292 0.546341,0 1.287805,-0.156097 0.741463,-0.195122 1.443902,-0.390244 l 4.487805,-0.585366 q 0.546341,-0.390244 0.897561,-0.62439 0.663415,-0.468293 0.897561,-0.468293 0.507317,0 2.185366,1.248781 1.678049,1.209756 1.678049,1.6 0,0.351219 -0.468293,0.702439 -0.429268,0.351219 -0.819512,0.62439 -0.234147,0.234146 -1.287805,1.443902 -0.585366,0.62439 -0.819512,0.897561 z m -6.478049,-9.443902 q 0,-0.429269 0,-0.585366 0,-0.507317 -0.03903,-0.780488 -0.03902,-0.312195 -0.234146,-0.819512 -0.312195,-0.858537 -1.6,-1.6 -0.546341,-0.312195 -0.546341,-0.507317 0,-0.273171 0.351219,-0.390244 0.390244,-0.156098 1.092683,-0.156098 1.482927,0 2.848781,0.585366 1.404878,0.585366 1.404878,1.521951 0,0.35122 -0.156098,1.131708 -0.156098,0.780488 -0.156098,1.209756 0.819513,0 2.263415,-0.156098 1.443903,-0.195122 1.990244,-0.390244 1.131707,-0.468292 1.990244,-0.468292 0.62439,0 1.678049,0.468292 1.092683,0.468293 1.092683,1.014635 0,0.507317 -0.468293,0.741463 -0.468293,0.195122 -1.053659,0.195122 -3.121951,0 -7.063414,0.312195 -3.902439,0.312195 -6.829269,0.897561 -0.897561,0.312195 -1.756097,0.62439 -1.131707,0 -3.356098,-2.029268 -0.234146,-0.468293 -0.429268,-0.97561 0.35122,0.117073 0.546341,0.156098 1.404879,0.429268 3.707318,0.429268 1.287804,0 2.419512,-0.117073 1.170731,-0.117073 2.302439,-0.312195 z"
         style="fill:#ffffff"
         id="path4720" />
      <path
         d="m 74.653025,28.022321 -0.03902,-7.063415 q -2.068293,0.35122 -3.278049,0.546342 -2.380488,0.390243 -3.707317,0.390243 -1.131707,0 -1.951219,-0.234146 0.390243,0.97561 0.975609,3.629268 0.390244,1.912196 0.819512,3.824391 2.419513,-0.35122 3.590244,-0.507317 2.185366,-0.312196 3.590244,-0.585366 z m 2.92683,-7.297561 0,6.790244 q 3.434146,0 6.126829,-0.585366 0.819512,-1.560976 1.404878,-2.926829 0.897561,-2.107318 0.897561,-3.043903 0,-0.819512 -1.014634,-0.819512 -1.521952,0 -3.707317,0.195122 -1.014635,0.07805 -3.707317,0.390244 z m 0,8.702439 0,6.634146 q 0,3.55122 -0.468293,5.77561 -0.468293,2.263414 -1.287805,2.263414 -0.663415,0 -0.936585,-2.22439 -0.273171,-2.185366 -0.273171,-4.8 l 0.03902,-7.37561 q -1.756097,0.195122 -3.707317,0.507318 -1.951219,0.312195 -3.2,0.62439 -0.156097,0.702439 -0.273171,1.053658 -0.234146,0.702439 -0.702439,0.702439 -0.546341,0 -1.365853,-0.819512 -0.234147,-0.234146 -0.663415,-0.780488 -0.390244,-0.546341 -0.585366,-1.443902 -0.156097,-1.131707 -0.234146,-1.678049 -0.234146,-1.365854 -0.741463,-2.926829 -0.195122,-0.62439 -1.014635,-2.926829 -0.07805,-0.312196 -0.780487,-1.639025 -0.195122,-0.429268 -0.663415,-1.24878 0,-0.273171 0.62439,-0.273171 1.131708,0 2.380488,0.741463 0.663415,0.429269 1.365854,0.858537 1.131707,0 4.995122,-0.507317 3.902439,-0.546342 4.565853,-0.819512 l 0.03902,-2.770732 -0.07805,-2.068293 q -0.07805,-0.819512 -0.780488,-1.756097 -0.663415,-0.97561 -1.365854,-1.912195 0,-0.195122 0.273171,-0.312195 0.273171,-0.156098 0.741464,-0.156098 1.287804,0 3.082926,1.014634 2.068293,1.170732 2.068293,2.302439 0,0.35122 -0.195122,0.702439 -0.195122,0.35122 -0.390244,0.663415 -0.156097,0.312195 -0.273171,1.834146 -0.117073,1.521951 -0.117073,2.263415 2.965854,0 4.370732,-0.156098 2.965854,-0.312195 4.058537,-1.365853 0.390244,-0.312196 0.702439,-0.312196 0.62439,0 2.809756,1.834147 2.185366,1.834146 2.185366,2.380488 0,0.312195 -0.273171,0.585365 -0.468293,0.429269 -0.936586,0.819513 -0.741463,0.897561 -1.990243,2.536585 -1.443903,1.873171 -1.795122,2.497561 -0.507317,0.97561 -0.624391,1.131707 -0.390244,0.429269 -1.170731,0.429269 -0.936586,0 -1.560976,-0.03902 -2.419512,-0.156097 -2.692683,-0.156097 -1.951219,0 -3.160975,0.312195 z"
         style="fill:#ffffff"
         id="path4722" />
      <path
         d="m 115.97985,39.651589 0,-7.921951 q -1.63902,0.195122 -2.45853,0.429268 -0.42927,0.117073 -1.32683,0.585366 -0.35122,0.117073 -0.66342,0.234146 -0.27317,0.07805 -0.62439,0.03903 -0.89756,0 -2.69268,-0.858537 -1.05366,-0.507317 -1.05366,-0.819512 0,-0.195122 0.3122,-0.234146 0.35122,-0.03902 0.66341,-0.03902 1.20976,0 4.13659,-0.312195 2.92683,-0.351219 3.70731,-0.62439 l 0.039,-6.517073 q -1.36585,0.156097 -2.38049,0.429268 -1.01463,0.234146 -1.32683,0.234146 -0.50732,0 -1.13171,-0.234146 -0.62439,-0.234146 -2.34146,-1.092683 -1.01463,1.795122 -3.08293,4.058537 -2.61463,2.84878 -4.05853,2.84878 -0.27317,0 -0.27317,-0.273171 2.45853,-3.746341 4.29268,-6.907317 1.99024,-3.434146 1.99024,-5.736585 0,-0.429268 -0.27317,-1.092683 -0.23414,-0.663415 -0.23414,-0.858537 0,-0.429268 0.54634,-0.507317 1.13171,0 2.73171,1.32683 1.6,1.326829 1.6,2.341463 0,0.351219 -0.54635,0.819512 -0.54634,0.468293 -0.66341,0.663415 l -1.56098,2.57561 q 0.66342,0.117073 2.0683,0.117073 1.36585,0 2.69268,-0.117073 1.32683,-0.117074 1.91219,-0.35122 l 0,-6.673171 q 0,-0.897561 -0.74146,-2.107317 -0.74146,-1.24878 -1.52195,-2.497561 0,-0.429268 0.62439,-0.351219 1.28781,0 3.2,0.819512 2.26341,0.97561 2.26341,2.068293 0,0.429268 -0.50731,1.678048 -0.27317,0.663415 -0.27317,1.053659 l -0.039,5.580488 q 0.62439,-0.07805 2.77073,-0.97561 1.01464,-0.429268 1.63903,-0.429268 0.89756,0 1.95122,0.390244 1.09268,0.390244 1.09268,1.053658 0,1.014634 -3.23902,1.521951 -2.22439,0.35122 -4.17561,0.35122 l -0.039,6.243902 q 0.4683,0 2.0683,-0.546341 0.78048,-0.273171 1.36585,-0.273171 1.09268,0 2.14634,0.35122 1.52195,0.507317 1.52195,1.326829 0,0.429268 -0.39024,0.663415 -0.35122,0.195121 -0.81951,0.195121 l -5.93171,0.03902 0,2.029268 q 0,0.507317 0,0.741464 0,0.429268 0,0.663414 0,2.536586 -0.27317,4.604878 l 2.45853,-0.117073 1.40488,0 q 0.46829,0 0.66342,0 1.01463,0 1.63902,-0.07805 0.66342,-0.07805 1.56098,-0.234146 0.89756,-0.195122 1.4439,-0.195122 1.05366,0 2.49756,1.053659 1.4439,1.053658 1.4439,2.068292 0,0.468293 -0.42927,0.741464 -0.39024,0.312195 -0.85853,0.312195 l -0.50732,-0.07805 q -2.22439,-1.014634 -4.6439,-1.482927 -2.41951,-0.429268 -5.22927,-0.429268 -3.00488,0 -6.28293,0.546341 -3.23902,0.585366 -5.85366,1.639025 -0.62439,0.390244 -0.93658,0.546341 -0.58537,0.312195 -1.09268,0.312195 -0.66342,0 -2.88781,-1.287805 -2.18536,-1.287804 -2.18536,-1.834146 0,-0.273171 0.58536,-0.273171 0.70244,0 1.24878,0.07805 1.95122,0.273171 2.02927,0.273171 2.77073,0 5.38537,-0.312195 2.65365,-0.312195 5.85365,-0.97561 z"
         style="fill:#ffffff"
         id="path4724" />
      <path
         d="m 158.98473,15.027199 q 0.42927,1.365853 0.74147,2.731707 0.35122,1.365854 0.54634,2.770732 1.79512,-0.234147 2.69268,-0.312195 1.67805,-0.195122 2.69268,-0.546342 0.39025,-1.365853 0.66342,-2.536585 0.50732,-2.107317 0.50732,-2.57561 0,-0.819512 -0.58537,-0.819512 -1.01463,0 -3.74634,0.468293 -2.69269,0.468292 -3.5122,0.819512 z m -9.83414,6.439024 q -0.11708,1.95122 -0.11708,4.019512 0.3122,0.195122 2.0683,0.624391 2.45853,0.62439 2.45853,2.380487 0,0.624391 -0.62439,0.624391 -0.78049,0 -2.26341,-0.780488 -1.52195,-0.897561 -1.71708,-1.014634 l -0.31219,9.87317 q 0,3.082927 -0.35122,4.565854 -0.35122,1.521951 -1.05366,1.521951 -0.54634,0 -1.09268,-1.326829 -0.54634,-1.326829 -0.54634,-2.029268 0,-0.35122 0.039,-0.663415 0,-0.117073 0.11707,-0.62439 0.35122,-2.22439 0.4683,-5.112195 0.15609,-2.887805 0.15609,-5.892683 -1.40487,1.678049 -3.82439,3.863414 -3.12195,2.809757 -4.21463,2.809757 l -0.1561,-0.117074 q 0.039,-0.27317 0.42927,-0.741463 0.39024,-0.468293 0.74146,-0.819512 2.49757,-2.731708 3.98049,-4.917073 1.83415,-2.692683 2.92683,-5.580488 -0.58536,0.117073 -3.31707,1.092683 -2.41951,0.858536 -3.08293,0.858536 -0.54634,0 -1.63902,-0.312195 -1.09269,-0.312195 -1.09269,-0.62439 0,-0.156098 0.42927,-0.234146 0.42927,-0.117074 0.66342,-0.117074 1.91219,-0.234146 3.86341,-0.741463 1.99025,-0.546341 4.21464,-1.365854 l 0.039,-1.404878 q 0,-1.131707 -0.19512,-1.795122 -0.19512,-0.702439 -0.85854,-1.014634 -1.13171,0.312195 -2.38049,0.663415 -1.20975,0.312195 -2.18536,0.312195 -0.1561,0 -0.3122,-0.07805 -0.039,-0.03902 -0.078,-0.07805 0,-0.390244 3.6683,-2.263414 3.98048,-2.029269 4.60487,-2.809756 0.078,-0.117074 0.1561,-0.780488 0.11708,-0.702439 0.66342,-0.702439 0.89756,0 2.41951,0.936585 1.52195,0.936586 1.52195,1.756098 0,0.351219 -0.74146,0.507317 -0.74147,0.156097 -1.32683,0.234146 -0.81951,0.234147 -1.95122,0.780488 -1.09268,0.507317 -1.67805,0.780488 1.05366,0.507317 1.40488,0.897561 0.39024,0.390244 0.39024,0.897561 0,0.195122 -0.11707,0.858536 -0.11707,0.663415 -0.11707,1.209756 1.36585,-0.390243 2.7317,-0.780487 0.74147,0 1.63903,0.312195 0.93658,0.27317 0.93658,0.858536 0,0.624391 -2.34146,1.053659 -1.52195,0.234146 -3.0439,0.429268 z m 12.17561,17.990244 -0.078,-5.190244 q -0.4683,0 -0.85854,0.07805 -1.36585,0.273171 -1.52195,0.273171 -0.66342,0 -2.02927,-0.35122 -1.36585,-0.351219 -1.36585,-0.741463 0,-0.156098 0.27317,-0.195122 0.27317,-0.03903 0.70244,-0.03903 l 0.46829,0 q 1.09268,0 2.18537,-0.156097 1.09268,-0.156098 2.18536,-0.429268 l 0,-1.404879 q 0,-1.287804 -0.23414,-2.107317 -0.23415,-0.858536 -1.05366,-1.326829 -2.10732,0.273171 -4.21464,0.546342 -1.09268,0 -1.09268,-0.234147 0,-0.156097 0.42927,-0.390244 0.46829,-0.234146 0.89756,-0.351219 2.41951,-0.741464 4.87805,-1.521951 3.3561,-1.131708 4.4878,-2.068293 0.1561,-0.117073 0.23415,-0.819512 0.0781,-0.741464 0.39024,-0.741464 0.74147,0 1.83415,1.131708 1.13171,1.092683 1.13171,1.834146 0,0.546341 -1.6,1.053659 -1.56098,0.468292 -4.37074,0.819512 0.97561,0.546341 1.36586,1.014634 0.42927,0.429268 0.42927,0.897561 0,0.156097 -0.27317,1.24878 -0.23415,1.053659 -0.23415,1.560976 0.54634,0 1.32683,-0.234146 1.79512,-0.546342 2.30244,-0.546342 0.85853,0 1.7561,0.273171 0.89756,0.234146 0.89756,0.858536 0,0.741464 -2.77074,1.131708 -1.91219,0.273171 -3.51219,0.273171 l 0,5.502439 q 0.39024,0 0.58537,0 0.35122,0 0.50731,0 1.44391,0 2.02927,-0.03903 0.58537,-0.07805 1.56098,-0.273171 l 0.85853,-0.07805 q 1.13171,0 2.73171,0.62439 1.63902,0.663415 1.63902,1.560975 0,0.390244 -0.39024,0.624391 -0.39024,0.234146 -0.81951,0.234146 l -0.3122,0 q -1.36585,-0.273171 -2.80975,-0.62439 -3.0439,-0.702439 -4.76098,-0.702439 -1.7561,0 -4.68292,0.351219 -2.88781,0.390244 -4.13659,0.897561 -0.50732,0.195122 -0.85854,0.273171 -0.35122,0.117073 -0.78048,0.117073 -0.4683,0 -1.9122,-0.663414 -1.40488,-0.663415 -1.40488,-1.014635 0,-0.07805 0.19512,-0.156097 0.039,0 0.19513,-0.03903 l 2.30244,0.195122 q 1.36585,0 3.74634,-0.351219 0.35122,-0.03902 3.55122,-0.585366 z m 6.82926,-19.629268 q 0.3122,0.195122 0.50732,0.429268 0.19512,0.195122 0.19512,0.468293 0,0.429268 -0.54634,0.546341 -0.54634,0.117073 -1.24878,0.117073 -1.36585,0 -3.62927,0.195122 -2.22439,0.156098 -3.00487,0.429269 0,0.780487 -0.66342,0.780487 -1.36585,0 -2.22439,-2.887804 -0.54634,-2.029269 -1.09268,-4.058537 -0.35122,-0.819512 -0.81951,-1.756098 -0.4683,-0.936585 -0.89757,-1.834146 l 0.11708,-0.156098 q 0.54634,0 1.79512,0.741464 0.89756,0.546341 1.79512,1.053658 l 7.41464,-1.287804 q 0.19512,-0.07805 0.85853,-0.507318 0.66342,-0.429268 0.81951,-0.429268 0.42927,0 2.18537,1.365854 1.79512,1.326829 1.79512,1.678049 0,0.234146 -0.27317,0.468292 -0.27317,0.195122 -0.50732,0.35122 -0.54634,0.546341 -1.40487,2.029268 -0.62439,1.092683 -1.17074,2.263415 z"
         style="fill:#ffffff"
         id="path4726" />
      <path
         d="m 187.51156,37.622321 q 0.039,-0.585366 0.11708,-1.756098 0.078,-1.209756 0.078,-2.458536 0,-1.131708 -0.078,-1.873171 -0.078,-0.741464 -0.3122,-0.897561 l -1.4439,0.117073 q -0.50732,0 -1.87317,-0.62439 -1.36586,-0.62439 -1.36586,-1.053659 0.11708,-0.07805 0.1561,-0.07805 0.27317,-0.117073 0.39024,-0.117073 0.27318,0 0.85854,0.07805 0.58537,0.07805 0.89756,0.07805 1.56098,0 4.01951,-0.936586 2.49757,-0.975609 3.5122,-0.975609 0.78049,0 1.71707,0.27317 0.93659,0.273171 0.93659,0.897561 0,0.585366 -2.34147,1.170732 -1.52195,0.35122 -3.00487,0.663415 1.01463,0.780488 1.01463,1.482927 0,0.234146 -0.19512,0.897561 -0.19512,0.663414 -0.19512,1.170731 l -0.039,2.848781 q 0.66342,-0.312195 3.27805,-1.326829 2.65366,-1.053659 2.96585,-1.053659 0.35122,0.117073 0.35122,0.195122 0,0.429268 -2.61463,2.107317 -3.31707,2.107317 -6.75122,3.941463 -0.62439,0.312196 -0.97561,0.468293 -0.62439,0.312195 -0.97561,0.62439 -0.078,0.07805 -0.46829,0.663415 -0.35122,0.585366 -0.74146,0.585366 -0.97561,0 -2.26342,-1.482927 -1.2878,-1.482927 -1.2878,-2.497561 0,-0.273171 0.35122,-0.273171 0.27317,0 1.05365,0.273171 0.42927,0.156098 0.62439,0.156098 1.09269,0 2.38049,-0.35122 1.32683,-0.351219 2.22439,-0.936585 z m 8.11708,-15.882927 q -2.18537,0.351219 -4.44879,0.741463 -2.22439,0.390244 -4.29268,1.053659 -0.1561,0.03902 -1.05366,0.507317 -0.70244,0.351219 -1.1317,0.351219 -0.42927,0 -2.02927,-1.209756 -1.56098,-1.24878 -1.56098,-1.639024 0,-0.234146 0.62439,-0.234146 0.50732,0 1.36586,0.156097 0.85853,0.117073 1.87317,0.273171 l 1.56097,-0.117073 8.81951,-1.170732 q -0.27317,-1.639024 -0.42926,-2.536585 -0.50732,-2.92683 -1.09269,-4.214635 -0.11707,-0.312195 -0.97561,-1.795121 -0.85853,-1.482927 -0.85853,-1.560976 0,-0.3512196 0.62439,-0.3512196 1.17073,0 3.12195,1.1707316 1.99024,1.131707 1.99024,2.185366 0,0.273171 -0.19512,0.819512 -0.19512,0.546342 -0.19512,0.819512 l 0.27317,5.073171 q 0.54634,0 1.56097,-0.117073 1.05366,-0.156098 1.20976,-0.195122 1.52195,-0.35122 3.0439,-0.741463 1.13171,0 2.45854,0.780487 1.32683,0.780488 1.32683,1.443903 0,0.585366 -1.17073,0.702439 -1.24878,0 -2.49756,-0.117073 -3.74635,-0.35122 -4.17561,-0.35122 l -1.52195,0.07805 q 0.85853,4.878049 2.84878,8.897561 2.26341,4.604878 5.69756,7.414634 0.62439,0.507317 1.05366,0.780488 0.81951,0.546341 1.20975,0.546341 0.50732,0 0.81951,-3.043902 0.078,-0.936585 0.11708,-1.560976 0.0781,-0.62439 0.11707,-0.897561 0.039,-0.27317 0.1561,-0.27317 0.50731,0 0.93658,2.107317 1.05366,5.385365 1.87317,6.321951 0.19513,0.195122 0.39025,0.507317 0.19512,0.312195 0.19512,0.62439 0,1.131707 -1.24878,1.131707 -0.74146,0 -1.4439,-0.312195 -5.58049,-2.653658 -9.71708,-9.365853 -3.39512,-5.541464 -5.22926,-12.682927 z m 14.04878,-4.097561 q 0,0.390244 -0.19513,0.741463 -0.15609,0.312195 -0.54634,0.312195 -0.78049,0 -4.25366,-2.692682 -3.43414,-2.731708 -3.43414,-3.278049 0,-0.234147 0.46829,-0.234147 0.46829,0 0.66341,0.03903 0.27318,0.117073 0.3122,0.117073 3.86341,1.209756 4.44878,1.482927 2.53659,1.287805 2.53659,3.512195 z"
         style="fill:#ffffff"
         id="path4728" />
      <path
         d="m 226.614,31.144272 -0.039,-3.395122 -1.40488,0.117073 q -0.93659,0 -1.56098,-0.156097 0,0.858536 -0.039,1.404878 -0.1561,2.185365 -0.1561,2.380487 1.24878,0 1.7561,-0.03902 0.50732,-0.07805 1.4439,-0.312195 z m 5.69756,-0.702439 0,-7.882927 q 0,-0.62439 -0.35122,-1.170732 -0.35122,-0.546341 -0.93658,-0.546341 l -3.3561,0.663415 q 0.97561,0.702439 1.24878,1.131707 0.27317,0.390244 0.27317,1.053658 l -0.039,1.560976 q 0.66341,-0.117073 1.1317,-0.195122 0.50732,-0.07805 0.89756,-0.07805 0.1561,0 0.39025,0.273171 0.27317,0.273171 0.27317,0.585366 0,0.62439 -0.97561,0.897561 -0.93659,0.273171 -1.71707,0.468293 0,0.62439 -0.078,2.068292 -0.078,1.404878 -0.078,1.521951 0.39024,-0.07805 1.13171,-0.27317 0.78048,-0.234147 1.20975,-0.234147 0.46829,0 0.97561,0.156098 z m 0,0.897561 q -0.39024,0.351219 -2.02927,0.62439 -1.1317,0.156098 -2.26341,0.312195 -1.52195,0.35122 -3.0439,0.663415 -0.42927,0 -0.81952,-0.234146 -0.39024,-0.234147 -0.74146,-0.468293 0,3.317073 -0.23415,5.658536 -0.42926,4.448781 -1.6,4.448781 -0.46829,0 -0.89756,-1.326829 -0.39024,-1.32683 -0.39024,-2.029269 0,-0.975609 0.27317,-2.458536 0.62439,-3.434147 0.62439,-4.604878 l 0.0781,-7.570732 q 0,-0.663415 -0.42927,-1.482927 -0.39024,-0.858536 -0.81951,-1.756097 0,-0.312195 0.39024,-0.312195 1.01464,0 2.14634,1.092682 1.17074,1.053659 1.17074,2.068293 0,0.195122 -0.0781,0.663415 -0.078,0.468292 -0.078,0.507317 l 0,1.678049 q 0.54634,-0.195122 1.56097,-0.468293 1.01464,-0.273171 1.44391,-0.468293 l 0.039,-1.482927 q 0,-0.819512 -0.1561,-1.24878 -0.15609,-0.468293 -0.66341,-0.819512 -1.20976,0 -2.14634,-0.07805 -0.89756,-0.07805 -0.89756,-0.468293 0,-0.234146 0.97561,-0.507317 1.01463,-0.312195 2.14634,-0.663414 0.85853,-0.702439 2.69268,-3.239025 1.83415,-2.57561 2.10732,-3.551219 l -2.65366,0.03902 q -1.6,1.482927 -3.3561,2.965854 -3.55122,3.004878 -5.50244,3.004878 l -0.23414,-0.117073 q 2.26341,-2.419513 4.09756,-4.643903 2.02927,-2.419512 2.41951,-3.707317 l -0.039,-0.936585 q 0,-0.390244 0.50732,-0.390244 0.81951,0 2.02927,0.741463 1.20976,0.702439 1.20976,1.326829 0,0.312196 -0.27317,0.468293 l 2.34146,-0.03902 0.31219,-0.117073 q 0.50732,0 1.32683,0.702439 1.48293,1.287805 1.48293,2.107317 0,0.234146 -0.46829,0.507317 -0.4683,0.273171 -0.85854,0.468292 -2.22439,1.912196 -2.53658,2.185366 -0.97561,0.936586 -1.44391,1.404878 0.62439,0 1.36586,-0.312195 0.78048,-0.351219 1.6,-0.741463 0.54634,0 2.14634,1.24878 1.6,1.209756 1.6,1.717073 0,0.273171 -0.42927,1.053659 -0.42927,0.780488 -0.42927,1.404878 l 0.039,12.956098 q 0,2.107317 -0.27317,3.356097 -0.50732,2.341464 -1.83415,2.341464 -0.46829,0 -1.01464,-1.131708 -0.19512,-0.429268 -0.39024,-0.858536 -1.09268,-1.170732 -1.71707,-1.834147 -0.62439,-0.663414 -0.62439,-0.897561 0,-0.117073 0.35122,-0.195122 0.31219,0 0.97561,0.156098 0.66341,0.156098 0.97561,0.156098 0.46829,0 0.70244,-0.234147 0.23414,-0.234146 0.23414,-0.897561 l 0,-5.736585 z m 15.29756,1.014634 -0.039,9.404878 q 0,1.287805 -0.27317,1.873171 -0.27317,0.585366 -0.74147,0.585366 -0.66341,0 -1.2878,-1.092683 -0.58537,-1.092683 -0.58537,-2.57561 0,-0.546341 0.0781,-1.834146 0.078,-1.32683 0.078,-1.404878 l 0,-4.565854 q -1.17073,0 -3.2,0.780488 -1.99024,0.741463 -4.05854,1.560975 -0.39024,0 -1.52195,-0.507317 -1.1317,-0.546341 -1.1317,-0.858536 0,-0.312195 1.1317,-0.312195 1.01464,0 5.58049,-1.170732 2.57561,-0.702439 3.2,-0.858537 l -0.039,-3.629268 q -0.89756,0.234146 -1.87317,0.468293 -0.93659,0.195122 -1.7561,0.27317 -0.50732,0.858537 -1.52195,2.107317 -1.32683,1.6 -1.83415,1.6 -0.19512,0 -0.19512,-0.351219 0,-0.546342 1.05366,-3.043902 1.05366,-2.497561 1.05366,-4.019513 0,-0.234146 -0.19513,-0.585366 -0.15609,-0.351219 -0.15609,-0.507317 0,-0.312195 0.39024,-0.312195 1.05366,0 1.79512,0.585366 0.78049,0.585366 0.78049,1.6 0,0.780488 -0.54634,1.443903 0.93658,-0.117074 1.63902,-0.273171 0.70244,-0.156098 1.40488,-0.429268 l 0.039,-0.819513 q 0,-0.897561 -0.3122,-1.560975 -0.39024,-0.624391 -0.78049,-1.248781 0,-0.27317 0.54634,-0.27317 1.13171,0 2.26342,0.507317 1.13171,0.468292 1.13171,1.443902 -0.11708,0.819512 -0.1561,1.209756 1.09268,-0.273171 2.22439,-0.546341 0.50732,0 1.09268,0.312195 0.62439,0.312195 0.62439,0.741463 0,0.62439 -1.67805,0.936586 -1.87317,0.234146 -2.22439,0.27317 l 0.039,3.629269 q 0.50731,0 1.52195,-0.234147 1.01463,-0.234146 1.56097,-0.234146 1.09269,0 1.83415,0.468293 0.78049,0.429268 0.78049,0.936585 0,0.663415 -1.36586,0.663415 -0.74146,0 -2.02926,-0.07805 -1.24878,-0.117073 -1.48293,-0.117073 l -0.85854,0.03902 z m -4.21463,-18.809756 q 0.81951,0.702439 1.09268,0.97561 0.74147,0.780487 0.74147,1.24878 0,0.312195 -0.58537,0.585366 -0.54634,0.273171 -0.62439,0.35122 -1.20976,1.404878 -2.02927,2.341463 -2.8878,3.239024 -4.33171,3.239024 -0.31219,0 -0.31219,-0.234146 1.56097,-2.380488 2.80975,-4.409756 1.40488,-2.263415 1.52196,-3.434146 -0.42927,0.156097 -0.89757,0.234146 -0.42926,0.07805 -0.93658,0.07805 -0.74146,0 -1.99024,-0.702439 -1.24879,-0.741464 -1.24879,-1.131708 0,-0.234146 0.50732,-0.234146 l 1.4439,0.117073 q 1.99025,0 3.98049,-0.312195 1.99025,-0.351219 4.05854,-1.014634 0.23415,-0.03902 1.20975,-0.585366 0.42927,-0.234146 0.58537,-0.234146 0.54634,0 2.14634,1.209756 1.63903,1.170732 1.63903,1.678049 0,0.234146 -0.35122,0.741463 -0.35122,0.468293 -0.42927,0.741463 -0.81951,2.770732 -1.83415,4.643903 -1.67805,3.121951 -3.47317,3.121951 -0.27317,0 -0.46829,-0.195122 -0.19512,-0.195122 -0.3122,-0.702439 -0.078,-0.507317 -0.97561,-2.029268 -0.39024,-0.663415 -0.39024,-0.858537 0.1561,-0.195122 0.23415,-0.195122 0.31219,0 0.81951,0.195122 0.54634,0.195122 1.20975,0.429269 0.58537,0 1.40488,-2.380488 0.85854,-2.419512 0.85854,-3.356098 0,-0.546341 -0.39024,-0.780488 -0.39025,-0.234146 -0.93659,-0.234146 -0.23415,0 -1.13171,0.273171 -1.32683,0.429268 -2.61463,0.819512 z"
         style="fill:#ffffff"
         id="path4730" />
      <path
         d="m 271.33595,19.632077 0,-5.77561 q 0,-0.819512 -0.31219,-1.326829 -0.3122,-0.546342 -1.05366,-0.546342 -0.58537,0 -2.06829,0.35122 -1.44391,0.312195 -2.22439,0.585366 l 0.039,3.043902 q 1.79512,-0.429268 3.62927,-0.858536 0.66341,0 1.01463,0.156097 0.35122,0.156098 0.35122,0.468293 0,0.741463 -2.18536,1.209756 -1.63903,0.351219 -2.84878,0.351219 l 0.039,3.317074 q 1.36585,-0.312196 2.80976,-0.585366 1.4439,-0.273171 2.80975,-0.390244 z m 16.1561,10.458536 0,-9.287804 q 0,-0.624391 -0.54634,-0.897561 -0.50732,-0.312196 -1.36586,-0.312196 -0.85853,0 -1.91219,0.273171 -2.57561,0.663415 -3.16098,0.663415 l -0.85853,-0.07805 q 0.66341,0.663415 0.66341,1.717073 l -0.039,0.546342 0.39024,0 q 0.74146,0 1.99025,-0.35122 1.2878,-0.390244 1.83414,-0.390244 0.62439,0 1.32683,0.195122 0.74146,0.195122 0.74146,0.702439 0,0.663415 -1.71707,1.014634 -1.67805,0.35122 -4.56585,0.35122 l 0,2.302439 q 1.05366,-0.156098 2.10731,-0.35122 0.50732,-0.156097 1.09269,-0.351219 0.58536,-0.195122 1.09268,-0.195122 0.58537,0 1.13171,0.195122 0.58536,0.195122 0.58536,0.663414 0,0.624391 -2.41951,1.053659 -2.38049,0.429268 -3.59024,0.429268 l 0,2.731708 q 2.38049,-0.312195 3.98049,-0.468293 1.6,-0.156098 3.23902,-0.156098 z m -22.94634,4.995122 q -0.85854,1.990244 -2.34147,4.097561 -2.06829,2.965854 -3.43414,2.965854 -0.19512,-0.156098 -0.19512,-0.234146 0,-0.273171 0.27317,-0.780488 0.27317,-0.507317 0.35122,-0.663415 1.01463,-1.717073 1.99024,-4.565853 1.01463,-2.848781 1.01463,-4.565854 0,-0.390244 -0.42926,-0.936585 -0.42927,-0.546342 -0.42927,-0.819513 0,-0.234146 0.31219,-0.312195 0.1561,-0.03902 0.4683,-0.03902 0.89756,0 2.34146,0.858536 1.48293,0.819513 1.48293,1.6 0,0.117074 -0.50732,1.053659 -0.3122,0.585366 -0.62439,1.170732 l 2.14634,0.819512 0,-6.595122 q 0,-0.429268 -0.27317,-1.053659 -0.23415,-0.663414 -0.50732,-0.897561 -0.70244,0.117074 -2.38049,0.897561 -1.67804,0.780488 -1.91219,0.780488 -0.70244,0 -2.49756,-1.170732 -0.97561,-0.62439 -0.97561,-0.936585 0,-0.195122 0.50732,-0.195122 0.27317,0 0.85853,0.07805 0.58537,0.07805 0.85854,0.07805 1.6,0 4.91707,-0.702439 2.45854,-0.546342 4.9561,-1.092683 0.27317,-0.03902 0.89756,-0.273171 0.62439,-0.273171 1.17073,-0.273171 1.40488,0 2.18537,0.507317 0.81951,0.507317 0.81951,1.131708 0,0.819512 -1.17073,0.819512 l -4.01951,-0.117073 -1.71708,0.07805 q 0.81952,0.429269 0.81952,1.209757 l -0.11708,2.341463 q 1.71708,-0.429268 3.43415,-0.858537 0.50732,0 1.20976,0.273171 0.70243,0.273171 0.70243,0.663415 0,0.741463 -2.30243,1.170731 -1.71708,0.312196 -3.00488,0.312196 l 0,4.760975 q 2.45853,1.560976 7.21951,2.809756 3.62927,0.936586 9.24878,1.795122 3.16098,0.468293 8.39024,1.092683 0.70244,0.117073 0.70244,0.585366 0,0.62439 -2.38049,1.443902 -2.38048,0.819513 -3.27804,0.819513 -1.05366,0 -2.96586,-0.585366 -1.36585,-0.429268 -1.79512,-0.546342 -3.31707,-0.975609 -6.82927,-2.302439 -2.92683,-1.092683 -6.63414,-2.731707 -1.79513,-0.780488 -6.5561,-2.965854 z m 17.4439,0.234147 q 0.039,0.429268 -0.50732,0.585366 -0.50731,0.117073 -0.97561,0.195121 -0.85853,0.312196 -1.67804,0.624391 -1.9122,0.663414 -3.04391,0.663414 -0.54634,0 -0.54634,-0.27317 0,-0.390244 0.89756,-1.053659 1.24878,-0.897561 2.49756,-1.834146 0.11708,-0.156098 0.19513,-0.858537 0.078,-0.741463 0.42926,-0.741463 0.78049,0 1.7561,0.97561 0.97561,0.975609 0.97561,1.717073 z M 271.37498,21.154028 q -1.28781,0 -2.77074,0.234146 -1.48292,0.195122 -2.96585,0.585366 -0.19512,0.62439 -0.89756,0.62439 -0.66341,0 -1.09268,-0.546341 -0.54634,-0.702439 -0.54634,-1.990244 l 0.039,-5.931707 q 0,-0.585366 -0.70244,-1.990244 -0.35122,-0.702439 -0.35122,-0.897561 0.1561,-0.195122 0.27317,-0.195122 0.35122,0 1.13171,0.273171 0.81951,0.27317 1.13171,0.507317 1.56097,-0.312195 2.18536,-0.468293 0.62439,-0.156097 1.83415,-0.507317 0.11707,-0.03902 0.85854,-0.507317 0.78048,-0.4682928 0.97561,-0.4682928 0.66341,0 2.30243,1.1317078 1.67805,1.092682 1.67805,1.717073 0,0.351219 -0.23414,0.858536 -0.23415,0.507317 -0.23415,0.624391 l 0,6.087804 q 0,0.819513 -0.31219,1.482927 -0.42927,0.936586 -1.17074,0.936586 -0.50731,0 -0.78048,-0.468293 -0.27317,-0.468293 -0.35122,-1.092683 z m 19.51219,15.921951 q 0,0.97561 -0.58536,0.97561 -0.93659,0 -3.00488,-2.146341 -2.02927,-2.185366 -2.02927,-2.614635 0,-0.195122 0.35122,-0.195122 0.35122,0 0.78049,0.117074 0.46829,0.117073 0.50731,0.156097 1.9122,0.585366 2.69269,1.170732 1.2878,0.936585 1.2878,2.536585 z m -8.23414,-21.697561 q 0.66341,0.507317 1.36585,0.97561 0.46829,0.429268 0.46829,0.741463 0,0.35122 -0.81951,0.97561 -0.78049,0.62439 -1.24878,0.819512 1.4439,-0.195122 2.34146,-0.312195 0.93659,-0.156097 1.63903,-0.585366 0.74146,-0.468292 0.78048,-0.468292 0.54635,0 2.14635,1.365853 1.63902,1.32683 1.63902,1.834147 0,0.27317 -0.31219,0.858536 -0.3122,0.585366 -0.3122,0.741464 l 0,7.219512 q 0,1.443902 -0.1561,2.146341 -0.31219,1.404878 -1.20975,1.404878 -0.58537,0 -0.93659,-0.468292 -0.35122,-0.468293 -0.50732,-1.092683 l -2.80975,-0.07805 q -1.48293,0 -2.53659,0.117073 -1.05366,0.07805 -1.83414,0.35122 -0.1561,0.03902 -0.62439,0.312195 -0.42927,0.234146 -0.70244,0.234146 -0.54634,0 -0.85854,-0.897561 -0.31219,-0.897561 -0.31219,-1.6 0,-0.390244 0.11707,-1.209756 0.11707,-0.819512 0.11707,-1.209756 l 0,-4.643902 q 0,-0.897561 -0.42927,-1.678049 -0.50731,-0.702439 -0.97561,-1.404878 0,-0.35122 0.66342,-0.35122 0.35122,0 0.74146,0.07805 0.39025,0.07805 0.50732,0.117073 0.74146,-0.507317 1.52195,-1.6 0.81951,-1.131707 0.81951,-1.990244 l -0.039,-0.351219 q -1.09269,0.156097 -2.14634,0.312195 -0.54635,0 -1.71708,-0.468293 -1.17073,-0.468292 -1.17073,-0.858536 0,-0.156098 0.35122,-0.234147 0.39024,-0.07805 0.78049,-0.07805 l 0.62439,0 q 1.95122,0 4.68293,-0.35122 4.21463,-0.546341 4.68292,-0.585366 1.05366,-0.312195 2.14634,-0.62439 0.70244,0 1.87317,0.62439 1.20976,0.585366 1.20976,1.209756 0,0.468293 -0.66341,0.585366 -0.62439,0.117073 -1.32683,0.117073 -0.62439,0 -1.63903,-0.07805 -1.01463,-0.07805 -1.17073,-0.07805 -0.81951,0 -2.73171,0.07805 -1.87317,0.07805 -2.02926,0.07805 z"
         style="fill:#ffffff"
         id="path4732" />
      <path
         d="m 308.72132,36.37354 q 0,2.380488 -1.20976,4.643903 -1.20975,2.302439 -2.26341,2.302439 -0.89756,0 -0.89756,-2.029269 0,-1.443902 1.20975,-2.809756 1.7561,-1.951219 2.02927,-2.497561 0.1561,-0.312195 0.35122,-0.62439 0.19512,-0.312195 0.3122,-0.312195 0.23414,0 0.35121,0.507317 0.11708,0.507317 0.11708,0.819512 z m 19.12195,2.965854 q 0,0.702439 -0.19512,1.170732 -0.19512,0.468292 -0.81951,0.468292 -0.89757,0 -3.04391,-2.731707 -2.10731,-2.770732 -2.10731,-3.746342 0,-0.195121 0.23414,-0.195121 0.19512,0 0.58537,0.156097 0.11707,0.03902 0.35122,0.156098 3.47317,1.795122 3.94146,2.263414 1.05366,1.014634 1.05366,2.458537 z m -4.72195,-10.380488 q -0.039,0 -5.07317,1.287805 -1.7561,0.429268 -2.65366,0.897561 0.81951,0.390244 1.67805,0.780488 0.97561,0.585366 0.97561,1.482927 0,0.351219 -0.0781,0.741463 -0.19512,1.014634 -0.19512,1.326829 l 0.039,5.15122 q 0,1.24878 -0.31219,2.185366 -0.4683,1.365853 -1.44391,1.365853 -0.11707,0 -2.10731,-2.029268 -1.09269,-1.092683 -1.44391,-1.365854 -0.35122,-0.234146 -0.50731,-0.312195 -0.3122,-0.234146 -0.3122,-0.351219 0,-0.273171 0.81951,-0.273171 l 1.48293,0.117073 q 0.74146,0 0.93659,-0.351219 0.23414,-0.35122 0.23414,-1.092683 l 0.078,-2.809756 q 0,-1.521952 -0.27317,-2.341464 -0.39024,-1.131707 -1.36585,-1.639024 -1.48293,0.429268 -2.96586,0.819512 -2.34146,0.702439 -2.69268,0.936585 -0.11707,0.07805 -0.58537,0.546342 -0.42926,0.429268 -0.70243,0.429268 -0.58537,0 -1.52196,-1.521951 -0.89756,-1.521951 -0.89756,-2.185366 0,-0.468293 0.42927,-0.468293 0.27317,0 0.81951,0.195122 0.54635,0.195122 0.66342,0.195122 0.74146,0 3.86341,-2.263414 1.01464,-0.741464 2.0683,-1.521952 -0.66342,-0.234146 -3.59025,-2.22439 -2.92683,-1.990244 -2.92683,-2.263414 0,-0.35122 0.85854,-0.35122 0.78049,0 1.56097,0.156098 0.78049,0.117073 1.36586,0.234146 1.48293,-0.936585 3.23902,-2.614634 2.38049,-2.263415 2.38049,-3.395122 l -0.078,-0.35122 q -1.83414,0.546342 -3.51219,0.936586 -1.63903,0.351219 -3.08293,0.351219 -0.23415,0 -0.3122,0 -0.31219,-0.03902 -0.31219,-0.195122 0,-0.117073 0.19512,-0.273171 0.50732,-0.351219 0.62439,-0.429268 3.16098,-1.287805 5.03415,-2.068292 3.55122,-1.521952 4.40975,-2.614635 0.039,-0.07805 0.23415,-0.819512 0.19512,-0.780488 0.66342,-0.780488 0.78048,0 2.22439,1.131708 1.4439,1.131707 1.4439,1.87317 0,0.429269 -0.58537,0.663415 -0.35122,0.117073 -1.09268,0.273171 -0.74146,0.117073 -1.67805,0.468292 -2.57561,1.014635 -2.96585,1.092683 1.32683,0.97561 1.95122,1.678049 0.62439,0.702439 0.62439,1.131707 0,0.390244 -0.50732,0.624391 -0.46829,0.195122 -0.89756,0.351219 -1.56098,0.858537 -3.31707,1.912195 -1.7561,1.014635 -3.04391,1.912195 0.81951,0.468293 1.48293,1.053659 0.66341,0.546341 1.20976,1.248781 0.97561,-0.546342 3.39512,-2.458537 2.65366,-2.107317 3.0439,-2.770732 0.039,-0.03902 0.3122,-0.819512 0.27317,-0.819512 0.54634,-0.819512 0.70244,0 1.91219,1.209756 1.24878,1.170732 1.24878,1.873171 0,0.507317 -0.78049,0.741463 -0.74146,0.234146 -1.40487,0.390244 -0.85854,0.351219 -1.95122,1.014634 -0.62439,0.390244 -1.87317,1.209756 -2.02927,1.248781 -4.09756,2.536586 -2.77074,1.717073 -4.17561,2.497561 2.8878,0 8,-1.170732 2.34146,-0.546342 4.68292,-1.092683 -0.50731,-0.507317 -0.97561,-1.053659 -0.74146,-0.858536 -0.74146,-1.131707 0,-0.07805 0.27317,-0.195122 1.67805,0 4.13659,1.990244 2.49756,1.95122 2.49756,3.55122 0,0.62439 -0.23415,1.131707 -0.23415,0.468293 -0.78049,0.468293 -0.42927,0 -1.2878,-0.97561 -1.17073,-1.365854 -2.30244,-2.770732 z"
         style="fill:#ffffff"
         id="path4734" />
      <path
         d="m 343.10181,36.256467 q 0,1.678049 -1.01464,3.473171 -1.01463,1.795122 -1.83414,1.795122 -0.66342,0 -0.66342,-1.521951 0,-1.209757 0.74146,-2.224391 0.74147,-1.053658 1.48293,-2.068292 0.27317,-0.585366 0.42927,-0.897561 0.19512,-0.312196 0.35122,-0.312196 0.19512,0 0.35122,0.70244 0.1561,0.702439 0.1561,1.053658 z m 10.80975,0.468293 q 0.039,1.131707 -0.54634,1.131707 -0.85854,0 -2.22439,-1.795122 -1.36585,-1.834146 -1.36585,-2.84878 0.11707,-0.273171 0.19512,-0.273171 0.19512,0 0.46829,0.195122 0.27317,0.156097 0.54634,0.312195 0.97561,0.62439 1.99025,1.209756 0.93658,0.741463 0.93658,2.068293 z m -3.23902,-8.663415 q -2.38049,1.209756 -4.76098,2.419512 0.97561,0.468293 1.36586,0.780488 0.66341,0.546342 0.66341,1.365854 l -0.039,6.790244 q 0,1.053658 -0.1561,1.912195 -0.27317,1.443902 -0.81951,1.443902 -0.70244,0 -1.09269,-1.404878 -0.39024,-1.404878 -0.39024,-2.302439 0,-0.507317 0.27317,-2.029268 0.1561,-0.858537 0.1561,-1.248781 l 0.039,-1.678048 q 0,-1.287805 -0.19512,-2.107317 -0.19512,-0.858537 -0.81951,-1.131708 -1.01464,0.507317 -1.56098,0.741464 -0.93658,0.468292 -1.52195,0.858536 -0.1561,0.117073 -0.42927,0.546342 -0.27317,0.390244 -0.46829,0.429268 -0.58537,0 -1.13171,-1.170732 -0.50731,-1.170731 -0.50731,-2.107317 0,-0.663414 0.31219,-0.663414 0.1561,0 0.50732,0.117073 0.35122,0.117073 0.50731,0.117073 0.39025,0 2.41952,-2.497561 1.75609,-2.146342 2.38048,-3.121951 -0.9756,-0.429269 -3.12195,-1.873171 -2.69268,-1.795122 -2.69268,-2.497561 0,-0.390244 0.85854,-0.390244 0.58536,0 1.1317,0.117073 0.54635,0.117073 1.01464,0.195122 1.09268,-1.756097 2.18536,-3.785366 1.40488,-2.614634 1.7561,-3.902439 l -0.11707,-1.014634 q 0,-0.468293 0.46829,-0.468293 0.78049,0 2.06829,1.053659 1.28781,1.053659 1.28781,1.795122 0,0.429268 -0.50732,0.702439 -0.46829,0.234146 -0.89756,0.429268 -1.32683,1.014634 -2.69268,2.770732 -1.6,2.146341 -2.34147,3.121951 0.81952,0.35122 1.56098,0.97561 0.74146,0.62439 1.13171,1.365854 0.58536,-0.702439 1.7561,-2.536586 1.32682,-2.146341 1.32682,-2.653658 l -0.039,-0.780488 q 0,-0.663415 0.42927,-0.663415 0.81951,0 2.06829,0.97561 1.28781,0.97561 1.28781,1.717073 0,0.35122 -0.78049,0.663415 -0.74147,0.273171 -0.81951,0.312195 -1.17074,1.131707 -2.88781,3.2 -1.95122,2.341463 -2.84878,3.434146 -1.79512,2.146342 -3.16097,3.317073 1.36585,-0.156097 3.59024,-0.936585 1.52195,-0.546341 3.59024,-1.404878 -0.70244,-0.819512 -1.17073,-1.521951 -0.42927,-0.741464 -0.42927,-1.053659 0,-0.234146 0.27317,-0.234146 1.32683,0 3.3561,1.404878 2.02927,1.404878 2.02927,2.614634 0,0.819512 -0.19512,1.170732 -0.19512,0.351219 -0.54634,0.351219 -0.54635,0 -1.40488,-0.741463 -0.62439,-0.546341 -1.24878,-1.287805 z m 11.16097,-1.365854 -2.8878,1.209757 q 0.74146,0.312195 1.36585,0.585365 1.28781,0.585366 1.28781,1.131708 0,0.312195 -0.27317,0.741463 -0.23415,0.429268 -0.27317,0.62439 -0.74147,3.941464 -1.7561,5.970732 -1.40488,2.731707 -4.33171,4.331707 -0.39024,0.234147 -0.93658,0.507317 -0.50732,0.312196 -0.74147,0.312196 l -0.1561,-0.117074 q 1.95122,-2.536585 2.92683,-4.058536 2.92683,-4.565854 2.92683,-7.102439 0,-1.326829 -0.85853,-1.990244 -0.27317,0.507317 -0.70244,0.507317 -0.66342,0 -1.40488,-1.209756 -0.70244,-1.209756 -0.70244,-1.990244 0,-0.546341 0.81951,-0.546341 l 0.50732,0 q 0.74146,-0.819513 1.79512,-2.809757 1.09268,-1.990243 1.09268,-3.004878 l -0.039,-0.27317 q -0.35122,0 -1.05366,0.234146 -0.66341,0.195122 -0.93658,0.195122 -0.4683,0 -1.52196,-0.429268 -1.01463,-0.429269 -1.01463,-0.780488 0,-0.156098 0.54634,-0.195122 0.58537,-0.07805 1.24878,-0.117073 0.66342,-0.07805 2.0683,-0.35122 1.4439,-0.312195 1.99024,-0.429268 0,-0.429268 0,-0.663415 0,-0.663414 -0.078,-1.092683 -0.039,-0.429268 -0.23415,-0.975609 -0.15609,-0.546342 -1.56097,-2.107317 -0.23415,-0.273171 -0.66342,-0.70244 0,-0.546341 1.28781,-0.546341 1.52195,0 3.12195,0.663415 1.63902,0.663414 1.63902,1.521951 0,0.351219 -0.35122,1.365854 -0.19512,0.546341 -0.19512,0.858536 l 0.039,1.053659 q 0.89756,0 2.10731,-0.468293 2.69269,-1.053659 3.27805,-1.053659 0.89756,0 1.67805,0.312196 0.78049,0.27317 0.78049,1.014634 0,0.468292 -0.3122,0.702439 -0.31219,0.234146 -0.78048,0.312195 -2.57561,0 -4.64391,0.234146 -2.06829,0.195122 -4.21463,0.780488 0.74146,0.507317 1.52195,1.014634 0.42927,0.35122 0.42927,0.663415 0,0.468292 -1.01463,1.014634 -0.70244,0.429268 -1.87318,1.951219 -1.32682,1.795122 -1.75609,2.146342 l 7.5317,-2.068293 q -0.35122,-0.390244 -0.85853,-1.209756 -0.62439,-1.014634 -0.62439,-1.326829 0,-0.156098 0.11707,-0.234146 0.039,0 0.11707,-0.03902 0.1561,0 0.35122,0.07805 0.0781,0.03902 0.27317,0.156097 0.0781,0.03902 2.30244,1.209757 2.53659,1.326829 2.53659,3.239024 0,1.482927 -0.70244,1.482927 -0.54634,0 -1.67805,-1.092683 -0.54634,-0.546342 -1.40488,-1.521951 l -3.82439,1.6 q 1.40488,0.27317 1.9122,0.62439 0.50731,0.312195 0.50731,0.819512 0,0.234146 -0.39024,1.209756 -0.23415,0.585366 -0.23415,0.858537 l -0.11707,7.336585 q 0,1.521951 0.97561,2.263415 0.97561,0.741463 2.53659,0.741463 1.63902,0 2.18536,-0.741463 0.58537,-0.780488 0.58537,-2.497561 l 0,-0.819512 q 0,-0.741464 0.039,-1.209757 0.078,-0.507317 0.3122,-0.507317 0.23414,0 0.93658,2.068293 0.70244,2.029268 1.09269,2.419512 0.42926,0.390244 0.70243,0.780488 0.3122,0.390244 0.3122,0.780488 0,0.858536 -1.9122,1.326829 -1.48292,0.35122 -2.7317,0.35122 -4.60488,0 -6.08781,-2.185366 -1.17073,-1.717073 -1.17073,-6.595122 l 0.0781,-2.536585 q 0,-1.287805 -0.039,-1.6 -0.19513,-1.482927 -0.81952,-2.107318 z"
         style="fill:#ffffff"
         id="path4736" />
    </g>
  </g>
</svg>
