<?xml version="1.0" encoding="UTF-8" standalone="no"?>
<!-- Generator: Adobe Illustrator 16.0.0, SVG Export Plug-In . SVG Version: 6.00 Build 0)  -->

<svg
   xmlns:dc="http://purl.org/dc/elements/1.1/"
   xmlns:cc="http://creativecommons.org/ns#"
   xmlns:rdf="http://www.w3.org/1999/02/22-rdf-syntax-ns#"
   xmlns:svg="http://www.w3.org/2000/svg"
   xmlns="http://www.w3.org/2000/svg"
   xmlns:sodipodi="http://sodipodi.sourceforge.net/DTD/sodipodi-0.dtd"
   xmlns:inkscape="http://www.inkscape.org/namespaces/inkscape"
   version="1.1"
   id="Layer_1"
   x="0px"
   y="0px"
   width="512px"
   height="512px"
   viewBox="0 0 512 512"
   enable-background="new 0 0 512 512"
   xml:space="preserve"
   inkscape:version="0.91 r13725"
   sodipodi:docname="Edit.svg"><metadata
     id="metadata9"><rdf:RDF><cc:Work
         rdf:about=""><dc:format>image/svg+xml</dc:format><dc:type
           rdf:resource="http://purl.org/dc/dcmitype/StillImage" /></cc:Work></rdf:RDF></metadata><defs
     id="defs7" /><sodipodi:namedview
     pagecolor="#ffffff"
     bordercolor="#666666"
     borderopacity="1"
     objecttolerance="10"
     gridtolerance="10"
     guidetolerance="10"
     inkscape:pageopacity="0"
     inkscape:pageshadow="2"
     inkscape:window-width="1440"
     inkscape:window-height="851"
     id="namedview5"
     showgrid="false"
     inkscape:zoom="0.921875"
     inkscape:cx="178.84077"
     inkscape:cy="133.62855"
     inkscape:window-x="0"
     inkscape:window-y="1"
     inkscape:window-maximized="1"
     inkscape:current-layer="Layer_1" /><path
     d="M 499.278,176.515 476.653,199.156 312.871,35.39 335.496,12.749 C 360.496,-12.251 415.027,1.749 440.027,26.749 L 485.277,72.015 C 510.246,97 524.246,151.515 499.278,176.515 Z M 186.465,436.031 C 180.215,442.281 184.215,456.406 190.465,462.656 196.715,468.937 206.84,468.937 213.09,462.656 L 462.028,213.781 435.372,187.14 Z M 47.309,296.906 C 41.059,303.156 41.059,313.281 47.309,319.531 53.559,325.781 67.684,329.781 73.934,323.531 L 322.871,74.64 296.246,48.015 Z M 357.465,109.25 108.559,358.156 C 96.059,370.625 96.09,390.906 108.559,403.406 121.059,415.906 141.309,415.969 153.84,403.375 L 402.746,154.516 Z M 169.778,487.219 C 162.122,479.563 158.434,469.844 157.059,459.844 153.809,460.344 150.528,460.813 147.184,460.813 130.09,460.813 98.028,438.125 85.934,426.032 73.84,413.907 51.184,381.876 51.184,364.782 51.184,361.657 51.653,358.626 52.09,355.594 41.746,354.188 32.184,349.656 24.684,342.156 23.965,341.437 23.715,340.468 23.059,339.687 L -0.004,512 171.902,488.969 C 171.215,488.344 170.434,487.875 169.778,487.219 Z"
     id="path3"
     inkscape:connector-curvature="0"
     sodipodi:nodetypes="ccccccccccccccsccccccccccscscscscccs" /></svg>